M48
INCH,LZ
T1C0.025
T2C0.032
T3C0.040
T4C0.080
%
G05
T1
X0433Y-047
X04375Y-044
X04415Y-0355
X0442Y-0446
X0443Y-04565
X0443Y-0519
X04455Y-04805
X04465Y-04485
X0451Y-04605
X0456Y-0462
X0461Y-04175
X0461Y-04565
X0464Y-03745
X0466Y-0462
X0471Y-04565
X0471Y-04905
X0475Y-04005
X0476Y-0462
X0477Y-0336
X0481Y-04565
X0482Y-03415
X0483Y-04905
X04835Y-05085
X0484Y-0519
X0485Y-04095
X0486Y-0462
X049Y-0406
X0491Y-04565
X04915Y-03265
X0496Y-0311
X0496Y-0406
X0496Y-04625
X04965Y-03225
X0497Y-0351
X05Y-0379
X0502Y-0371
X0504Y-05085
X05055Y-0449
X0506Y-0308
X0508Y-03335
X0508Y-0351
X05085Y-0481
X05115Y-0308
X0512Y-05085
X05125Y-0519
X05125Y-0531
X0513Y-03355
X0519Y-0418
X0519Y-0445
X05195Y-0519
X05205Y-03015
X05215Y-0308
X0524Y-0401
X05275Y-0446
X0528Y-033275
X0532Y-03415
X0534Y-04265
X0538Y-0422
X054Y-03955
X054075Y-0383
X05425Y-05085
X0546Y-03015
X0546Y-0495
X05465Y-0418
X0547Y-0351
X05475Y-0519
X05475Y-0531
X0549Y-03835
X05495Y-05085
X055Y-0445
X05515Y-0302
X0554Y-0418
X05545Y-0377
X05545Y-0519
X0558Y-03035
X0558Y-0384
X0558Y-0443
X05595Y-03255
X05615Y-0309
X05715Y-03915
X0575Y-042
X05805Y-04955
X0581Y-0401
X05845Y-03935
X05855Y-05085
X0586Y-03515
X05885Y-03365
X05905Y-0519
X0592Y-04285
X0599Y-0313
X0601Y-0358
X06055Y-05045
X0606Y-0519
X0606Y-0526
X0619Y-0266
X0619Y-04305
X062Y-0459
X062Y-0492
X06245Y-04885
X062475Y-0464
X0626Y-04075
X063075Y-0468
X06335Y-04915
X0635Y-0444
X06365Y-0508
X0638Y-0468
X0645Y-0427
X065Y-0445
X06575Y-0473
X0658Y-0487
X0658Y-0498
X066Y-0539
X0661Y-05085
X06615Y-0478
X0663Y-04835
X0665Y-0518
X0666Y-0512
X06705Y-05215
X06705Y-0543
X06785Y-0529
X06785Y-0539
T2
X0592Y-02835
X0592Y-0361
T3
X0411Y-04996
X0411Y-05315
X0421Y-04996
X0421Y-05315
X0431Y-04996
X0431Y-05315
X04485Y-04985
X04485Y-05315
X04585Y-04985
X04585Y-05315
X04685Y-04985
X04685Y-05315
X0472Y-02835
X0472Y-02935
X0472Y-0361
X0472Y-0371
X0482Y-02835
X0482Y-02935
X0482Y-0361
X0482Y-0371
X0484Y-04985
X0484Y-05315
X0492Y-02835
X0492Y-02935
X0492Y-0361
X0492Y-0371
X0494Y-04985
X0494Y-05315
X0502Y-02835
X0502Y-02935
X0502Y-0361
X0502Y-0371
X0504Y-04985
X0504Y-05315
X0512Y-02835
X0512Y-02935
X0512Y-0361
X0512Y-0371
X05195Y-04985
X05195Y-05315
X0522Y-02835
X0522Y-02935
X0522Y-0361
X0522Y-0371
X05295Y-04985
X05295Y-05315
X0532Y-02835
X0532Y-02935
X0532Y-0361
X0532Y-0371
X05395Y-04985
X05395Y-05315
X0542Y-02835
X0542Y-02935
X0542Y-0361
X0542Y-0371
X0552Y-02835
X0552Y-02935
X0552Y-0361
X0552Y-0371
X05545Y-04985
X05545Y-05315
X0562Y-02835
X0562Y-02935
X0562Y-0361
X0562Y-0371
X05645Y-04985
X05645Y-05315
X0572Y-02835
X0572Y-02935
X0572Y-0361
X0572Y-0371
X05745Y-04985
X05745Y-05315
X0582Y-02835
X0582Y-02935
X0582Y-0361
X0582Y-0371
X05905Y-04985
X05905Y-05315
X0592Y-02935
X0592Y-0371
X06005Y-04985
X06005Y-05315
X06085Y-02745
X06085Y-02845
X06085Y-02945
X06085Y-03045
X06085Y-03145
X06085Y-03515
X06085Y-03615
X06085Y-03715
X06085Y-03815
X06085Y-03915
X06105Y-04985
X06105Y-05315
T4
X04205Y-0475
X0467Y-0321
X06015Y-04685
X0638Y-03275
T0
M30
