G04 (created by PCBnew (20090216-final)) date Wed 12 Aug 2009 18:28:04 CDT*
G01*
G70*
G90*
%MOIN*%
G04 Gerber Fmt 3.4, Leading zero omitted, Abs format*
%FSLAX34Y34*%
G04 APERTURE LIST*
%ADD10C,0.015000*%
%ADD11C,0.100000*%
%ADD12R,0.060000X0.060000*%
%ADD13C,0.060000*%
%ADD14R,0.045000X0.025000*%
%ADD15R,0.035000X0.055000*%
%ADD16R,0.020000X0.045000*%
%ADD17R,0.055000X0.017000*%
%ADD18R,0.030000X0.060000*%
%ADD19R,0.055000X0.035000*%
%ADD20R,0.016500X0.057900*%
%ADD21C,0.045000*%
%ADD22C,0.034000*%
%ADD23C,0.017000*%
%ADD24C,0.010000*%
%ADD25R,0.030000X0.250000*%
%ADD26R,0.060000X0.080000*%
%ADD27R,0.060000X0.030000*%
%ADD28R,0.050000X0.115000*%
%ADD29R,0.135000X0.050000*%
%ADD30R,0.070900X0.165400*%
%ADD31R,0.393700X0.374000*%
%ADD32R,0.100000X0.047000*%
%ADD33R,0.025000X0.045000*%
%ADD34C,0.068000*%
%ADD35C,0.005000*%
%ADD36C,0.008000*%
%ADD37C,0.007500*%
%ADD38C,0.003900*%
%ADD39C,0.012000*%
%ADD40C,0.006000*%
%ADD41C,0.120000*%
%ADD42R,0.080000X0.080000*%
%ADD43C,0.080000*%
%ADD44R,0.065000X0.045000*%
%ADD45R,0.055000X0.075000*%
%ADD46R,0.040000X0.065000*%
%ADD47R,0.075000X0.037000*%
%ADD48R,0.050000X0.080000*%
%ADD49R,0.075000X0.055000*%
%ADD50R,0.036500X0.077900*%
%ADD51R,0.050000X0.270000*%
%ADD52R,0.080000X0.100000*%
%ADD53R,0.080000X0.050000*%
%ADD54R,0.070000X0.135000*%
%ADD55R,0.155000X0.070000*%
%ADD56R,0.090900X0.185400*%
%ADD57R,0.413700X0.394000*%
%ADD58R,0.120000X0.067000*%
%ADD59R,0.045000X0.065000*%
G04 APERTURE END LIST*
G54D10*
X40400Y-55000D02*
X39900Y-55000D01*
X40400Y-26000D02*
X39900Y-26000D01*
X40400Y-26000D02*
X69000Y-26000D01*
X40400Y-55000D02*
X69000Y-55000D01*
X39900Y-26000D02*
X39900Y-55000D01*
X68500Y-26000D02*
X69000Y-26000D01*
X69000Y-26000D02*
X68500Y-26000D01*
X69000Y-55000D02*
X69000Y-26000D01*
G54D41*
X63800Y-32750D03*
X60150Y-46850D03*
X42050Y-47500D03*
X46700Y-32100D03*
G54D42*
X60850Y-39150D03*
G54D43*
X60850Y-38150D03*
X60850Y-37150D03*
X60850Y-36150D03*
X60850Y-35150D03*
G54D42*
X60850Y-31450D03*
G54D43*
X60850Y-30450D03*
X60850Y-29450D03*
X60850Y-28450D03*
X60850Y-27450D03*
G54D51*
X42750Y-33450D03*
X43250Y-33450D03*
X43750Y-33450D03*
X44250Y-33450D03*
G54D49*
X61950Y-34225D03*
X61950Y-34975D03*
G54D52*
X67000Y-32700D03*
X68300Y-32700D03*
G54D53*
X64800Y-46800D03*
X64800Y-47300D03*
X64800Y-47800D03*
X64800Y-48300D03*
X64800Y-48800D03*
X64800Y-49300D03*
X64800Y-49800D03*
X64800Y-50300D03*
X64800Y-50800D03*
X64800Y-51300D03*
X64800Y-51800D03*
X64800Y-52350D03*
X67800Y-46800D03*
X67800Y-47300D03*
X67800Y-47800D03*
X67800Y-48300D03*
X67800Y-48800D03*
X67800Y-49300D03*
X67800Y-49800D03*
X67800Y-50300D03*
X67800Y-50800D03*
X67800Y-51300D03*
X67800Y-51800D03*
X67800Y-52300D03*
G54D54*
X66144Y-31462D03*
X64962Y-31462D03*
G54D55*
X67621Y-29297D03*
X63487Y-29297D03*
G54D56*
X67034Y-34281D03*
X65066Y-34281D03*
G54D57*
X66050Y-38219D03*
G54D50*
X55928Y-38998D03*
X55672Y-38998D03*
X55416Y-38998D03*
X55160Y-38998D03*
X56692Y-41200D03*
X56696Y-38998D03*
X56440Y-38998D03*
X56184Y-38998D03*
X54904Y-41202D03*
X55160Y-41202D03*
X55416Y-41202D03*
X55672Y-41202D03*
X55928Y-41202D03*
X56184Y-41202D03*
X54904Y-38998D03*
X56440Y-41200D03*
G54D49*
X48350Y-42425D03*
X48350Y-43175D03*
X47600Y-42425D03*
X47600Y-43175D03*
X43650Y-40675D03*
X43650Y-41425D03*
X44500Y-40675D03*
X44500Y-41425D03*
X45300Y-41275D03*
X45300Y-42025D03*
X46100Y-42425D03*
X46100Y-43175D03*
X49500Y-43275D03*
X49500Y-44025D03*
X46850Y-42425D03*
X46850Y-43175D03*
X51900Y-43275D03*
X51900Y-44025D03*
X50550Y-43275D03*
X50550Y-44025D03*
G54D46*
X63500Y-43700D03*
X64000Y-43700D03*
X64500Y-43700D03*
X65000Y-43700D03*
X65500Y-43700D03*
X66000Y-43700D03*
X66500Y-43700D03*
X66500Y-41200D03*
X66000Y-41200D03*
X65000Y-41200D03*
X64500Y-41200D03*
X64000Y-41200D03*
X63500Y-41200D03*
X65500Y-41200D03*
G54D45*
X67275Y-46000D03*
X68025Y-46000D03*
G54D49*
X67650Y-42775D03*
X67650Y-42025D03*
G54D45*
X56625Y-33050D03*
X57375Y-33050D03*
X48925Y-33350D03*
X49675Y-33350D03*
G54D49*
X49325Y-40025D03*
X49325Y-39275D03*
G54D45*
X63175Y-31400D03*
X63925Y-31400D03*
X57525Y-41200D03*
X58275Y-41200D03*
G54D58*
X44150Y-36250D03*
X44150Y-37230D03*
X44150Y-38210D03*
X41970Y-38210D03*
X41970Y-37230D03*
X41970Y-36250D03*
G54D59*
X42750Y-45300D03*
X43350Y-45300D03*
X42750Y-44600D03*
X43350Y-44600D03*
G54D45*
X43025Y-46450D03*
X43775Y-46450D03*
G54D42*
X59200Y-28350D03*
G54D43*
X59200Y-29350D03*
X58200Y-28350D03*
X58200Y-29350D03*
X57200Y-28350D03*
X57200Y-29350D03*
X56200Y-28350D03*
X56200Y-29350D03*
X55200Y-28350D03*
X55200Y-29350D03*
X54200Y-28350D03*
X54200Y-29350D03*
X53200Y-28350D03*
X53200Y-29350D03*
X52200Y-28350D03*
X52200Y-29350D03*
X51200Y-28350D03*
X51200Y-29350D03*
X50200Y-28350D03*
X50200Y-29350D03*
X49200Y-28350D03*
X49200Y-29350D03*
X48200Y-28350D03*
X48200Y-29350D03*
X47200Y-28350D03*
X47200Y-29350D03*
G54D42*
X59200Y-36100D03*
G54D43*
X59200Y-37100D03*
X58200Y-36100D03*
X58200Y-37100D03*
X57200Y-36100D03*
X57200Y-37100D03*
X56200Y-36100D03*
X56200Y-37100D03*
X55200Y-36100D03*
X55200Y-37100D03*
X54200Y-36100D03*
X54200Y-37100D03*
X53200Y-36100D03*
X53200Y-37100D03*
X52200Y-36100D03*
X52200Y-37100D03*
X51200Y-36100D03*
X51200Y-37100D03*
X50200Y-36100D03*
X50200Y-37100D03*
X49200Y-36100D03*
X49200Y-37100D03*
X48200Y-36100D03*
X48200Y-37100D03*
X47200Y-36100D03*
X47200Y-37100D03*
G54D42*
X44850Y-53150D03*
G54D43*
X45850Y-53150D03*
X46850Y-53150D03*
G54D42*
X44850Y-49850D03*
G54D43*
X45850Y-49850D03*
X46850Y-49850D03*
G54D42*
X48400Y-53150D03*
G54D43*
X49400Y-53150D03*
X50400Y-53150D03*
G54D42*
X48400Y-49850D03*
G54D43*
X49400Y-49850D03*
X50400Y-49850D03*
G54D42*
X51950Y-53150D03*
G54D43*
X52950Y-53150D03*
X53950Y-53150D03*
G54D42*
X51950Y-49850D03*
G54D43*
X52950Y-49850D03*
X53950Y-49850D03*
G54D42*
X55450Y-53150D03*
G54D43*
X56450Y-53150D03*
X57450Y-53150D03*
G54D42*
X55450Y-49850D03*
G54D43*
X56450Y-49850D03*
X57450Y-49850D03*
G54D42*
X59050Y-49850D03*
G54D43*
X60050Y-49850D03*
X61050Y-49850D03*
G54D42*
X59050Y-53150D03*
G54D43*
X60050Y-53150D03*
X61050Y-53150D03*
G54D42*
X41100Y-49960D03*
G54D43*
X42100Y-49960D03*
X43100Y-49960D03*
G54D42*
X41100Y-53150D03*
G54D43*
X42100Y-53150D03*
X43100Y-53150D03*
M02*
