G04 (created by PCBnew (20090216-final)) date Wed 12 Aug 2009 19:46:25 CDT*
G01*
G70*
G90*
%MOIN*%
G04 Gerber Fmt 3.4, Leading zero omitted, Abs format*
%FSLAX34Y34*%
G04 APERTURE LIST*
%ADD10C,0.015000*%
%ADD11C,0.100000*%
%ADD12R,0.060000X0.060000*%
%ADD13C,0.060000*%
%ADD14R,0.045000X0.025000*%
%ADD15R,0.035000X0.055000*%
%ADD16R,0.020000X0.045000*%
%ADD17R,0.055000X0.017000*%
%ADD18R,0.030000X0.060000*%
%ADD19R,0.055000X0.035000*%
%ADD20R,0.016500X0.057900*%
%ADD21C,0.140000*%
%ADD22C,0.045000*%
%ADD23C,0.034000*%
%ADD24C,0.017000*%
%ADD25C,0.010000*%
G04 APERTURE END LIST*
G54D10*
X40400Y-55000D02*
X39900Y-55000D01*
X40400Y-26000D02*
X39900Y-26000D01*
X40400Y-26000D02*
X69000Y-26000D01*
X40400Y-55000D02*
X69000Y-55000D01*
X39900Y-26000D02*
X39900Y-55000D01*
X68500Y-26000D02*
X69000Y-26000D01*
X69000Y-26000D02*
X68500Y-26000D01*
X69000Y-55000D02*
X69000Y-26000D01*
G54D11*
X63800Y-32750D03*
X60150Y-46850D03*
X42050Y-47500D03*
X46700Y-32100D03*
G54D12*
X60850Y-39150D03*
G54D13*
X60850Y-38150D03*
X60850Y-37150D03*
X60850Y-36150D03*
X60850Y-35150D03*
G54D12*
X60850Y-31450D03*
G54D13*
X60850Y-30450D03*
X60850Y-29450D03*
X60850Y-28450D03*
X60850Y-27450D03*
G54D14*
X54000Y-34700D03*
X54000Y-35300D03*
G54D15*
X55425Y-35100D03*
X56175Y-35100D03*
G54D16*
X53800Y-41400D03*
X53300Y-41400D03*
X52800Y-41400D03*
X52300Y-41400D03*
X51800Y-41400D03*
X51300Y-41400D03*
X50800Y-41400D03*
X50800Y-38900D03*
X51300Y-38900D03*
X52300Y-38900D03*
X52800Y-38900D03*
X53300Y-38900D03*
X53800Y-38900D03*
X51800Y-38900D03*
X57500Y-45100D03*
X57000Y-45100D03*
X56500Y-45100D03*
X56000Y-45100D03*
X55500Y-45100D03*
X55000Y-45100D03*
X54500Y-45100D03*
X54500Y-42600D03*
X55000Y-42600D03*
X56000Y-42600D03*
X56500Y-42600D03*
X57000Y-42600D03*
X57500Y-42600D03*
X55500Y-42600D03*
X54650Y-34100D03*
X55650Y-34100D03*
X56150Y-34100D03*
X56650Y-34100D03*
X57150Y-34100D03*
X57650Y-34100D03*
X58150Y-34100D03*
X58150Y-31600D03*
X57650Y-31600D03*
X57150Y-31600D03*
X56650Y-31600D03*
X56150Y-31600D03*
X55650Y-31600D03*
X55150Y-31600D03*
X54650Y-31600D03*
X55150Y-34100D03*
X49150Y-34150D03*
X50150Y-34150D03*
X50650Y-34150D03*
X51150Y-34150D03*
X51650Y-34150D03*
X52150Y-34150D03*
X52650Y-34150D03*
X52650Y-31650D03*
X52150Y-31650D03*
X51650Y-31650D03*
X51150Y-31650D03*
X50650Y-31650D03*
X50150Y-31650D03*
X49650Y-31650D03*
X49150Y-31650D03*
X49650Y-34150D03*
G54D17*
X48600Y-38040D03*
X48600Y-38290D03*
X48600Y-38550D03*
X48600Y-38800D03*
X48600Y-39060D03*
X48600Y-39315D03*
X48600Y-39570D03*
X46400Y-39570D03*
X46400Y-39315D03*
X46400Y-39060D03*
X46400Y-38800D03*
X46400Y-38545D03*
X46400Y-38290D03*
X46400Y-38035D03*
G54D18*
X50100Y-47000D03*
X49600Y-47000D03*
X49100Y-47000D03*
X48600Y-47000D03*
X48100Y-47000D03*
X47600Y-47000D03*
X47100Y-47000D03*
X46600Y-47000D03*
X46100Y-47000D03*
X45600Y-47000D03*
X45100Y-47000D03*
X44550Y-47000D03*
X50100Y-44000D03*
X49600Y-44000D03*
X49100Y-44000D03*
X48600Y-44000D03*
X48100Y-44000D03*
X47600Y-44000D03*
X47100Y-44000D03*
X46600Y-44000D03*
X46100Y-44000D03*
X45600Y-44000D03*
X45100Y-44000D03*
X44600Y-44000D03*
G54D14*
X49400Y-48550D03*
X49400Y-47950D03*
X48800Y-48550D03*
X48800Y-47950D03*
X45800Y-48550D03*
X45800Y-47950D03*
X46400Y-48550D03*
X46400Y-47950D03*
X47000Y-48550D03*
X47000Y-47950D03*
X47600Y-48550D03*
X47600Y-47950D03*
X50000Y-48550D03*
X50000Y-47950D03*
X48200Y-48550D03*
X48200Y-47950D03*
X51900Y-45500D03*
X51900Y-44900D03*
X51150Y-45500D03*
X51150Y-44900D03*
G54D19*
X53450Y-44925D03*
X53450Y-44175D03*
G54D15*
X50125Y-43250D03*
X50875Y-43250D03*
X49475Y-41750D03*
X50225Y-41750D03*
G54D20*
X60572Y-42848D03*
X60828Y-42848D03*
X61084Y-42848D03*
X61340Y-42848D03*
X59808Y-45050D03*
X59804Y-42848D03*
X60060Y-42848D03*
X60316Y-42848D03*
X61596Y-45052D03*
X61340Y-45052D03*
X61084Y-45052D03*
X60828Y-45052D03*
X60572Y-45052D03*
X60316Y-45052D03*
X61596Y-42848D03*
X60060Y-45050D03*
G54D15*
X43025Y-45700D03*
X43775Y-45700D03*
G54D12*
X59200Y-28350D03*
G54D13*
X59200Y-29350D03*
X58200Y-28350D03*
X58200Y-29350D03*
X57200Y-28350D03*
X57200Y-29350D03*
X56200Y-28350D03*
X56200Y-29350D03*
X55200Y-28350D03*
X55200Y-29350D03*
X54200Y-28350D03*
X54200Y-29350D03*
X53200Y-28350D03*
X53200Y-29350D03*
X52200Y-28350D03*
X52200Y-29350D03*
X51200Y-28350D03*
X51200Y-29350D03*
X50200Y-28350D03*
X50200Y-29350D03*
X49200Y-28350D03*
X49200Y-29350D03*
X48200Y-28350D03*
X48200Y-29350D03*
X47200Y-28350D03*
X47200Y-29350D03*
G54D12*
X59200Y-36100D03*
G54D13*
X59200Y-37100D03*
X58200Y-36100D03*
X58200Y-37100D03*
X57200Y-36100D03*
X57200Y-37100D03*
X56200Y-36100D03*
X56200Y-37100D03*
X55200Y-36100D03*
X55200Y-37100D03*
X54200Y-36100D03*
X54200Y-37100D03*
X53200Y-36100D03*
X53200Y-37100D03*
X52200Y-36100D03*
X52200Y-37100D03*
X51200Y-36100D03*
X51200Y-37100D03*
X50200Y-36100D03*
X50200Y-37100D03*
X49200Y-36100D03*
X49200Y-37100D03*
X48200Y-36100D03*
X48200Y-37100D03*
X47200Y-36100D03*
X47200Y-37100D03*
G54D12*
X44850Y-53150D03*
G54D13*
X45850Y-53150D03*
X46850Y-53150D03*
G54D12*
X44850Y-49850D03*
G54D13*
X45850Y-49850D03*
X46850Y-49850D03*
G54D12*
X48400Y-53150D03*
G54D13*
X49400Y-53150D03*
X50400Y-53150D03*
G54D12*
X48400Y-49850D03*
G54D13*
X49400Y-49850D03*
X50400Y-49850D03*
G54D12*
X51950Y-53150D03*
G54D13*
X52950Y-53150D03*
X53950Y-53150D03*
G54D12*
X51950Y-49850D03*
G54D13*
X52950Y-49850D03*
X53950Y-49850D03*
G54D12*
X55450Y-53150D03*
G54D13*
X56450Y-53150D03*
X57450Y-53150D03*
G54D12*
X55450Y-49850D03*
G54D13*
X56450Y-49850D03*
X57450Y-49850D03*
G54D12*
X59050Y-49850D03*
G54D13*
X60050Y-49850D03*
X61050Y-49850D03*
G54D12*
X59050Y-53150D03*
G54D13*
X60050Y-53150D03*
X61050Y-53150D03*
G54D12*
X41100Y-49960D03*
G54D13*
X42100Y-49960D03*
X43100Y-49960D03*
G54D12*
X41100Y-53150D03*
G54D13*
X42100Y-53150D03*
X43100Y-53150D03*
G54D21*
X42000Y-29500D03*
X45000Y-29500D03*
G54D22*
X57150Y-39150D03*
X57500Y-42000D03*
X59200Y-42850D03*
X46400Y-37450D03*
X47500Y-40050D03*
X52750Y-44600D03*
X60100Y-35800D03*
X48200Y-34150D03*
X52400Y-40100D03*
X55950Y-32550D03*
X43300Y-47000D03*
X61900Y-43050D03*
X49650Y-32250D03*
X44550Y-48050D03*
X46100Y-41750D03*
X58850Y-33650D03*
X61900Y-26600D03*
X49700Y-35100D03*
X50200Y-37100D03*
X58600Y-35150D03*
X53400Y-42650D03*
X49150Y-32650D03*
X52050Y-30150D03*
X54600Y-30150D03*
X54700Y-35100D03*
X54075Y-38300D03*
X50000Y-37900D03*
X54000Y-39550D03*
X54900Y-38350D03*
X54650Y-41800D03*
X51900Y-41800D03*
X48500Y-40950D03*
X53800Y-42200D03*
X49600Y-40600D03*
X47700Y-33600D03*
X49000Y-40600D03*
X55800Y-38400D03*
X58100Y-40100D03*
X55800Y-44300D03*
X55000Y-44500D03*
X55400Y-41800D03*
X56150Y-30900D03*
X52800Y-33275D03*
X51300Y-33550D03*
X55450Y-37700D03*
X64500Y-42700D03*
X55800Y-30350D03*
X52150Y-30800D03*
X62600Y-40750D03*
X59900Y-31300D03*
X55150Y-30200D03*
X50800Y-35100D03*
X50800Y-33350D03*
X53200Y-34150D03*
X58450Y-39350D03*
X51150Y-30800D03*
X50600Y-30800D03*
X49600Y-31100D03*
X65000Y-44500D03*
X63800Y-46800D03*
X62000Y-49200D03*
X62450Y-48850D03*
X54750Y-53100D03*
X54250Y-50850D03*
X54750Y-51900D03*
X65800Y-48700D03*
X51250Y-53100D03*
X63350Y-49150D03*
X50400Y-50850D03*
X51250Y-51900D03*
X65800Y-49800D03*
X60550Y-50450D03*
X60600Y-52600D03*
X62000Y-45900D03*
X45600Y-46200D03*
X66600Y-51200D03*
X62475Y-46400D03*
X45100Y-46050D03*
X66500Y-51800D03*
X65750Y-47300D03*
X66150Y-47800D03*
X60600Y-51900D03*
X63650Y-50800D03*
X66300Y-48350D03*
X66000Y-53900D03*
X66100Y-50850D03*
X43750Y-44000D03*
X67050Y-54300D03*
X67050Y-52150D03*
X67850Y-53900D03*
X44650Y-44850D03*
X67850Y-52900D03*
X50850Y-48100D03*
X63075Y-46800D03*
X63500Y-44400D03*
X49600Y-46250D03*
X49100Y-45650D03*
X48600Y-46200D03*
X48100Y-45650D03*
X47600Y-46200D03*
X47100Y-45650D03*
X46600Y-46200D03*
X46100Y-45650D03*
X51900Y-44500D03*
X50550Y-44900D03*
X44300Y-45650D03*
X44050Y-44600D03*
X55450Y-51900D03*
X54950Y-50850D03*
X54600Y-49500D03*
X44300Y-51900D03*
X47100Y-49050D03*
X48350Y-50850D03*
X48400Y-51900D03*
X51950Y-51900D03*
X51200Y-50850D03*
X48300Y-49050D03*
X59050Y-51900D03*
X58050Y-49550D03*
X58550Y-50850D03*
X44150Y-35500D03*
G54D23*
X48200Y-34150D02*
X48200Y-30750D01*
X48200Y-30750D02*
X48250Y-30700D01*
G54D24*
X57300Y-42000D02*
X57500Y-42000D01*
X57150Y-41850D02*
X57300Y-42000D01*
X57150Y-40100D02*
X57150Y-41850D01*
X57150Y-39150D02*
X57150Y-40100D01*
X59804Y-42848D02*
X59202Y-42848D01*
X59202Y-42848D02*
X59200Y-42850D01*
X59808Y-45050D02*
X60060Y-45050D01*
X59804Y-42848D02*
X59804Y-43800D01*
X59804Y-43800D02*
X59804Y-45046D01*
X59804Y-45046D02*
X59808Y-45050D01*
X46400Y-38035D02*
X46400Y-37450D01*
G54D23*
X53450Y-44925D02*
X53075Y-44925D01*
X53075Y-44925D02*
X52750Y-44600D01*
G54D24*
X50125Y-43250D02*
X50125Y-43975D01*
X50125Y-43975D02*
X50100Y-44000D01*
X49475Y-41750D02*
X48750Y-41750D01*
X48000Y-40550D02*
X47500Y-40050D01*
X48000Y-41000D02*
X48000Y-40550D01*
X48750Y-41750D02*
X48000Y-41000D01*
G54D23*
X52750Y-44600D02*
X52675Y-44525D01*
X50100Y-44000D02*
X52150Y-44000D01*
X52150Y-44000D02*
X52675Y-44525D01*
X49200Y-29750D02*
X49200Y-29350D01*
X48250Y-30700D02*
X49200Y-29750D01*
X60100Y-35800D02*
X60100Y-34600D01*
X60100Y-31950D02*
X60600Y-31450D01*
X60850Y-31450D02*
X60600Y-31450D01*
X60100Y-34600D02*
X60100Y-31950D01*
X48200Y-34150D02*
X48450Y-34150D01*
G54D24*
X49150Y-34150D02*
X48450Y-34150D01*
X53800Y-38900D02*
X53800Y-39100D01*
X52800Y-40100D02*
X52400Y-40100D01*
X53800Y-39100D02*
X52800Y-40100D01*
X54650Y-33850D02*
X54650Y-34100D01*
X55950Y-32550D02*
X54650Y-33850D01*
X57500Y-42600D02*
X57500Y-42000D01*
X57450Y-37568D02*
X57768Y-37568D01*
X57768Y-37568D02*
X58350Y-38150D01*
X58950Y-38150D02*
X58350Y-38150D01*
X60850Y-38150D02*
X58950Y-38150D01*
X56668Y-37568D02*
X56200Y-37100D01*
X57450Y-37568D02*
X56668Y-37568D01*
X60850Y-37150D02*
X60150Y-37150D01*
X55700Y-36600D02*
X55200Y-36100D01*
X59600Y-36600D02*
X55700Y-36600D01*
X60150Y-37150D02*
X59600Y-36600D01*
G54D23*
X43025Y-45700D02*
X43025Y-46725D01*
X43025Y-46725D02*
X43300Y-47000D01*
X43025Y-46725D02*
X43300Y-47000D01*
G54D24*
X43075Y-46200D02*
X43075Y-46400D01*
X43075Y-46400D02*
X43075Y-46500D01*
X43075Y-46500D02*
X43075Y-46775D01*
X43075Y-46775D02*
X43050Y-46750D01*
G54D23*
X45600Y-43050D02*
X43650Y-43050D01*
X43300Y-47000D02*
X44550Y-47000D01*
X43050Y-46750D02*
X43300Y-47000D01*
X43050Y-43650D02*
X43050Y-46750D01*
X43650Y-43050D02*
X43050Y-43650D01*
G54D24*
X61596Y-42848D02*
X61698Y-42848D01*
X61698Y-42848D02*
X61900Y-43050D01*
X52650Y-31650D02*
X52650Y-31750D01*
X49750Y-32350D02*
X49650Y-32250D01*
X52050Y-32350D02*
X49750Y-32350D01*
X52650Y-31750D02*
X52050Y-32350D01*
G54D23*
X52950Y-44150D02*
X53425Y-44150D01*
X53425Y-44150D02*
X53450Y-44175D01*
X51500Y-42700D02*
X52950Y-44150D01*
X52950Y-44150D02*
X54200Y-44150D01*
X54200Y-44150D02*
X54450Y-44400D01*
X51500Y-42700D02*
X50900Y-42700D01*
G54D24*
X54500Y-44450D02*
X54450Y-44400D01*
X54500Y-45100D02*
X54500Y-44450D01*
X50875Y-43250D02*
X50875Y-42700D01*
X50900Y-42650D02*
X50900Y-42700D01*
X50900Y-42675D02*
X50900Y-42650D01*
X50875Y-42700D02*
X50900Y-42675D01*
X50225Y-41750D02*
X50800Y-41750D01*
X50800Y-41750D02*
X50750Y-41750D01*
X50750Y-41750D02*
X50800Y-41750D01*
G54D23*
X44550Y-48050D02*
X44550Y-47000D01*
X45600Y-44000D02*
X45600Y-43050D01*
X45600Y-43050D02*
X45600Y-42250D01*
X45600Y-42250D02*
X46100Y-41750D01*
G54D24*
X58150Y-31150D02*
X59000Y-31150D01*
X58850Y-31150D02*
X58850Y-31300D01*
X59000Y-31150D02*
X58850Y-31150D01*
X58150Y-31600D02*
X58150Y-31150D01*
X58150Y-31150D02*
X58150Y-31200D01*
X58150Y-31200D02*
X58150Y-31150D01*
X58000Y-31150D02*
X58150Y-31150D01*
X47700Y-39150D02*
X47700Y-39570D01*
X47700Y-39570D02*
X47700Y-39550D01*
X47700Y-39550D02*
X47700Y-39570D01*
X48600Y-39570D02*
X47700Y-39570D01*
X47700Y-39570D02*
X47280Y-39570D01*
X46100Y-41750D02*
X46100Y-40750D01*
X47280Y-39570D02*
X46900Y-39950D01*
X46100Y-40750D02*
X46900Y-39950D01*
G54D23*
X60850Y-28450D02*
X61150Y-28450D01*
X61150Y-28450D02*
X61900Y-27700D01*
G54D24*
X57150Y-34100D02*
X57150Y-33600D01*
X56150Y-34100D02*
X56150Y-33600D01*
X55650Y-34100D02*
X55650Y-33600D01*
X57650Y-33600D02*
X57150Y-33600D01*
X57150Y-33600D02*
X56150Y-33600D01*
X56150Y-33600D02*
X55650Y-33600D01*
X55650Y-33600D02*
X55400Y-33600D01*
X55150Y-33850D02*
X55150Y-34100D01*
X55400Y-33600D02*
X55150Y-33850D01*
X57150Y-31150D02*
X57150Y-31600D01*
X56650Y-31600D02*
X56650Y-31250D01*
X56750Y-31150D02*
X57150Y-31150D01*
X57150Y-31150D02*
X57300Y-31150D01*
X56650Y-31250D02*
X56750Y-31150D01*
X57300Y-31150D02*
X58000Y-31150D01*
G54D23*
X60850Y-28450D02*
X60750Y-28450D01*
X60050Y-30100D02*
X58850Y-31300D01*
X58850Y-31300D02*
X58850Y-31300D01*
X60050Y-29150D02*
X60050Y-30100D01*
X60750Y-28450D02*
X60050Y-29150D01*
X58850Y-31300D02*
X58850Y-31550D01*
X58850Y-31550D02*
X58850Y-33650D01*
X50900Y-42700D02*
X50700Y-42700D01*
G54D24*
X50800Y-41400D02*
X50800Y-41750D01*
X50800Y-41750D02*
X50800Y-42600D01*
G54D23*
X48100Y-41750D02*
X49050Y-42700D01*
X46350Y-41750D02*
X46100Y-41750D01*
X48100Y-41750D02*
X46350Y-41750D01*
X49050Y-42700D02*
X50700Y-42700D01*
G54D24*
X50800Y-42600D02*
X50700Y-42700D01*
X58800Y-33600D02*
X57650Y-33600D01*
X58850Y-33650D02*
X58800Y-33600D01*
X57650Y-33600D02*
X57650Y-34100D01*
G54D23*
X61900Y-26600D02*
X61900Y-27700D01*
G54D24*
X56150Y-34100D02*
X56150Y-35075D01*
X56150Y-35075D02*
X56175Y-35100D01*
X49650Y-34150D02*
X49650Y-35050D01*
X49650Y-35050D02*
X49700Y-35100D01*
X49700Y-37600D02*
X50200Y-37100D01*
X48100Y-37600D02*
X49700Y-37600D01*
X47700Y-38000D02*
X48100Y-37600D01*
X47700Y-39150D02*
X47700Y-38000D01*
X58600Y-35150D02*
X57150Y-35150D01*
X57150Y-35150D02*
X56950Y-35350D01*
X57050Y-35250D02*
X57150Y-35150D01*
X56200Y-36100D02*
X56950Y-35350D01*
X56950Y-35350D02*
X57050Y-35250D01*
X49150Y-31650D02*
X49150Y-32650D01*
X49150Y-32650D02*
X49150Y-32600D01*
X49150Y-32600D02*
X49150Y-32650D01*
X54000Y-34450D02*
X54000Y-34700D01*
X54250Y-31800D02*
X54250Y-33250D01*
X54250Y-33250D02*
X54200Y-33300D01*
X54000Y-34500D02*
X54000Y-34450D01*
X54000Y-34450D02*
X54000Y-33500D01*
X54000Y-33500D02*
X54200Y-33300D01*
X49150Y-32650D02*
X49150Y-32650D01*
X49150Y-32650D02*
X52200Y-32650D01*
X52968Y-31882D02*
X52968Y-31100D01*
X52350Y-32500D02*
X52425Y-32425D01*
X52425Y-32425D02*
X52968Y-31882D01*
X52350Y-32500D02*
X52300Y-32550D01*
X52200Y-32650D02*
X52300Y-32550D01*
X52850Y-30950D02*
X52850Y-30955D01*
X52968Y-31073D02*
X52968Y-31100D01*
X52850Y-30955D02*
X52968Y-31073D01*
X52968Y-31100D02*
X52968Y-31100D01*
X52050Y-30150D02*
X52850Y-30950D01*
X54650Y-30200D02*
X54650Y-31600D01*
X54600Y-30150D02*
X54650Y-30200D01*
X54650Y-31600D02*
X54450Y-31600D01*
X54450Y-31600D02*
X54250Y-31800D01*
X53400Y-42650D02*
X54450Y-42650D01*
X54450Y-42650D02*
X54500Y-42600D01*
X53800Y-41400D02*
X53800Y-41550D01*
X53400Y-41950D02*
X53400Y-42650D01*
X53800Y-41550D02*
X53400Y-41950D01*
X54000Y-35300D02*
X54500Y-35300D01*
X54500Y-35300D02*
X54700Y-35100D01*
X54700Y-35100D02*
X54700Y-35100D01*
X54700Y-35100D02*
X54700Y-35100D01*
X54700Y-35100D02*
X54700Y-35100D01*
X54700Y-35100D02*
X55425Y-35100D01*
X54400Y-38625D02*
X54500Y-38725D01*
X54500Y-40300D02*
X54400Y-40400D01*
X54500Y-38725D02*
X54500Y-40300D01*
X54400Y-38625D02*
X54075Y-38300D01*
X49860Y-38040D02*
X48600Y-38040D01*
X49860Y-38040D02*
X50000Y-37900D01*
X54400Y-40400D02*
X54100Y-40700D01*
X54100Y-40700D02*
X53600Y-40700D01*
X53600Y-40700D02*
X53300Y-41000D01*
X53300Y-41400D02*
X53300Y-41000D01*
X53900Y-39550D02*
X54000Y-39550D01*
X52800Y-41400D02*
X52800Y-40650D01*
X52800Y-40650D02*
X53900Y-39550D01*
X52300Y-41400D02*
X52300Y-42300D01*
X56500Y-43800D02*
X56500Y-45100D01*
X56000Y-43300D02*
X56500Y-43800D01*
X53300Y-43300D02*
X56000Y-43300D01*
X52300Y-42300D02*
X53300Y-43300D01*
X54900Y-38350D02*
X54900Y-41550D01*
X54900Y-41550D02*
X54650Y-41800D01*
X51800Y-41400D02*
X51800Y-41700D01*
X51800Y-41700D02*
X51900Y-41800D01*
X56000Y-45100D02*
X56000Y-44700D01*
X51300Y-41900D02*
X51300Y-41400D01*
X53100Y-43700D02*
X51300Y-41900D01*
X55900Y-43700D02*
X53100Y-43700D01*
X56200Y-44000D02*
X55900Y-43700D01*
X56200Y-44500D02*
X56200Y-44000D01*
X56000Y-44700D02*
X56200Y-44500D01*
X48500Y-40500D02*
X48500Y-40950D01*
X56000Y-42300D02*
X56000Y-42600D01*
X55900Y-42200D02*
X56000Y-42300D01*
X53800Y-42200D02*
X55900Y-42200D01*
X50100Y-38900D02*
X48500Y-40500D01*
X50800Y-38900D02*
X50100Y-38900D01*
X51300Y-38900D02*
X51300Y-39400D01*
X50100Y-40600D02*
X49600Y-40600D01*
X51300Y-39400D02*
X50100Y-40600D01*
X47725Y-33575D02*
X47725Y-30625D01*
X47700Y-33600D02*
X47725Y-33575D01*
X48700Y-28950D02*
X48700Y-29650D01*
X49200Y-28450D02*
X48700Y-28950D01*
X49200Y-28450D02*
X49200Y-28350D01*
X48700Y-29650D02*
X47725Y-30625D01*
X52000Y-39400D02*
X50400Y-41000D01*
X49400Y-41000D02*
X50400Y-41000D01*
X49000Y-40600D02*
X49400Y-41000D01*
X52800Y-39200D02*
X52800Y-38900D01*
X52600Y-39400D02*
X52800Y-39200D01*
X52000Y-39400D02*
X52600Y-39400D01*
X53300Y-38900D02*
X53300Y-38600D01*
X50500Y-38550D02*
X48600Y-38550D01*
X50650Y-38400D02*
X50500Y-38550D01*
X53100Y-38400D02*
X50650Y-38400D01*
X53300Y-38600D02*
X53100Y-38400D01*
X57275Y-38675D02*
X56112Y-38675D01*
X56112Y-38675D02*
X55800Y-38400D01*
X57900Y-41450D02*
X57900Y-41150D01*
X57900Y-41450D02*
X57900Y-44000D01*
X57900Y-44000D02*
X57500Y-44400D01*
X57500Y-44400D02*
X57500Y-45100D01*
X57900Y-41150D02*
X57600Y-40850D01*
X57600Y-40850D02*
X57600Y-39000D01*
X57600Y-39000D02*
X57275Y-38675D01*
X58100Y-40100D02*
X58100Y-40950D01*
X58300Y-41150D02*
X58300Y-41950D01*
X58100Y-40950D02*
X58300Y-41150D01*
X57200Y-45700D02*
X58000Y-45700D01*
X58000Y-45700D02*
X58300Y-45400D01*
X58300Y-45400D02*
X58300Y-41950D01*
X57000Y-45100D02*
X57000Y-45500D01*
X57000Y-45500D02*
X57200Y-45700D01*
X55500Y-45100D02*
X55500Y-44600D01*
X55500Y-44600D02*
X55800Y-44300D01*
X55000Y-45100D02*
X55000Y-44500D01*
X56500Y-42600D02*
X56500Y-42100D01*
X56500Y-42100D02*
X56200Y-41800D01*
X56200Y-41800D02*
X55400Y-41800D01*
X51300Y-33550D02*
X51875Y-33550D01*
X51875Y-33550D02*
X52150Y-33275D01*
X52800Y-33275D02*
X52150Y-33275D01*
X56150Y-30900D02*
X56150Y-31600D01*
X62400Y-42700D02*
X64500Y-42700D01*
X57650Y-37950D02*
X62400Y-42700D01*
X56550Y-37950D02*
X57650Y-37950D01*
X56200Y-37600D02*
X56550Y-37950D01*
X55550Y-37600D02*
X56200Y-37600D01*
X55450Y-37700D02*
X55550Y-37600D01*
X55650Y-31600D02*
X55650Y-30500D01*
X55650Y-30500D02*
X55800Y-30350D01*
X52150Y-31650D02*
X52150Y-31050D01*
X52150Y-31050D02*
X52150Y-30800D01*
X59900Y-31300D02*
X59900Y-31275D01*
X59900Y-31275D02*
X60225Y-30950D01*
X62600Y-31100D02*
X62600Y-40500D01*
X62600Y-40500D02*
X62600Y-40750D01*
X62600Y-31100D02*
X62450Y-30950D01*
X62450Y-30950D02*
X60225Y-30950D01*
X55150Y-30200D02*
X55150Y-31600D01*
X52200Y-36100D02*
X52200Y-35950D01*
X50800Y-34550D02*
X50150Y-34550D01*
X52200Y-35950D02*
X50800Y-34550D01*
X50150Y-34550D02*
X50150Y-34150D01*
X52700Y-30300D02*
X52700Y-28850D01*
X53350Y-31900D02*
X53350Y-32125D01*
X53350Y-32125D02*
X53200Y-32275D01*
X52238Y-32962D02*
X52513Y-32962D01*
X52513Y-32962D02*
X53200Y-32275D01*
X51450Y-32962D02*
X50338Y-32962D01*
X50338Y-32962D02*
X50263Y-33037D01*
X50250Y-33500D02*
X50650Y-33900D01*
X50250Y-33050D02*
X50250Y-33500D01*
X50263Y-33037D02*
X50250Y-33050D01*
X50650Y-34150D02*
X50650Y-33900D01*
X51450Y-32962D02*
X52238Y-32962D01*
X53200Y-30800D02*
X53350Y-30950D01*
X53350Y-30950D02*
X53350Y-31900D01*
X52700Y-30300D02*
X53200Y-30800D01*
X52200Y-28350D02*
X52600Y-28750D01*
X52600Y-28750D02*
X52700Y-28850D01*
X57275Y-38325D02*
X57450Y-38325D01*
X57950Y-38825D02*
X57950Y-39400D01*
X57450Y-38325D02*
X57950Y-38825D01*
X56325Y-38325D02*
X57275Y-38325D01*
X55250Y-38100D02*
X55250Y-38119D01*
X55250Y-38120D02*
X55250Y-38100D01*
X55253Y-38123D02*
X55250Y-38120D01*
X55800Y-37950D02*
X55975Y-37972D01*
X55473Y-38123D02*
X55800Y-37950D01*
X54868Y-37708D02*
X55250Y-38119D01*
X53382Y-37568D02*
X53557Y-37568D01*
X53700Y-37425D02*
X53700Y-37250D01*
X53557Y-37568D02*
X53700Y-37425D01*
X53900Y-36600D02*
X53700Y-36800D01*
X53700Y-36800D02*
X53700Y-37250D01*
X50700Y-37350D02*
X50700Y-36050D01*
X50700Y-35200D02*
X50800Y-35100D01*
X50800Y-33350D02*
X50900Y-33450D01*
X50900Y-33450D02*
X50900Y-33900D01*
X50900Y-33900D02*
X51150Y-34150D01*
X50700Y-36050D02*
X50700Y-35200D01*
X53382Y-37568D02*
X50918Y-37568D01*
X50918Y-37568D02*
X50700Y-37350D01*
X54868Y-37708D02*
X54700Y-37540D01*
X54700Y-37540D02*
X54700Y-36780D01*
X54700Y-36780D02*
X54520Y-36600D01*
X54520Y-36600D02*
X53900Y-36600D01*
X55975Y-37972D02*
X56170Y-38170D01*
X56325Y-38325D02*
X56170Y-38170D01*
X60060Y-42848D02*
X60060Y-41510D01*
X60060Y-41510D02*
X57950Y-39400D01*
X55473Y-38123D02*
X55253Y-38123D01*
X51650Y-34600D02*
X51650Y-34900D01*
X52000Y-35250D02*
X52300Y-35250D01*
X51650Y-34900D02*
X52000Y-35250D01*
X53200Y-37100D02*
X53200Y-36850D01*
X52700Y-35650D02*
X52300Y-35250D01*
X52700Y-36350D02*
X52700Y-35650D01*
X53200Y-36850D02*
X52700Y-36350D01*
X51650Y-34600D02*
X51650Y-34150D01*
X52150Y-34150D02*
X52150Y-33800D01*
X53200Y-30250D02*
X53200Y-29350D01*
X53707Y-30757D02*
X53200Y-30250D01*
X53707Y-32943D02*
X53707Y-30757D01*
X52925Y-33725D02*
X53388Y-33262D01*
X53388Y-33262D02*
X53707Y-32943D01*
X52225Y-33725D02*
X52925Y-33725D01*
X52150Y-33800D02*
X52225Y-33725D01*
X53200Y-34150D02*
X52650Y-34150D01*
X60316Y-42848D02*
X60316Y-41216D01*
X60316Y-41216D02*
X58450Y-39350D01*
X52200Y-29350D02*
X51650Y-29900D01*
X51650Y-31650D02*
X51650Y-29900D01*
X51150Y-30800D02*
X51150Y-31650D01*
X50650Y-31650D02*
X50650Y-30850D01*
X50650Y-30850D02*
X50600Y-30800D01*
X51200Y-29350D02*
X51200Y-29600D01*
X51200Y-29600D02*
X50150Y-30650D01*
X50150Y-30650D02*
X50150Y-31250D01*
X50150Y-31250D02*
X50150Y-31650D01*
X49650Y-31650D02*
X49650Y-31150D01*
X49650Y-31150D02*
X49600Y-31100D01*
X53350Y-37950D02*
X53725Y-37950D01*
X54200Y-37475D02*
X54200Y-37100D01*
X53725Y-37950D02*
X54200Y-37475D01*
X50975Y-37950D02*
X50675Y-37950D01*
X50675Y-37950D02*
X50335Y-38290D01*
X50125Y-38290D02*
X50335Y-38290D01*
X48600Y-38290D02*
X50125Y-38290D01*
X53350Y-37950D02*
X50975Y-37950D01*
X65000Y-45600D02*
X65000Y-44500D01*
X63800Y-46800D02*
X65000Y-45600D01*
X58000Y-53700D02*
X57450Y-53150D01*
X61600Y-53700D02*
X58000Y-53700D01*
X62000Y-53300D02*
X61600Y-53700D01*
X62000Y-49200D02*
X62000Y-53300D01*
X54750Y-53350D02*
X54750Y-53450D01*
X55300Y-54000D02*
X55450Y-54000D01*
X54750Y-53450D02*
X55300Y-54000D01*
X56850Y-54000D02*
X55450Y-54000D01*
X56850Y-54000D02*
X61750Y-54000D01*
X61750Y-54000D02*
X62250Y-53500D01*
X62250Y-53500D02*
X62250Y-49650D01*
X62250Y-49650D02*
X62450Y-49450D01*
X62450Y-49450D02*
X62450Y-48850D01*
X54750Y-51900D02*
X54750Y-51350D01*
X54750Y-51350D02*
X54250Y-50850D01*
X54750Y-53350D02*
X54750Y-53100D01*
X55250Y-54300D02*
X55100Y-54300D01*
X55100Y-54300D02*
X53950Y-53150D01*
X63250Y-48700D02*
X65800Y-48700D01*
X62900Y-49050D02*
X63250Y-48700D01*
X62900Y-49450D02*
X62900Y-49050D01*
X62550Y-49800D02*
X62900Y-49450D01*
X62550Y-53600D02*
X62550Y-49800D01*
X61850Y-54300D02*
X62550Y-53600D01*
X55250Y-54300D02*
X61850Y-54300D01*
X54550Y-54600D02*
X52250Y-54600D01*
X52250Y-54600D02*
X51800Y-54150D01*
X51250Y-51900D02*
X51250Y-51700D01*
X51250Y-51700D02*
X51100Y-51550D01*
X51250Y-53600D02*
X51800Y-54150D01*
X51250Y-53100D02*
X51250Y-53600D01*
X54850Y-54600D02*
X54550Y-54600D01*
X63350Y-49400D02*
X63350Y-49150D01*
X62850Y-49900D02*
X63350Y-49400D01*
X62850Y-53700D02*
X62850Y-49900D01*
X61950Y-54600D02*
X62850Y-53700D01*
X54850Y-54600D02*
X61950Y-54600D01*
X50400Y-50850D02*
X51100Y-51550D01*
X50400Y-53150D02*
X50400Y-53300D01*
X63450Y-49800D02*
X65800Y-49800D01*
X63150Y-50100D02*
X63450Y-49800D01*
X63150Y-53800D02*
X63150Y-50100D01*
X62100Y-54850D02*
X63150Y-53800D01*
X51950Y-54850D02*
X62100Y-54850D01*
X50400Y-53300D02*
X51950Y-54850D01*
X46850Y-49850D02*
X46850Y-50200D01*
X47100Y-50450D02*
X60550Y-50450D01*
X46850Y-50200D02*
X47100Y-50450D01*
X46850Y-53150D02*
X46850Y-53050D01*
X47300Y-52600D02*
X60600Y-52600D01*
X46850Y-53050D02*
X47300Y-52600D01*
X45600Y-47000D02*
X45600Y-46200D01*
X66600Y-51200D02*
X66750Y-51050D01*
X66750Y-49950D02*
X66750Y-51050D01*
X60572Y-42848D02*
X60572Y-44122D01*
X66750Y-47400D02*
X66750Y-49850D01*
X66750Y-49850D02*
X66750Y-49950D01*
X66050Y-46700D02*
X66750Y-47400D01*
X65200Y-46700D02*
X66050Y-46700D01*
X64150Y-47750D02*
X65200Y-46700D01*
X62450Y-47750D02*
X64150Y-47750D01*
X62000Y-47300D02*
X62450Y-47750D01*
X62000Y-45450D02*
X62000Y-45900D01*
X62000Y-45900D02*
X62000Y-47300D01*
X62000Y-44750D02*
X62000Y-45450D01*
X61700Y-44450D02*
X62000Y-44750D01*
X60900Y-44450D02*
X61700Y-44450D01*
X60572Y-44122D02*
X60900Y-44450D01*
X45100Y-47000D02*
X45100Y-46050D01*
X67100Y-50850D02*
X67100Y-51350D01*
X63900Y-47400D02*
X65000Y-46300D01*
X65000Y-46300D02*
X66250Y-46300D01*
X66250Y-46300D02*
X67100Y-47150D01*
X67100Y-47150D02*
X67100Y-50850D01*
X62600Y-47400D02*
X63050Y-47400D01*
X62475Y-47275D02*
X62600Y-47400D01*
X62475Y-46400D02*
X62475Y-47275D01*
X63050Y-47400D02*
X63900Y-47400D01*
X66650Y-51800D02*
X66500Y-51800D01*
X67100Y-51350D02*
X66650Y-51800D01*
X62475Y-46300D02*
X62475Y-46400D01*
X62475Y-44625D02*
X62475Y-46050D01*
X62475Y-46050D02*
X62475Y-46300D01*
X61975Y-44125D02*
X62475Y-44625D01*
X61125Y-44125D02*
X61975Y-44125D01*
X60828Y-43828D02*
X61125Y-44125D01*
X60828Y-42848D02*
X60828Y-43828D01*
X64300Y-48050D02*
X62000Y-48050D01*
X61050Y-49000D02*
X61050Y-49850D01*
X62000Y-48050D02*
X61050Y-49000D01*
X65050Y-47300D02*
X64300Y-48050D01*
X65750Y-47300D02*
X65050Y-47300D01*
X62650Y-48400D02*
X62250Y-48400D01*
X61600Y-49050D02*
X61600Y-49450D01*
X62250Y-48400D02*
X61600Y-49050D01*
X64450Y-48400D02*
X62650Y-48400D01*
X61600Y-52600D02*
X61050Y-53150D01*
X61600Y-49450D02*
X61600Y-52600D01*
X65050Y-47800D02*
X64450Y-48400D01*
X66150Y-47800D02*
X65050Y-47800D01*
X66250Y-48700D02*
X66250Y-48400D01*
X66250Y-48400D02*
X66300Y-48350D01*
X66250Y-50250D02*
X66250Y-48700D01*
X43400Y-52350D02*
X60050Y-52350D01*
X60050Y-52350D02*
X60500Y-51900D01*
X60500Y-51900D02*
X60600Y-51900D01*
X63650Y-50800D02*
X64000Y-50450D01*
X64000Y-50450D02*
X66050Y-50450D01*
X66050Y-50450D02*
X66250Y-50250D01*
X43100Y-52050D02*
X43400Y-52350D01*
X43100Y-49960D02*
X43100Y-52050D01*
X66000Y-53900D02*
X66000Y-51950D01*
X66000Y-51950D02*
X66000Y-50950D01*
X66100Y-50850D02*
X66000Y-50950D01*
X45100Y-43600D02*
X45100Y-44000D01*
X44950Y-43450D02*
X45100Y-43600D01*
X44300Y-43450D02*
X44950Y-43450D01*
X43750Y-44000D02*
X44300Y-43450D01*
X67050Y-52150D02*
X67050Y-54300D01*
X67500Y-51650D02*
X67500Y-51700D01*
X61084Y-43634D02*
X61250Y-43800D01*
X61250Y-43800D02*
X62500Y-43800D01*
X62500Y-43800D02*
X65850Y-43800D01*
X65850Y-43800D02*
X67500Y-45450D01*
X67500Y-45450D02*
X67500Y-51650D01*
X61084Y-42848D02*
X61084Y-43634D01*
X67500Y-51700D02*
X67050Y-52150D01*
X67850Y-53350D02*
X67850Y-53900D01*
X67850Y-52900D02*
X67850Y-53350D01*
X44600Y-44800D02*
X44600Y-44000D01*
X44600Y-44800D02*
X44650Y-44850D01*
X61340Y-42848D02*
X61340Y-43390D01*
X67850Y-45400D02*
X67850Y-48300D01*
X67850Y-48300D02*
X67850Y-48750D01*
X67850Y-48750D02*
X67850Y-52900D01*
X65950Y-43500D02*
X67850Y-45400D01*
X61450Y-43500D02*
X65950Y-43500D01*
X61340Y-43390D02*
X61450Y-43500D01*
X50100Y-47000D02*
X50100Y-47350D01*
X50100Y-47350D02*
X50850Y-48100D01*
X63500Y-46000D02*
X63500Y-46375D01*
X63500Y-46375D02*
X63075Y-46800D01*
X63500Y-44400D02*
X63500Y-46000D01*
X49600Y-47000D02*
X49600Y-47350D01*
X50000Y-47750D02*
X50000Y-47950D01*
X49600Y-47350D02*
X50000Y-47750D01*
X49600Y-46250D02*
X49600Y-47000D01*
X49100Y-47000D02*
X49100Y-47350D01*
X49400Y-47650D02*
X49400Y-47950D01*
X49100Y-47350D02*
X49400Y-47650D01*
X49100Y-47000D02*
X49100Y-45650D01*
X48800Y-47950D02*
X48800Y-47550D01*
X48600Y-47350D02*
X48600Y-47000D01*
X48800Y-47550D02*
X48600Y-47350D01*
X48600Y-46200D02*
X48600Y-47000D01*
X48100Y-47000D02*
X48100Y-47550D01*
X48200Y-47650D02*
X48200Y-47950D01*
X48100Y-47550D02*
X48200Y-47650D01*
X48100Y-45650D02*
X48100Y-47000D01*
X47600Y-47950D02*
X47600Y-47000D01*
X47600Y-46200D02*
X47600Y-47000D01*
X47100Y-47000D02*
X47100Y-47600D01*
X47000Y-47700D02*
X47000Y-47950D01*
X47100Y-47600D02*
X47000Y-47700D01*
X47100Y-47000D02*
X47100Y-45650D01*
X46600Y-47000D02*
X46600Y-47500D01*
X46400Y-47700D02*
X46400Y-47950D01*
X46600Y-47500D02*
X46400Y-47700D01*
X46600Y-47000D02*
X46600Y-46200D01*
X46100Y-47000D02*
X46100Y-47450D01*
X45800Y-47750D02*
X45800Y-47950D01*
X46100Y-47450D02*
X45800Y-47750D01*
X46100Y-47000D02*
X46100Y-45650D01*
X51900Y-44900D02*
X51900Y-44500D01*
X51900Y-44900D02*
X51900Y-44800D01*
X49600Y-44400D02*
X49600Y-44000D01*
X49700Y-44500D02*
X49600Y-44400D01*
X51600Y-44500D02*
X49700Y-44500D01*
X51900Y-44800D02*
X51600Y-44500D01*
X51150Y-44900D02*
X50550Y-44900D01*
X50550Y-44900D02*
X49450Y-44900D01*
X49100Y-44550D02*
X49100Y-44000D01*
X49450Y-44900D02*
X49100Y-44550D01*
X44300Y-45650D02*
X44800Y-45650D01*
X44800Y-45650D02*
X45100Y-45650D01*
X45800Y-44950D02*
X48200Y-44950D01*
X48200Y-44950D02*
X48600Y-44550D01*
X48600Y-44550D02*
X48600Y-44000D01*
X45800Y-44950D02*
X45200Y-45550D01*
X45100Y-45650D02*
X45200Y-45550D01*
X44050Y-44600D02*
X44050Y-44850D01*
X44050Y-44850D02*
X44250Y-45050D01*
X45700Y-44650D02*
X45450Y-44650D01*
X45450Y-44650D02*
X44825Y-45275D01*
X44825Y-45275D02*
X44800Y-45300D01*
X48100Y-44400D02*
X47850Y-44650D01*
X48100Y-44000D02*
X48100Y-44400D01*
X45850Y-44650D02*
X45700Y-44650D01*
X47850Y-44650D02*
X45850Y-44650D01*
X43775Y-45700D02*
X43775Y-45575D01*
X44250Y-45100D02*
X44250Y-45050D01*
X44200Y-45150D02*
X44250Y-45100D01*
X43775Y-45575D02*
X44200Y-45150D01*
X44250Y-45050D02*
X44500Y-45300D01*
X44500Y-45300D02*
X44800Y-45300D01*
X49400Y-48550D02*
X49400Y-48650D01*
X49400Y-48650D02*
X49600Y-48850D01*
X54600Y-49250D02*
X54600Y-49500D01*
X55450Y-51350D02*
X55450Y-51900D01*
X54950Y-50850D02*
X55450Y-51350D01*
X49600Y-48850D02*
X54200Y-48850D01*
X54200Y-48850D02*
X54300Y-48950D01*
X54300Y-48950D02*
X54600Y-49250D01*
X48800Y-48550D02*
X48800Y-48850D01*
X51200Y-49100D02*
X51950Y-49850D01*
X49050Y-49100D02*
X51200Y-49100D01*
X48800Y-48850D02*
X49050Y-49100D01*
X45800Y-48550D02*
X45200Y-48550D01*
X45200Y-48550D02*
X44300Y-49450D01*
X44300Y-49450D02*
X44300Y-50850D01*
X44300Y-50850D02*
X44300Y-51900D01*
X46400Y-48550D02*
X46400Y-48700D01*
X44850Y-49500D02*
X44850Y-49850D01*
X45300Y-49050D02*
X44850Y-49500D01*
X46050Y-49050D02*
X45300Y-49050D01*
X46400Y-48700D02*
X46050Y-49050D01*
X47000Y-48550D02*
X47000Y-48950D01*
X47000Y-48950D02*
X47100Y-49050D01*
X48350Y-50850D02*
X48400Y-50900D01*
X48400Y-50900D02*
X48400Y-51900D01*
X48400Y-49850D02*
X48400Y-49800D01*
X47600Y-49000D02*
X47600Y-48550D01*
X48400Y-49800D02*
X47600Y-49000D01*
X50000Y-48550D02*
X54300Y-48550D01*
X55450Y-49700D02*
X55450Y-49850D01*
X54300Y-48550D02*
X55450Y-49700D01*
X48200Y-48550D02*
X48200Y-48950D01*
X48200Y-48950D02*
X48300Y-49050D01*
X51950Y-51600D02*
X51950Y-51900D01*
X51200Y-50850D02*
X51950Y-51600D01*
X55175Y-45925D02*
X55000Y-45750D01*
X52150Y-45750D02*
X51900Y-45500D01*
X55000Y-45750D02*
X52150Y-45750D01*
X55175Y-45925D02*
X59050Y-49800D01*
X59050Y-49800D02*
X59050Y-49850D01*
X59050Y-51350D02*
X59050Y-51900D01*
X59050Y-51350D02*
X58550Y-50850D01*
X54581Y-46081D02*
X51531Y-46081D01*
X58050Y-49550D02*
X57950Y-49450D01*
X57950Y-49450D02*
X54581Y-46081D01*
X51150Y-45700D02*
X51531Y-46081D01*
X51150Y-45700D02*
X51150Y-45500D01*
X50200Y-36100D02*
X50150Y-36100D01*
X45250Y-36600D02*
X44150Y-35500D01*
X49650Y-36600D02*
X45250Y-36600D01*
X50150Y-36100D02*
X49650Y-36600D01*
X53700Y-33475D02*
X53700Y-33375D01*
X53975Y-29975D02*
X53700Y-29700D01*
X53975Y-33100D02*
X53975Y-29975D01*
X53700Y-33375D02*
X53975Y-33100D01*
X53700Y-33950D02*
X53700Y-34300D01*
X53700Y-34300D02*
X53400Y-34600D01*
X53700Y-33650D02*
X53700Y-33950D01*
X53400Y-34600D02*
X53400Y-35900D01*
X53400Y-35900D02*
X53200Y-36100D01*
X53700Y-28850D02*
X53200Y-28350D01*
X53700Y-29700D02*
X53700Y-28850D01*
X53700Y-29750D02*
X53700Y-29700D01*
X53700Y-29750D02*
X53700Y-29750D01*
X53700Y-33650D02*
X53700Y-33475D01*
G54D25*
X54600Y-34086D02*
X54700Y-34086D01*
X54600Y-34006D02*
X54700Y-34006D01*
X54600Y-33926D02*
X54700Y-33926D01*
X54600Y-33846D02*
X54700Y-33846D01*
X54600Y-33766D02*
X54700Y-33766D01*
X54599Y-33686D02*
X54701Y-33686D01*
X54385Y-33686D02*
X54387Y-33686D01*
X54438Y-33606D02*
X54859Y-33606D01*
X54518Y-33526D02*
X54930Y-33526D01*
X54573Y-33446D02*
X55010Y-33446D01*
X54612Y-33366D02*
X55090Y-33366D01*
X54627Y-33286D02*
X55190Y-33286D01*
X54635Y-33206D02*
X58380Y-33206D01*
X54635Y-33126D02*
X58380Y-33126D01*
X54635Y-33046D02*
X58380Y-33046D01*
X54635Y-32966D02*
X58380Y-32966D01*
X54635Y-32886D02*
X58380Y-32886D01*
X54635Y-32806D02*
X58380Y-32806D01*
X54635Y-32726D02*
X58380Y-32726D01*
X54635Y-32646D02*
X58380Y-32646D01*
X54635Y-32566D02*
X58380Y-32566D01*
X54635Y-32486D02*
X58380Y-32486D01*
X54635Y-32406D02*
X58380Y-32406D01*
X54635Y-32326D02*
X58380Y-32326D01*
X54635Y-32246D02*
X58380Y-32246D01*
X54635Y-32166D02*
X58380Y-32166D01*
X57900Y-32086D02*
X57900Y-32086D01*
X57400Y-32086D02*
X57400Y-32086D01*
X56900Y-32086D02*
X56900Y-32086D01*
X56400Y-32086D02*
X56400Y-32086D01*
X55900Y-32086D02*
X55900Y-32086D01*
X55400Y-32086D02*
X55400Y-32086D01*
X54900Y-32086D02*
X54900Y-32086D01*
X53750Y-39010D02*
X53850Y-39010D01*
X53750Y-38930D02*
X54115Y-38930D01*
X53750Y-38850D02*
X54080Y-38850D01*
X51092Y-40851D02*
X52415Y-40851D01*
X51172Y-40771D02*
X52415Y-40771D01*
X51252Y-40691D02*
X52415Y-40691D01*
X51332Y-40611D02*
X52423Y-40611D01*
X51412Y-40531D02*
X52439Y-40531D01*
X51492Y-40451D02*
X52479Y-40451D01*
X51572Y-40371D02*
X52535Y-40371D01*
X51652Y-40291D02*
X52615Y-40291D01*
X51732Y-40211D02*
X52695Y-40211D01*
X51812Y-40131D02*
X52775Y-40131D01*
X51892Y-40051D02*
X52855Y-40051D01*
X51972Y-39971D02*
X52935Y-39971D01*
X52052Y-39891D02*
X53014Y-39891D01*
X52132Y-39811D02*
X53094Y-39811D01*
X52784Y-39731D02*
X53174Y-39731D01*
X52893Y-39651D02*
X53254Y-39651D01*
X52973Y-39571D02*
X53334Y-39571D01*
X53053Y-39491D02*
X53414Y-39491D01*
X53487Y-39411D02*
X53487Y-39411D01*
X46485Y-41235D02*
X48050Y-41235D01*
X46485Y-41155D02*
X48016Y-41155D01*
X46485Y-41075D02*
X47983Y-41075D01*
X46485Y-40995D02*
X47975Y-40995D01*
X46485Y-40915D02*
X47975Y-40915D01*
X46559Y-40835D02*
X47980Y-40835D01*
X46639Y-40755D02*
X48013Y-40755D01*
X46719Y-40675D02*
X48046Y-40675D01*
X46799Y-40595D02*
X48112Y-40595D01*
X46879Y-40515D02*
X48115Y-40515D01*
X46959Y-40435D02*
X48128Y-40435D01*
X47039Y-40355D02*
X48144Y-40355D01*
X47119Y-40275D02*
X48197Y-40275D01*
X47199Y-40195D02*
X48261Y-40195D01*
X47279Y-40115D02*
X48341Y-40115D01*
X47359Y-40035D02*
X48421Y-40035D01*
X47439Y-39955D02*
X48500Y-39955D01*
X49425Y-42176D02*
X49525Y-42176D01*
X49425Y-42096D02*
X49525Y-42096D01*
X49425Y-42016D02*
X49525Y-42016D01*
X49030Y-42016D02*
X49050Y-42016D01*
X49425Y-41936D02*
X49525Y-41936D01*
X48950Y-41936D02*
X49050Y-41936D01*
X49425Y-41856D02*
X49525Y-41856D01*
X48870Y-41856D02*
X49056Y-41856D01*
X48790Y-41776D02*
X49751Y-41776D01*
X49425Y-41696D02*
X49525Y-41696D01*
X48710Y-41696D02*
X49108Y-41696D01*
X49425Y-41616D02*
X49525Y-41616D01*
X48630Y-41616D02*
X49051Y-41616D01*
X49425Y-41536D02*
X49525Y-41536D01*
X48550Y-41536D02*
X49051Y-41536D01*
X49425Y-41456D02*
X49525Y-41456D01*
X48649Y-41456D02*
X49051Y-41456D01*
X48816Y-41376D02*
X49072Y-41376D01*
X48896Y-41296D02*
X49127Y-41296D01*
X48958Y-41216D02*
X49071Y-41216D01*
X48991Y-41136D02*
X48991Y-41136D01*
X50448Y-44060D02*
X51598Y-44060D01*
X52018Y-43980D02*
X52115Y-43980D01*
X50050Y-43980D02*
X51784Y-43980D01*
X50488Y-43900D02*
X52035Y-43900D01*
X50050Y-43900D02*
X50150Y-43900D01*
X51118Y-43820D02*
X51955Y-43820D01*
X50500Y-43820D02*
X50630Y-43820D01*
X50050Y-43820D02*
X50150Y-43820D01*
X51258Y-43740D02*
X51875Y-43740D01*
X50050Y-43740D02*
X50150Y-43740D01*
X51317Y-43660D02*
X51795Y-43660D01*
X50075Y-43660D02*
X50150Y-43660D01*
X51349Y-43580D02*
X51715Y-43580D01*
X50075Y-43580D02*
X50150Y-43580D01*
X51349Y-43500D02*
X51635Y-43500D01*
X50075Y-43500D02*
X50162Y-43500D01*
X51349Y-43420D02*
X51555Y-43420D01*
X50075Y-43420D02*
X50175Y-43420D01*
X51349Y-43340D02*
X51475Y-43340D01*
X50075Y-43340D02*
X50175Y-43340D01*
X46070Y-43340D02*
X49722Y-43340D01*
X51349Y-43260D02*
X51395Y-43260D01*
X46070Y-43260D02*
X50401Y-43260D01*
X50075Y-43180D02*
X50175Y-43180D01*
X46070Y-43180D02*
X49742Y-43180D01*
X46070Y-43100D02*
X48819Y-43100D01*
X46070Y-43020D02*
X48705Y-43020D01*
X46070Y-42940D02*
X48625Y-42940D01*
X46070Y-42860D02*
X48545Y-42860D01*
X46070Y-42780D02*
X48465Y-42780D01*
X46070Y-42700D02*
X48385Y-42700D01*
X46070Y-42620D02*
X48305Y-42620D01*
X46070Y-42540D02*
X48225Y-42540D01*
X46070Y-42460D02*
X48145Y-42460D01*
X46133Y-42380D02*
X48065Y-42380D01*
X46213Y-42300D02*
X47985Y-42300D01*
X46336Y-42220D02*
X47905Y-42220D01*
X56885Y-44575D02*
X57115Y-44575D01*
X56885Y-44495D02*
X57115Y-44495D01*
X56885Y-44415D02*
X57115Y-44415D01*
X56885Y-44335D02*
X57128Y-44335D01*
X56885Y-44255D02*
X57144Y-44255D01*
X56885Y-44175D02*
X57197Y-44175D01*
X56885Y-44095D02*
X57261Y-44095D01*
X56885Y-44015D02*
X57341Y-44015D01*
X56885Y-43935D02*
X57421Y-43935D01*
X56885Y-43855D02*
X57501Y-43855D01*
X56881Y-43775D02*
X57515Y-43775D01*
X56865Y-43695D02*
X57515Y-43695D01*
X56831Y-43615D02*
X57515Y-43615D01*
X56777Y-43535D02*
X57515Y-43535D01*
X56699Y-43455D02*
X57515Y-43455D01*
X56619Y-43375D02*
X57515Y-43375D01*
X56539Y-43295D02*
X57515Y-43295D01*
X56459Y-43215D02*
X57515Y-43215D01*
X56379Y-43135D02*
X57515Y-43135D01*
X57408Y-43055D02*
X57515Y-43055D01*
X57292Y-43055D02*
X57305Y-43055D01*
X57450Y-42975D02*
X57515Y-42975D01*
X57450Y-42895D02*
X57515Y-42895D01*
X57450Y-42815D02*
X57515Y-42815D01*
X57450Y-42735D02*
X57515Y-42735D01*
X57450Y-42655D02*
X57515Y-42655D01*
X57399Y-42575D02*
X57515Y-42575D01*
X57450Y-42495D02*
X57515Y-42495D01*
X57450Y-42415D02*
X57515Y-42415D01*
X57450Y-42335D02*
X57515Y-42335D01*
X57450Y-42255D02*
X57515Y-42255D01*
X57438Y-42175D02*
X57515Y-42175D01*
X57206Y-42095D02*
X57515Y-42095D01*
X56869Y-42015D02*
X57515Y-42015D01*
X56844Y-41935D02*
X57515Y-41935D01*
X56791Y-41855D02*
X57515Y-41855D01*
X56719Y-41775D02*
X57515Y-41775D01*
X56639Y-41695D02*
X57515Y-41695D01*
X56559Y-41615D02*
X57515Y-41615D01*
X56479Y-41535D02*
X57515Y-41535D01*
X56365Y-41455D02*
X57515Y-41455D01*
X55718Y-41375D02*
X57515Y-41375D01*
X55554Y-41295D02*
X57501Y-41295D01*
X55285Y-41215D02*
X57421Y-41215D01*
X55285Y-41135D02*
X57341Y-41135D01*
X55285Y-41055D02*
X57282Y-41055D01*
X55285Y-40975D02*
X57239Y-40975D01*
X55285Y-40895D02*
X57223Y-40895D01*
X55285Y-40815D02*
X57215Y-40815D01*
X55285Y-40735D02*
X57215Y-40735D01*
X55285Y-40655D02*
X57215Y-40655D01*
X55285Y-40575D02*
X57215Y-40575D01*
X55285Y-40495D02*
X57215Y-40495D01*
X55285Y-40415D02*
X57215Y-40415D01*
X55285Y-40335D02*
X57215Y-40335D01*
X55285Y-40255D02*
X57215Y-40255D01*
X55285Y-40175D02*
X57215Y-40175D01*
X55285Y-40095D02*
X57215Y-40095D01*
X55285Y-40015D02*
X57215Y-40015D01*
X55285Y-39935D02*
X57215Y-39935D01*
X55285Y-39855D02*
X57215Y-39855D01*
X55285Y-39775D02*
X57215Y-39775D01*
X55285Y-39695D02*
X57215Y-39695D01*
X55285Y-39615D02*
X57215Y-39615D01*
X55285Y-39535D02*
X57215Y-39535D01*
X55285Y-39455D02*
X57215Y-39455D01*
X55285Y-39375D02*
X57215Y-39375D01*
X55285Y-39295D02*
X57215Y-39295D01*
X55285Y-39215D02*
X57215Y-39215D01*
X55285Y-39135D02*
X57191Y-39135D01*
X55285Y-39055D02*
X56086Y-39055D01*
X55285Y-38975D02*
X55877Y-38975D01*
X55285Y-38895D02*
X55622Y-38895D01*
X55285Y-38815D02*
X55472Y-38815D01*
X55285Y-38735D02*
X55392Y-38735D01*
X55337Y-38655D02*
X55337Y-38655D01*
X53810Y-45334D02*
X54101Y-45334D01*
X53354Y-45334D02*
X53546Y-45334D01*
X52424Y-45334D02*
X53089Y-45334D01*
X53923Y-45254D02*
X54101Y-45254D01*
X53400Y-45254D02*
X53500Y-45254D01*
X52399Y-45254D02*
X52977Y-45254D01*
X53963Y-45174D02*
X54101Y-45174D01*
X53400Y-45174D02*
X53500Y-45174D01*
X52386Y-45174D02*
X52936Y-45174D01*
X53974Y-45094D02*
X54101Y-45094D01*
X53400Y-45094D02*
X53500Y-45094D01*
X52420Y-45094D02*
X52925Y-45094D01*
X53952Y-45014D02*
X54101Y-45014D01*
X53400Y-45014D02*
X53500Y-45014D01*
X52424Y-45014D02*
X52948Y-45014D01*
X52424Y-44934D02*
X54101Y-44934D01*
X53934Y-44854D02*
X54101Y-44854D01*
X53400Y-44854D02*
X53500Y-44854D01*
X52424Y-44854D02*
X52966Y-44854D01*
X53975Y-44774D02*
X54115Y-44774D01*
X53400Y-44774D02*
X53500Y-44774D01*
X52424Y-44774D02*
X52926Y-44774D01*
X53972Y-44694D02*
X54079Y-44694D01*
X53400Y-44694D02*
X53500Y-44694D01*
X52415Y-44694D02*
X52929Y-44694D01*
X52421Y-44614D02*
X52920Y-44614D01*
X52425Y-44534D02*
X52695Y-44534D01*
X52425Y-44454D02*
X52589Y-44454D01*
X52416Y-44374D02*
X52509Y-44374D01*
X52383Y-44294D02*
X52429Y-44294D01*
X52349Y-44214D02*
X52349Y-44214D01*
X60486Y-49439D02*
X60614Y-49439D01*
X60406Y-49359D02*
X60665Y-49359D01*
X59582Y-49359D02*
X59694Y-49359D01*
X60237Y-49279D02*
X60665Y-49279D01*
X59477Y-49279D02*
X59864Y-49279D01*
X58993Y-49199D02*
X60665Y-49199D01*
X58913Y-49119D02*
X60665Y-49119D01*
X58833Y-49039D02*
X60665Y-49039D01*
X58753Y-48959D02*
X60674Y-48959D01*
X58673Y-48879D02*
X60689Y-48879D01*
X58593Y-48799D02*
X60730Y-48799D01*
X58513Y-48719D02*
X60787Y-48719D01*
X58433Y-48639D02*
X60867Y-48639D01*
X58353Y-48559D02*
X60947Y-48559D01*
X58273Y-48479D02*
X61027Y-48479D01*
X58193Y-48399D02*
X61107Y-48399D01*
X58113Y-48319D02*
X61187Y-48319D01*
X58033Y-48239D02*
X61267Y-48239D01*
X57953Y-48159D02*
X61347Y-48159D01*
X57873Y-48079D02*
X61427Y-48079D01*
X57793Y-47999D02*
X61507Y-47999D01*
X57713Y-47919D02*
X61587Y-47919D01*
X57633Y-47839D02*
X61667Y-47839D01*
X57553Y-47759D02*
X61756Y-47759D01*
X57473Y-47679D02*
X61835Y-47679D01*
X60429Y-47599D02*
X61755Y-47599D01*
X57393Y-47599D02*
X59869Y-47599D01*
X60611Y-47519D02*
X61692Y-47519D01*
X57313Y-47519D02*
X59689Y-47519D01*
X60691Y-47439D02*
X61642Y-47439D01*
X57233Y-47439D02*
X59609Y-47439D01*
X60771Y-47359D02*
X61626Y-47359D01*
X57153Y-47359D02*
X59529Y-47359D01*
X60836Y-47279D02*
X61615Y-47279D01*
X57073Y-47279D02*
X59462Y-47279D01*
X60870Y-47199D02*
X61615Y-47199D01*
X56993Y-47199D02*
X59429Y-47199D01*
X60903Y-47119D02*
X61615Y-47119D01*
X56913Y-47119D02*
X59396Y-47119D01*
X60936Y-47039D02*
X61615Y-47039D01*
X56833Y-47039D02*
X59363Y-47039D01*
X60949Y-46959D02*
X61615Y-46959D01*
X56753Y-46959D02*
X59351Y-46959D01*
X60949Y-46879D02*
X61615Y-46879D01*
X56673Y-46879D02*
X59351Y-46879D01*
X60949Y-46799D02*
X61615Y-46799D01*
X56593Y-46799D02*
X59351Y-46799D01*
X60949Y-46719D02*
X61615Y-46719D01*
X56513Y-46719D02*
X59351Y-46719D01*
X60928Y-46639D02*
X61615Y-46639D01*
X56433Y-46639D02*
X59373Y-46639D01*
X60895Y-46559D02*
X61615Y-46559D01*
X56353Y-46559D02*
X59406Y-46559D01*
X60862Y-46479D02*
X61615Y-46479D01*
X56273Y-46479D02*
X59439Y-46479D01*
X60829Y-46399D02*
X61615Y-46399D01*
X56193Y-46399D02*
X59473Y-46399D01*
X60749Y-46319D02*
X61615Y-46319D01*
X56113Y-46319D02*
X59551Y-46319D01*
X60669Y-46239D02*
X61597Y-46239D01*
X56033Y-46239D02*
X59631Y-46239D01*
X60570Y-46159D02*
X61539Y-46159D01*
X55953Y-46159D02*
X59730Y-46159D01*
X60378Y-46079D02*
X61506Y-46079D01*
X58030Y-46079D02*
X59924Y-46079D01*
X55873Y-46079D02*
X57169Y-46079D01*
X58232Y-45999D02*
X61475Y-45999D01*
X55793Y-45999D02*
X56967Y-45999D01*
X58325Y-45919D02*
X61475Y-45919D01*
X55713Y-45919D02*
X56874Y-45919D01*
X58405Y-45839D02*
X61475Y-45839D01*
X55633Y-45839D02*
X56794Y-45839D01*
X58485Y-45759D02*
X61490Y-45759D01*
X55553Y-45759D02*
X56719Y-45759D01*
X58565Y-45679D02*
X61523Y-45679D01*
X55473Y-45679D02*
X56665Y-45679D01*
X58621Y-45599D02*
X60075Y-45599D01*
X56218Y-45599D02*
X56280Y-45599D01*
X55718Y-45599D02*
X55780Y-45599D01*
X59767Y-45519D02*
X59806Y-45519D01*
X58661Y-45519D02*
X59554Y-45519D01*
X58677Y-45439D02*
X59497Y-45439D01*
X58685Y-45359D02*
X59476Y-45359D01*
X58685Y-45279D02*
X59476Y-45279D01*
X58685Y-45199D02*
X59476Y-45199D01*
X59767Y-45119D02*
X59771Y-45119D01*
X58685Y-45119D02*
X59519Y-45119D01*
X58685Y-45039D02*
X59935Y-45039D01*
X58685Y-44959D02*
X59497Y-44959D01*
X58685Y-44879D02*
X59477Y-44879D01*
X58685Y-44799D02*
X59477Y-44799D01*
X58685Y-44719D02*
X59477Y-44719D01*
X58685Y-44639D02*
X59508Y-44639D01*
X59753Y-44559D02*
X59828Y-44559D01*
X58685Y-44559D02*
X59576Y-44559D01*
X58685Y-44479D02*
X60139Y-44479D01*
X58685Y-44399D02*
X60304Y-44399D01*
X58685Y-44319D02*
X60249Y-44319D01*
X58685Y-44239D02*
X60209Y-44239D01*
X58685Y-44159D02*
X60194Y-44159D01*
X58685Y-44079D02*
X60187Y-44079D01*
X58685Y-43999D02*
X60187Y-43999D01*
X58685Y-43919D02*
X60187Y-43919D01*
X58685Y-43839D02*
X60187Y-43839D01*
X58685Y-43759D02*
X60187Y-43759D01*
X58685Y-43679D02*
X60187Y-43679D01*
X58685Y-43599D02*
X60187Y-43599D01*
X58685Y-43519D02*
X60187Y-43519D01*
X58685Y-43439D02*
X60187Y-43439D01*
X59728Y-43359D02*
X59777Y-43359D01*
X58685Y-43359D02*
X59607Y-43359D01*
X58685Y-43279D02*
X59512Y-43279D01*
X58685Y-43199D02*
X59478Y-43199D01*
X58685Y-43119D02*
X59472Y-43119D01*
X58685Y-43039D02*
X59472Y-43039D01*
X58685Y-42959D02*
X59473Y-42959D01*
X58685Y-42879D02*
X59679Y-42879D01*
X58685Y-42799D02*
X59675Y-42799D01*
X58685Y-42719D02*
X59473Y-42719D01*
X58685Y-42639D02*
X59473Y-42639D01*
X58685Y-42559D02*
X59473Y-42559D01*
X58685Y-42479D02*
X59486Y-42479D01*
X58685Y-42399D02*
X59530Y-42399D01*
X58685Y-42319D02*
X59651Y-42319D01*
X58685Y-42239D02*
X59675Y-42239D01*
X58685Y-42159D02*
X59675Y-42159D01*
X58685Y-42079D02*
X59675Y-42079D01*
X58685Y-41999D02*
X59675Y-41999D01*
X58685Y-41919D02*
X59675Y-41919D01*
X58685Y-41839D02*
X59675Y-41839D01*
X58685Y-41759D02*
X59675Y-41759D01*
X58685Y-41679D02*
X59675Y-41679D01*
X58685Y-41599D02*
X59605Y-41599D01*
X58685Y-41519D02*
X59525Y-41519D01*
X58685Y-41439D02*
X59445Y-41439D01*
X58685Y-41359D02*
X59365Y-41359D01*
X58685Y-41279D02*
X59285Y-41279D01*
X58685Y-41199D02*
X59205Y-41199D01*
X58679Y-41119D02*
X59125Y-41119D01*
X58664Y-41039D02*
X59045Y-41039D01*
X58627Y-40959D02*
X58965Y-40959D01*
X58574Y-40879D02*
X58885Y-40879D01*
X58494Y-40799D02*
X58805Y-40799D01*
X58485Y-40719D02*
X58725Y-40719D01*
X58485Y-40639D02*
X58645Y-40639D01*
X58485Y-40559D02*
X58565Y-40559D01*
X58485Y-40479D02*
X58485Y-40479D01*
X40225Y-54645D02*
X51200Y-54645D01*
X40225Y-54565D02*
X51120Y-54565D01*
X40225Y-54485D02*
X51040Y-54485D01*
X40225Y-54405D02*
X50960Y-54405D01*
X40225Y-54325D02*
X50880Y-54325D01*
X40225Y-54245D02*
X50800Y-54245D01*
X40225Y-54165D02*
X50720Y-54165D01*
X40225Y-54085D02*
X50640Y-54085D01*
X40225Y-54005D02*
X50560Y-54005D01*
X40225Y-53925D02*
X50480Y-53925D01*
X40225Y-53845D02*
X50400Y-53845D01*
X40225Y-53765D02*
X50320Y-53765D01*
X49673Y-53685D02*
X50126Y-53685D01*
X48888Y-53685D02*
X49126Y-53685D01*
X47123Y-53685D02*
X47912Y-53685D01*
X46123Y-53685D02*
X46576Y-53685D01*
X45338Y-53685D02*
X45576Y-53685D01*
X43373Y-53685D02*
X44362Y-53685D01*
X42373Y-53685D02*
X42826Y-53685D01*
X41588Y-53685D02*
X41826Y-53685D01*
X40225Y-53685D02*
X40612Y-53685D01*
X49792Y-53605D02*
X50008Y-53605D01*
X48959Y-53605D02*
X49008Y-53605D01*
X47242Y-53605D02*
X47840Y-53605D01*
X46242Y-53605D02*
X46458Y-53605D01*
X45409Y-53605D02*
X45458Y-53605D01*
X43492Y-53605D02*
X44290Y-53605D01*
X42491Y-53605D02*
X42707Y-53605D01*
X41659Y-53605D02*
X41708Y-53605D01*
X40225Y-53605D02*
X40540Y-53605D01*
X49872Y-53525D02*
X49928Y-53525D01*
X47322Y-53525D02*
X47807Y-53525D01*
X46322Y-53525D02*
X46378Y-53525D01*
X43572Y-53525D02*
X44257Y-53525D01*
X42571Y-53525D02*
X42627Y-53525D01*
X40225Y-53525D02*
X40507Y-53525D01*
X47376Y-53445D02*
X47801Y-53445D01*
X43626Y-53445D02*
X44251Y-53445D01*
X40225Y-53445D02*
X40501Y-53445D01*
X47409Y-53365D02*
X47801Y-53365D01*
X43659Y-53365D02*
X44251Y-53365D01*
X40225Y-53365D02*
X40501Y-53365D01*
X47442Y-53285D02*
X47801Y-53285D01*
X43692Y-53285D02*
X44251Y-53285D01*
X40225Y-53285D02*
X40501Y-53285D01*
X47449Y-53205D02*
X47801Y-53205D01*
X43699Y-53205D02*
X44251Y-53205D01*
X40225Y-53205D02*
X40501Y-53205D01*
X47449Y-53125D02*
X47801Y-53125D01*
X43699Y-53125D02*
X44251Y-53125D01*
X40225Y-53125D02*
X40501Y-53125D01*
X47449Y-53045D02*
X47801Y-53045D01*
X43699Y-53045D02*
X44251Y-53045D01*
X40225Y-53045D02*
X40501Y-53045D01*
X43672Y-52965D02*
X44251Y-52965D01*
X40225Y-52965D02*
X40501Y-52965D01*
X43639Y-52885D02*
X44251Y-52885D01*
X40225Y-52885D02*
X40501Y-52885D01*
X43603Y-52805D02*
X44251Y-52805D01*
X40225Y-52805D02*
X40501Y-52805D01*
X42522Y-52725D02*
X42677Y-52725D01*
X41672Y-52725D02*
X41678Y-52725D01*
X40225Y-52725D02*
X40529Y-52725D01*
X42442Y-52645D02*
X42758Y-52645D01*
X41618Y-52645D02*
X41758Y-52645D01*
X40225Y-52645D02*
X40582Y-52645D01*
X42253Y-52565D02*
X42948Y-52565D01*
X41494Y-52565D02*
X41948Y-52565D01*
X40225Y-52565D02*
X40707Y-52565D01*
X40225Y-52485D02*
X42990Y-52485D01*
X40225Y-52405D02*
X42910Y-52405D01*
X40225Y-52325D02*
X42830Y-52325D01*
X40225Y-52245D02*
X42775Y-52245D01*
X40225Y-52165D02*
X42737Y-52165D01*
X40225Y-52085D02*
X42721Y-52085D01*
X40225Y-52005D02*
X42715Y-52005D01*
X43520Y-51925D02*
X43775Y-51925D01*
X40225Y-51925D02*
X42715Y-51925D01*
X43485Y-51845D02*
X43775Y-51845D01*
X40225Y-51845D02*
X42715Y-51845D01*
X43485Y-51765D02*
X43788Y-51765D01*
X40225Y-51765D02*
X42715Y-51765D01*
X43485Y-51685D02*
X43821Y-51685D01*
X40225Y-51685D02*
X42715Y-51685D01*
X43485Y-51605D02*
X43854Y-51605D01*
X40225Y-51605D02*
X42715Y-51605D01*
X43485Y-51525D02*
X43915Y-51525D01*
X40225Y-51525D02*
X42715Y-51525D01*
X43485Y-51445D02*
X43915Y-51445D01*
X40225Y-51445D02*
X42715Y-51445D01*
X43485Y-51365D02*
X43915Y-51365D01*
X40225Y-51365D02*
X42715Y-51365D01*
X43485Y-51285D02*
X43915Y-51285D01*
X40225Y-51285D02*
X42715Y-51285D01*
X43485Y-51205D02*
X43915Y-51205D01*
X40225Y-51205D02*
X42715Y-51205D01*
X43485Y-51125D02*
X43915Y-51125D01*
X40225Y-51125D02*
X42715Y-51125D01*
X43485Y-51045D02*
X43915Y-51045D01*
X40225Y-51045D02*
X42715Y-51045D01*
X43485Y-50965D02*
X43915Y-50965D01*
X40225Y-50965D02*
X42715Y-50965D01*
X43485Y-50885D02*
X43915Y-50885D01*
X40225Y-50885D02*
X42715Y-50885D01*
X43485Y-50805D02*
X43915Y-50805D01*
X40225Y-50805D02*
X42715Y-50805D01*
X43485Y-50725D02*
X43915Y-50725D01*
X40225Y-50725D02*
X42715Y-50725D01*
X43485Y-50645D02*
X43915Y-50645D01*
X40225Y-50645D02*
X42715Y-50645D01*
X43485Y-50565D02*
X43915Y-50565D01*
X40225Y-50565D02*
X42715Y-50565D01*
X43485Y-50485D02*
X43915Y-50485D01*
X42397Y-50485D02*
X42715Y-50485D01*
X41598Y-50485D02*
X41802Y-50485D01*
X40225Y-50485D02*
X40602Y-50485D01*
X43502Y-50405D02*
X43915Y-50405D01*
X42501Y-50405D02*
X42698Y-50405D01*
X41663Y-50405D02*
X41698Y-50405D01*
X40225Y-50405D02*
X40536Y-50405D01*
X43582Y-50325D02*
X43915Y-50325D01*
X42580Y-50325D02*
X42618Y-50325D01*
X40225Y-50325D02*
X40503Y-50325D01*
X43630Y-50245D02*
X43915Y-50245D01*
X40225Y-50245D02*
X40501Y-50245D01*
X43663Y-50165D02*
X43915Y-50165D01*
X40225Y-50165D02*
X40501Y-50165D01*
X43696Y-50085D02*
X43915Y-50085D01*
X40225Y-50085D02*
X40501Y-50085D01*
X43699Y-50005D02*
X43915Y-50005D01*
X40225Y-50005D02*
X40501Y-50005D01*
X43699Y-49925D02*
X43915Y-49925D01*
X40225Y-49925D02*
X40501Y-49925D01*
X43699Y-49845D02*
X43915Y-49845D01*
X40225Y-49845D02*
X40501Y-49845D01*
X43668Y-49765D02*
X43915Y-49765D01*
X40225Y-49765D02*
X40501Y-49765D01*
X43635Y-49685D02*
X43915Y-49685D01*
X40225Y-49685D02*
X40501Y-49685D01*
X43592Y-49605D02*
X43915Y-49605D01*
X42592Y-49605D02*
X42607Y-49605D01*
X40225Y-49605D02*
X40501Y-49605D01*
X43512Y-49525D02*
X43915Y-49525D01*
X42512Y-49525D02*
X42688Y-49525D01*
X41668Y-49525D02*
X41688Y-49525D01*
X40225Y-49525D02*
X40533Y-49525D01*
X43423Y-49445D02*
X43916Y-49445D01*
X42423Y-49445D02*
X42778Y-49445D01*
X41608Y-49445D02*
X41778Y-49445D01*
X40225Y-49445D02*
X40592Y-49445D01*
X43229Y-49365D02*
X43932Y-49365D01*
X42229Y-49365D02*
X42972Y-49365D01*
X41470Y-49365D02*
X41972Y-49365D01*
X40225Y-49365D02*
X40732Y-49365D01*
X40225Y-49285D02*
X43956Y-49285D01*
X40225Y-49205D02*
X44010Y-49205D01*
X40225Y-49125D02*
X44081Y-49125D01*
X40225Y-49045D02*
X44161Y-49045D01*
X40225Y-48965D02*
X44241Y-48965D01*
X40225Y-48885D02*
X44321Y-48885D01*
X40225Y-48805D02*
X44401Y-48805D01*
X40225Y-48725D02*
X44481Y-48725D01*
X40225Y-48645D02*
X44561Y-48645D01*
X40225Y-48565D02*
X44420Y-48565D01*
X40225Y-48485D02*
X44242Y-48485D01*
X40225Y-48405D02*
X44162Y-48405D01*
X40225Y-48325D02*
X44095Y-48325D01*
X42339Y-48245D02*
X44062Y-48245D01*
X40225Y-48245D02*
X41760Y-48245D01*
X42515Y-48165D02*
X44029Y-48165D01*
X40225Y-48165D02*
X41585Y-48165D01*
X42595Y-48085D02*
X44025Y-48085D01*
X40225Y-48085D02*
X41505Y-48085D01*
X42675Y-48005D02*
X44025Y-48005D01*
X40225Y-48005D02*
X41425Y-48005D01*
X42738Y-47925D02*
X44034Y-47925D01*
X40225Y-47925D02*
X41360Y-47925D01*
X42771Y-47845D02*
X44067Y-47845D01*
X40225Y-47845D02*
X41327Y-47845D01*
X42805Y-47765D02*
X44080Y-47765D01*
X40225Y-47765D02*
X41295Y-47765D01*
X42838Y-47685D02*
X44080Y-47685D01*
X40225Y-47685D02*
X41262Y-47685D01*
X42849Y-47605D02*
X44080Y-47605D01*
X40225Y-47605D02*
X41251Y-47605D01*
X42849Y-47525D02*
X44080Y-47525D01*
X40225Y-47525D02*
X41251Y-47525D01*
X42849Y-47445D02*
X43002Y-47445D01*
X40225Y-47445D02*
X41251Y-47445D01*
X42849Y-47365D02*
X42922Y-47365D01*
X40225Y-47365D02*
X41251Y-47365D01*
X42826Y-47285D02*
X42850Y-47285D01*
X40225Y-47285D02*
X41274Y-47285D01*
X42793Y-47205D02*
X42816Y-47205D01*
X40225Y-47205D02*
X41308Y-47205D01*
X42759Y-47125D02*
X42760Y-47125D01*
X40225Y-47125D02*
X41341Y-47125D01*
X40225Y-47045D02*
X41375Y-47045D01*
X40225Y-46965D02*
X41455Y-46965D01*
X42565Y-46885D02*
X42587Y-46885D01*
X40225Y-46885D02*
X41535Y-46885D01*
X42460Y-46805D02*
X42571Y-46805D01*
X40225Y-46805D02*
X41639Y-46805D01*
X42268Y-46725D02*
X42555Y-46725D01*
X40225Y-46725D02*
X41833Y-46725D01*
X40225Y-46645D02*
X42555Y-46645D01*
X40225Y-46565D02*
X42555Y-46565D01*
X40225Y-46485D02*
X42555Y-46485D01*
X40225Y-46405D02*
X42555Y-46405D01*
X40225Y-46325D02*
X42555Y-46325D01*
X40225Y-46245D02*
X42555Y-46245D01*
X40225Y-46165D02*
X42555Y-46165D01*
X40225Y-46085D02*
X42555Y-46085D01*
X40225Y-46005D02*
X42551Y-46005D01*
X40225Y-45925D02*
X42551Y-45925D01*
X40225Y-45845D02*
X42551Y-45845D01*
X40225Y-45765D02*
X42551Y-45765D01*
X40225Y-45685D02*
X42551Y-45685D01*
X40225Y-45605D02*
X42551Y-45605D01*
X40225Y-45525D02*
X42551Y-45525D01*
X40225Y-45445D02*
X42551Y-45445D01*
X40225Y-45365D02*
X42551Y-45365D01*
X40225Y-45285D02*
X42580Y-45285D01*
X40225Y-45205D02*
X42580Y-45205D01*
X40225Y-45125D02*
X42580Y-45125D01*
X40225Y-45045D02*
X42580Y-45045D01*
X40225Y-44965D02*
X42580Y-44965D01*
X40225Y-44885D02*
X42580Y-44885D01*
X40225Y-44805D02*
X42580Y-44805D01*
X40225Y-44725D02*
X42580Y-44725D01*
X40225Y-44645D02*
X42580Y-44645D01*
X40225Y-44565D02*
X42580Y-44565D01*
X40225Y-44485D02*
X42580Y-44485D01*
X40225Y-44405D02*
X42580Y-44405D01*
X40225Y-44325D02*
X42580Y-44325D01*
X40225Y-44245D02*
X42580Y-44245D01*
X40225Y-44165D02*
X42580Y-44165D01*
X40225Y-44085D02*
X42580Y-44085D01*
X40225Y-44005D02*
X42580Y-44005D01*
X40225Y-43925D02*
X42580Y-43925D01*
X40225Y-43845D02*
X42580Y-43845D01*
X40225Y-43765D02*
X42580Y-43765D01*
X40225Y-43685D02*
X42580Y-43685D01*
X40225Y-43605D02*
X42589Y-43605D01*
X40225Y-43525D02*
X42605Y-43525D01*
X40225Y-43445D02*
X42633Y-43445D01*
X40225Y-43365D02*
X42687Y-43365D01*
X40225Y-43285D02*
X42751Y-43285D01*
X40225Y-43205D02*
X42831Y-43205D01*
X40225Y-43125D02*
X42911Y-43125D01*
X40225Y-43045D02*
X42991Y-43045D01*
X40225Y-42965D02*
X43071Y-42965D01*
X40225Y-42885D02*
X43151Y-42885D01*
X40225Y-42805D02*
X43231Y-42805D01*
X40225Y-42725D02*
X43311Y-42725D01*
X40225Y-42645D02*
X43427Y-42645D01*
X40225Y-42565D02*
X45130Y-42565D01*
X40225Y-42485D02*
X45130Y-42485D01*
X40225Y-42405D02*
X45130Y-42405D01*
X40225Y-42325D02*
X45130Y-42325D01*
X40225Y-42245D02*
X45131Y-42245D01*
X40225Y-42165D02*
X45147Y-42165D01*
X40225Y-42085D02*
X45163Y-42085D01*
X40225Y-42005D02*
X45210Y-42005D01*
X40225Y-41925D02*
X45264Y-41925D01*
X40225Y-41845D02*
X45341Y-41845D01*
X40225Y-41765D02*
X45421Y-41765D01*
X40225Y-41685D02*
X45501Y-41685D01*
X40225Y-41605D02*
X45581Y-41605D01*
X40225Y-41525D02*
X45625Y-41525D01*
X40225Y-41445D02*
X45662Y-41445D01*
X40225Y-41365D02*
X45715Y-41365D01*
X40225Y-41285D02*
X45715Y-41285D01*
X40225Y-41205D02*
X45715Y-41205D01*
X40225Y-41125D02*
X45715Y-41125D01*
X40225Y-41045D02*
X45715Y-41045D01*
X40225Y-40965D02*
X45715Y-40965D01*
X40225Y-40885D02*
X45715Y-40885D01*
X40225Y-40805D02*
X45715Y-40805D01*
X40225Y-40725D02*
X45720Y-40725D01*
X40225Y-40645D02*
X45736Y-40645D01*
X40225Y-40565D02*
X45770Y-40565D01*
X40225Y-40485D02*
X45824Y-40485D01*
X40225Y-40405D02*
X45901Y-40405D01*
X40225Y-40325D02*
X45981Y-40325D01*
X40225Y-40245D02*
X46061Y-40245D01*
X40225Y-40165D02*
X46141Y-40165D01*
X40225Y-40085D02*
X46221Y-40085D01*
X40225Y-40005D02*
X46301Y-40005D01*
X40225Y-39925D02*
X45995Y-39925D01*
X40225Y-39845D02*
X45892Y-39845D01*
X40225Y-39765D02*
X45846Y-39765D01*
X40225Y-39685D02*
X45826Y-39685D01*
X40225Y-39605D02*
X45826Y-39605D01*
X40225Y-39525D02*
X45826Y-39525D01*
X40225Y-39445D02*
X45826Y-39445D01*
X40225Y-39365D02*
X45826Y-39365D01*
X46974Y-39285D02*
X47027Y-39285D01*
X40225Y-39285D02*
X45826Y-39285D01*
X46974Y-39205D02*
X47179Y-39205D01*
X40225Y-39205D02*
X45826Y-39205D01*
X46974Y-39125D02*
X47315Y-39125D01*
X40225Y-39125D02*
X45826Y-39125D01*
X46974Y-39045D02*
X47315Y-39045D01*
X40225Y-39045D02*
X45826Y-39045D01*
X46974Y-38965D02*
X47315Y-38965D01*
X40225Y-38965D02*
X45826Y-38965D01*
X46974Y-38885D02*
X47315Y-38885D01*
X40225Y-38885D02*
X45826Y-38885D01*
X46974Y-38805D02*
X47315Y-38805D01*
X40225Y-38805D02*
X45826Y-38805D01*
X46974Y-38725D02*
X47315Y-38725D01*
X40225Y-38725D02*
X45826Y-38725D01*
X46974Y-38645D02*
X47315Y-38645D01*
X40225Y-38645D02*
X45826Y-38645D01*
X46974Y-38565D02*
X47315Y-38565D01*
X40225Y-38565D02*
X45826Y-38565D01*
X46974Y-38485D02*
X47315Y-38485D01*
X40225Y-38485D02*
X45826Y-38485D01*
X46974Y-38405D02*
X47315Y-38405D01*
X40225Y-38405D02*
X45826Y-38405D01*
X46974Y-38325D02*
X47315Y-38325D01*
X40225Y-38325D02*
X45826Y-38325D01*
X46974Y-38245D02*
X47315Y-38245D01*
X40225Y-38245D02*
X45826Y-38245D01*
X46974Y-38165D02*
X47315Y-38165D01*
X40225Y-38165D02*
X45826Y-38165D01*
X46950Y-38085D02*
X47315Y-38085D01*
X40225Y-38085D02*
X45852Y-38085D01*
X46898Y-38005D02*
X47315Y-38005D01*
X40225Y-38005D02*
X45902Y-38005D01*
X46925Y-37925D02*
X47330Y-37925D01*
X40225Y-37925D02*
X45876Y-37925D01*
X46901Y-37845D02*
X47349Y-37845D01*
X46350Y-37845D02*
X46450Y-37845D01*
X40225Y-37845D02*
X45900Y-37845D01*
X46842Y-37765D02*
X47403Y-37765D01*
X46350Y-37765D02*
X46450Y-37765D01*
X40225Y-37765D02*
X45958Y-37765D01*
X47352Y-37685D02*
X47471Y-37685D01*
X40225Y-37685D02*
X47047Y-37685D01*
X47541Y-37605D02*
X47551Y-37605D01*
X40225Y-37605D02*
X46858Y-37605D01*
X47621Y-37525D02*
X47631Y-37525D01*
X40225Y-37525D02*
X46778Y-37525D01*
X40225Y-37445D02*
X46698Y-37445D01*
X40225Y-37365D02*
X46661Y-37365D01*
X40225Y-37285D02*
X46628Y-37285D01*
X40225Y-37205D02*
X46601Y-37205D01*
X40225Y-37125D02*
X46601Y-37125D01*
X40225Y-37045D02*
X46601Y-37045D01*
X40225Y-36965D02*
X45148Y-36965D01*
X40225Y-36885D02*
X44996Y-36885D01*
X40225Y-36805D02*
X44910Y-36805D01*
X40225Y-36725D02*
X44830Y-36725D01*
X40225Y-36645D02*
X44750Y-36645D01*
X40225Y-36565D02*
X44670Y-36565D01*
X40225Y-36485D02*
X44590Y-36485D01*
X40225Y-36405D02*
X44510Y-36405D01*
X40225Y-36325D02*
X44430Y-36325D01*
X40225Y-36245D02*
X44350Y-36245D01*
X45360Y-36165D02*
X46601Y-36165D01*
X40225Y-36165D02*
X44270Y-36165D01*
X45280Y-36085D02*
X46601Y-36085D01*
X40225Y-36085D02*
X44190Y-36085D01*
X45200Y-36005D02*
X46601Y-36005D01*
X40225Y-36005D02*
X43996Y-36005D01*
X45120Y-35925D02*
X46625Y-35925D01*
X40225Y-35925D02*
X43832Y-35925D01*
X45040Y-35845D02*
X46658Y-35845D01*
X40225Y-35845D02*
X43752Y-35845D01*
X44960Y-35765D02*
X46691Y-35765D01*
X40225Y-35765D02*
X43691Y-35765D01*
X48632Y-35685D02*
X48768Y-35685D01*
X47632Y-35685D02*
X47768Y-35685D01*
X44880Y-35685D02*
X46768Y-35685D01*
X40225Y-35685D02*
X43658Y-35685D01*
X48552Y-35605D02*
X48848Y-35605D01*
X47552Y-35605D02*
X47848Y-35605D01*
X44800Y-35605D02*
X46848Y-35605D01*
X40225Y-35605D02*
X43625Y-35605D01*
X49378Y-35525D02*
X49382Y-35525D01*
X48378Y-35525D02*
X49022Y-35525D01*
X47378Y-35525D02*
X48023Y-35525D01*
X44720Y-35525D02*
X47023Y-35525D01*
X40225Y-35525D02*
X43625Y-35525D01*
X44675Y-35445D02*
X49302Y-35445D01*
X40225Y-35445D02*
X43625Y-35445D01*
X44663Y-35365D02*
X49241Y-35365D01*
X40225Y-35365D02*
X43638Y-35365D01*
X44629Y-35285D02*
X49208Y-35285D01*
X40225Y-35285D02*
X43671Y-35285D01*
X44596Y-35205D02*
X49175Y-35205D01*
X40225Y-35205D02*
X43704Y-35205D01*
X44518Y-35125D02*
X49175Y-35125D01*
X40225Y-35125D02*
X43783Y-35125D01*
X44424Y-35045D02*
X49175Y-35045D01*
X40225Y-35045D02*
X43878Y-35045D01*
X40225Y-34965D02*
X49188Y-34965D01*
X40225Y-34885D02*
X49221Y-34885D01*
X40225Y-34805D02*
X49254Y-34805D01*
X40225Y-34725D02*
X49265Y-34725D01*
X40225Y-34645D02*
X49265Y-34645D01*
X49098Y-34565D02*
X49202Y-34565D01*
X40225Y-34565D02*
X48888Y-34565D01*
X49100Y-34485D02*
X49200Y-34485D01*
X40225Y-34485D02*
X48826Y-34485D01*
X49100Y-34405D02*
X49200Y-34405D01*
X40225Y-34405D02*
X48800Y-34405D01*
X49100Y-34325D02*
X49200Y-34325D01*
X40225Y-34325D02*
X48800Y-34325D01*
X49100Y-34245D02*
X49200Y-34245D01*
X40225Y-34245D02*
X48817Y-34245D01*
X40225Y-34165D02*
X49200Y-34165D01*
X49100Y-34085D02*
X49200Y-34085D01*
X47900Y-34085D02*
X48847Y-34085D01*
X40225Y-34085D02*
X47498Y-34085D01*
X49100Y-34005D02*
X49200Y-34005D01*
X48037Y-34005D02*
X48801Y-34005D01*
X40225Y-34005D02*
X47362Y-34005D01*
X49100Y-33925D02*
X49200Y-33925D01*
X48117Y-33925D02*
X48801Y-33925D01*
X40225Y-33925D02*
X47282Y-33925D01*
X49100Y-33845D02*
X49200Y-33845D01*
X48166Y-33845D02*
X48814Y-33845D01*
X40225Y-33845D02*
X47233Y-33845D01*
X49100Y-33765D02*
X49200Y-33765D01*
X48200Y-33765D02*
X48858Y-33765D01*
X40225Y-33765D02*
X47200Y-33765D01*
X49322Y-33685D02*
X49367Y-33685D01*
X49048Y-33685D02*
X49252Y-33685D01*
X48225Y-33685D02*
X48980Y-33685D01*
X40225Y-33685D02*
X47175Y-33685D01*
X48225Y-33605D02*
X49885Y-33605D01*
X40225Y-33605D02*
X47175Y-33605D01*
X48225Y-33525D02*
X49869Y-33525D01*
X40225Y-33525D02*
X47175Y-33525D01*
X48204Y-33445D02*
X49865Y-33445D01*
X40225Y-33445D02*
X47196Y-33445D01*
X48171Y-33365D02*
X49865Y-33365D01*
X40225Y-33365D02*
X47229Y-33365D01*
X48128Y-33285D02*
X49865Y-33285D01*
X40225Y-33285D02*
X47272Y-33285D01*
X48110Y-33205D02*
X49865Y-33205D01*
X40225Y-33205D02*
X47340Y-33205D01*
X49374Y-33125D02*
X49865Y-33125D01*
X48110Y-33125D02*
X48924Y-33125D01*
X40225Y-33125D02*
X47340Y-33125D01*
X49497Y-33045D02*
X49866Y-33045D01*
X48110Y-33045D02*
X48802Y-33045D01*
X40225Y-33045D02*
X47340Y-33045D01*
X48110Y-32965D02*
X48722Y-32965D01*
X40225Y-32965D02*
X47340Y-32965D01*
X48110Y-32885D02*
X48679Y-32885D01*
X46892Y-32885D02*
X47340Y-32885D01*
X40225Y-32885D02*
X46506Y-32885D01*
X48110Y-32805D02*
X48646Y-32805D01*
X47086Y-32805D02*
X47340Y-32805D01*
X40225Y-32805D02*
X46314Y-32805D01*
X48110Y-32725D02*
X48625Y-32725D01*
X47205Y-32725D02*
X47340Y-32725D01*
X40225Y-32725D02*
X46195Y-32725D01*
X48110Y-32645D02*
X48625Y-32645D01*
X47285Y-32645D02*
X47340Y-32645D01*
X40225Y-32645D02*
X46115Y-32645D01*
X48110Y-32565D02*
X48625Y-32565D01*
X40225Y-32565D02*
X46035Y-32565D01*
X48110Y-32485D02*
X48650Y-32485D01*
X40225Y-32485D02*
X45994Y-32485D01*
X48110Y-32405D02*
X48684Y-32405D01*
X40225Y-32405D02*
X45961Y-32405D01*
X48110Y-32325D02*
X48732Y-32325D01*
X40225Y-32325D02*
X45928Y-32325D01*
X48110Y-32245D02*
X48765Y-32245D01*
X40225Y-32245D02*
X45901Y-32245D01*
X48110Y-32165D02*
X48765Y-32165D01*
X40225Y-32165D02*
X45901Y-32165D01*
X48110Y-32085D02*
X48765Y-32085D01*
X40225Y-32085D02*
X45901Y-32085D01*
X48110Y-32005D02*
X48765Y-32005D01*
X40225Y-32005D02*
X45901Y-32005D01*
X48110Y-31925D02*
X48751Y-31925D01*
X40225Y-31925D02*
X45908Y-31925D01*
X48110Y-31845D02*
X48751Y-31845D01*
X40225Y-31845D02*
X45941Y-31845D01*
X48110Y-31765D02*
X48751Y-31765D01*
X40225Y-31765D02*
X45974Y-31765D01*
X48110Y-31685D02*
X48751Y-31685D01*
X40225Y-31685D02*
X46008Y-31685D01*
X48110Y-31605D02*
X48751Y-31605D01*
X47335Y-31605D02*
X47340Y-31605D01*
X40225Y-31605D02*
X46065Y-31605D01*
X48110Y-31525D02*
X48751Y-31525D01*
X47255Y-31525D02*
X47340Y-31525D01*
X40225Y-31525D02*
X46145Y-31525D01*
X48110Y-31445D02*
X48751Y-31445D01*
X47175Y-31445D02*
X47340Y-31445D01*
X40225Y-31445D02*
X46225Y-31445D01*
X48110Y-31365D02*
X48751Y-31365D01*
X47014Y-31365D02*
X47340Y-31365D01*
X40225Y-31365D02*
X46387Y-31365D01*
X48110Y-31285D02*
X48785Y-31285D01*
X40225Y-31285D02*
X47340Y-31285D01*
X48110Y-31205D02*
X48847Y-31205D01*
X40225Y-31205D02*
X47340Y-31205D01*
X48110Y-31125D02*
X49075Y-31125D01*
X40225Y-31125D02*
X47340Y-31125D01*
X48110Y-31045D02*
X49075Y-31045D01*
X40225Y-31045D02*
X47340Y-31045D01*
X48110Y-30965D02*
X49088Y-30965D01*
X40225Y-30965D02*
X47340Y-30965D01*
X48110Y-30885D02*
X49121Y-30885D01*
X40225Y-30885D02*
X47340Y-30885D01*
X48110Y-30805D02*
X49154Y-30805D01*
X40225Y-30805D02*
X47340Y-30805D01*
X48169Y-30725D02*
X49233Y-30725D01*
X40225Y-30725D02*
X47340Y-30725D01*
X48249Y-30645D02*
X49328Y-30645D01*
X40225Y-30645D02*
X47340Y-30645D01*
X48329Y-30565D02*
X49782Y-30565D01*
X40225Y-30565D02*
X47352Y-30565D01*
X48409Y-30485D02*
X49806Y-30485D01*
X45234Y-30485D02*
X47368Y-30485D01*
X42234Y-30485D02*
X44764Y-30485D01*
X40225Y-30485D02*
X41764Y-30485D01*
X48489Y-30405D02*
X49860Y-30405D01*
X45428Y-30405D02*
X47418Y-30405D01*
X42428Y-30405D02*
X44572Y-30405D01*
X40225Y-30405D02*
X41572Y-30405D01*
X48569Y-30325D02*
X49931Y-30325D01*
X45589Y-30325D02*
X47481Y-30325D01*
X42589Y-30325D02*
X44411Y-30325D01*
X40225Y-30325D02*
X41411Y-30325D01*
X48649Y-30245D02*
X50011Y-30245D01*
X45669Y-30245D02*
X47561Y-30245D01*
X42669Y-30245D02*
X44331Y-30245D01*
X40225Y-30245D02*
X41331Y-30245D01*
X48729Y-30165D02*
X50091Y-30165D01*
X45749Y-30165D02*
X47641Y-30165D01*
X42749Y-30165D02*
X44251Y-30165D01*
X40225Y-30165D02*
X41251Y-30165D01*
X48809Y-30085D02*
X50171Y-30085D01*
X45829Y-30085D02*
X47721Y-30085D01*
X42829Y-30085D02*
X44171Y-30085D01*
X40225Y-30085D02*
X41171Y-30085D01*
X48889Y-30005D02*
X50251Y-30005D01*
X45872Y-30005D02*
X47801Y-30005D01*
X42872Y-30005D02*
X44126Y-30005D01*
X40225Y-30005D02*
X41126Y-30005D01*
X48969Y-29925D02*
X50022Y-29925D01*
X47377Y-29925D02*
X47881Y-29925D01*
X45906Y-29925D02*
X47022Y-29925D01*
X42906Y-29925D02*
X44093Y-29925D01*
X40225Y-29925D02*
X41093Y-29925D01*
X49424Y-29845D02*
X49848Y-29845D01*
X47551Y-29845D02*
X47848Y-29845D01*
X45939Y-29845D02*
X46848Y-29845D01*
X42939Y-29845D02*
X44060Y-29845D01*
X40225Y-29845D02*
X41060Y-29845D01*
X49497Y-29765D02*
X49768Y-29765D01*
X47631Y-29765D02*
X47768Y-29765D01*
X45972Y-29765D02*
X46768Y-29765D01*
X42972Y-29765D02*
X44027Y-29765D01*
X40225Y-29765D02*
X41027Y-29765D01*
X49465Y-29685D02*
X49690Y-29685D01*
X46000Y-29685D02*
X46690Y-29685D01*
X43000Y-29685D02*
X44000Y-29685D01*
X40225Y-29685D02*
X41000Y-29685D01*
X49385Y-29605D02*
X49525Y-29605D01*
X46000Y-29605D02*
X46657Y-29605D01*
X43000Y-29605D02*
X44000Y-29605D01*
X40225Y-29605D02*
X41000Y-29605D01*
X49305Y-29525D02*
X49445Y-29525D01*
X46000Y-29525D02*
X46624Y-29525D01*
X43000Y-29525D02*
X44000Y-29525D01*
X40225Y-29525D02*
X41000Y-29525D01*
X49225Y-29445D02*
X49365Y-29445D01*
X46000Y-29445D02*
X46601Y-29445D01*
X43000Y-29445D02*
X44000Y-29445D01*
X40225Y-29445D02*
X41000Y-29445D01*
X49144Y-29365D02*
X49285Y-29365D01*
X49114Y-29365D02*
X49114Y-29365D01*
X46000Y-29365D02*
X46601Y-29365D01*
X43000Y-29365D02*
X44000Y-29365D01*
X40225Y-29365D02*
X41000Y-29365D01*
X49192Y-29285D02*
X49336Y-29285D01*
X45993Y-29285D02*
X46601Y-29285D01*
X42993Y-29285D02*
X44007Y-29285D01*
X40225Y-29285D02*
X41007Y-29285D01*
X49272Y-29205D02*
X49416Y-29205D01*
X49126Y-29205D02*
X49126Y-29205D01*
X45960Y-29205D02*
X46612Y-29205D01*
X42960Y-29205D02*
X44040Y-29205D01*
X40225Y-29205D02*
X41040Y-29205D01*
X49353Y-29125D02*
X49496Y-29125D01*
X45927Y-29125D02*
X46645Y-29125D01*
X42927Y-29125D02*
X44073Y-29125D01*
X40225Y-29125D02*
X41073Y-29125D01*
X49589Y-29045D02*
X49678Y-29045D01*
X49434Y-29045D02*
X49576Y-29045D01*
X45894Y-29045D02*
X46678Y-29045D01*
X42894Y-29045D02*
X44107Y-29045D01*
X40225Y-29045D02*
X41107Y-29045D01*
X49506Y-28965D02*
X49738Y-28965D01*
X45861Y-28965D02*
X46738Y-28965D01*
X42861Y-28965D02*
X44140Y-28965D01*
X40225Y-28965D02*
X41140Y-28965D01*
X49484Y-28885D02*
X49818Y-28885D01*
X45799Y-28885D02*
X46817Y-28885D01*
X42799Y-28885D02*
X44201Y-28885D01*
X40225Y-28885D02*
X41201Y-28885D01*
X49591Y-28805D02*
X49809Y-28805D01*
X45719Y-28805D02*
X46808Y-28805D01*
X42719Y-28805D02*
X44281Y-28805D01*
X40225Y-28805D02*
X41281Y-28805D01*
X59792Y-28725D02*
X59810Y-28725D01*
X49671Y-28725D02*
X49729Y-28725D01*
X45639Y-28725D02*
X46728Y-28725D01*
X42639Y-28725D02*
X44361Y-28725D01*
X40225Y-28725D02*
X41361Y-28725D01*
X59799Y-28645D02*
X59890Y-28645D01*
X45548Y-28645D02*
X46673Y-28645D01*
X42548Y-28645D02*
X44451Y-28645D01*
X40225Y-28645D02*
X41451Y-28645D01*
X59799Y-28565D02*
X59970Y-28565D01*
X45356Y-28565D02*
X46640Y-28565D01*
X42356Y-28565D02*
X44645Y-28565D01*
X40225Y-28565D02*
X41645Y-28565D01*
X59799Y-28485D02*
X60050Y-28485D01*
X40225Y-28485D02*
X46607Y-28485D01*
X59799Y-28405D02*
X60130Y-28405D01*
X40225Y-28405D02*
X46601Y-28405D01*
X59799Y-28325D02*
X60210Y-28325D01*
X40225Y-28325D02*
X46601Y-28325D01*
X59799Y-28245D02*
X60287Y-28245D01*
X40225Y-28245D02*
X46601Y-28245D01*
X59799Y-28165D02*
X60320Y-28165D01*
X40225Y-28165D02*
X46629Y-28165D01*
X59799Y-28085D02*
X60368Y-28085D01*
X40225Y-28085D02*
X46662Y-28085D01*
X59799Y-28005D02*
X60448Y-28005D01*
X40225Y-28005D02*
X46698Y-28005D01*
X59772Y-27925D02*
X60477Y-27925D01*
X58622Y-27925D02*
X58628Y-27925D01*
X57622Y-27925D02*
X57778Y-27925D01*
X56622Y-27925D02*
X56777Y-27925D01*
X55622Y-27925D02*
X55778Y-27925D01*
X54623Y-27925D02*
X54778Y-27925D01*
X53622Y-27925D02*
X53778Y-27925D01*
X52622Y-27925D02*
X52778Y-27925D01*
X51623Y-27925D02*
X51778Y-27925D01*
X50622Y-27925D02*
X50778Y-27925D01*
X49623Y-27925D02*
X49778Y-27925D01*
X48622Y-27925D02*
X48777Y-27925D01*
X47623Y-27925D02*
X47778Y-27925D01*
X40225Y-27925D02*
X46778Y-27925D01*
X59718Y-27845D02*
X60397Y-27845D01*
X58542Y-27845D02*
X58682Y-27845D01*
X57542Y-27845D02*
X57858Y-27845D01*
X56542Y-27845D02*
X56858Y-27845D01*
X55542Y-27845D02*
X55858Y-27845D01*
X54543Y-27845D02*
X54858Y-27845D01*
X53542Y-27845D02*
X53858Y-27845D01*
X52542Y-27845D02*
X52858Y-27845D01*
X51543Y-27845D02*
X51858Y-27845D01*
X50542Y-27845D02*
X50858Y-27845D01*
X49543Y-27845D02*
X49858Y-27845D01*
X48542Y-27845D02*
X48858Y-27845D01*
X47543Y-27845D02*
X47858Y-27845D01*
X40225Y-27845D02*
X46858Y-27845D01*
X59594Y-27765D02*
X60332Y-27765D01*
X58353Y-27765D02*
X58807Y-27765D01*
X57353Y-27765D02*
X58048Y-27765D01*
X56353Y-27765D02*
X57048Y-27765D01*
X55353Y-27765D02*
X56048Y-27765D01*
X54353Y-27765D02*
X55048Y-27765D01*
X53353Y-27765D02*
X54048Y-27765D01*
X52353Y-27765D02*
X53048Y-27765D01*
X51353Y-27765D02*
X52048Y-27765D01*
X50353Y-27765D02*
X51048Y-27765D01*
X49353Y-27765D02*
X50048Y-27765D01*
X48353Y-27765D02*
X49048Y-27765D01*
X47353Y-27765D02*
X48048Y-27765D01*
X40225Y-27765D02*
X47048Y-27765D01*
X40225Y-27685D02*
X60298Y-27685D01*
X40225Y-27605D02*
X60265Y-27605D01*
X40225Y-27525D02*
X60251Y-27525D01*
X40225Y-27445D02*
X60251Y-27445D01*
X40225Y-27365D02*
X60251Y-27365D01*
X40225Y-27285D02*
X60271Y-27285D01*
X61397Y-27205D02*
X61430Y-27205D01*
X40225Y-27205D02*
X60304Y-27205D01*
X61364Y-27125D02*
X61430Y-27125D01*
X40225Y-27125D02*
X60337Y-27125D01*
X61292Y-27045D02*
X61430Y-27045D01*
X40225Y-27045D02*
X60408Y-27045D01*
X61212Y-26965D02*
X61430Y-26965D01*
X40225Y-26965D02*
X60488Y-26965D01*
X61052Y-26885D02*
X61430Y-26885D01*
X40225Y-26885D02*
X60649Y-26885D01*
X40225Y-26805D02*
X61417Y-26805D01*
X40225Y-26725D02*
X61383Y-26725D01*
X40225Y-26645D02*
X61375Y-26645D01*
X40225Y-26565D02*
X61375Y-26565D01*
X40225Y-26485D02*
X61380Y-26485D01*
X40225Y-26405D02*
X61413Y-26405D01*
X40225Y-26325D02*
X61445Y-26325D01*
X67447Y-54645D02*
X68675Y-54645D01*
X67508Y-54565D02*
X68675Y-54565D01*
X67541Y-54485D02*
X68675Y-54485D01*
X68002Y-54405D02*
X68675Y-54405D01*
X67575Y-54405D02*
X67697Y-54405D01*
X68167Y-54325D02*
X68675Y-54325D01*
X68247Y-54245D02*
X68675Y-54245D01*
X68308Y-54165D02*
X68675Y-54165D01*
X68341Y-54085D02*
X68675Y-54085D01*
X68375Y-54005D02*
X68675Y-54005D01*
X68375Y-53925D02*
X68675Y-53925D01*
X68375Y-53845D02*
X68675Y-53845D01*
X68363Y-53765D02*
X68675Y-53765D01*
X68329Y-53685D02*
X68675Y-53685D01*
X68296Y-53605D02*
X68675Y-53605D01*
X68235Y-53525D02*
X68675Y-53525D01*
X68235Y-53445D02*
X68675Y-53445D01*
X68235Y-53365D02*
X68675Y-53365D01*
X68235Y-53285D02*
X68675Y-53285D01*
X68287Y-53205D02*
X68675Y-53205D01*
X68325Y-53125D02*
X68675Y-53125D01*
X68358Y-53045D02*
X68675Y-53045D01*
X68375Y-52965D02*
X68675Y-52965D01*
X68375Y-52885D02*
X68675Y-52885D01*
X68375Y-52805D02*
X68675Y-52805D01*
X68346Y-52725D02*
X68675Y-52725D01*
X68313Y-52645D02*
X68675Y-52645D01*
X68258Y-52565D02*
X68675Y-52565D01*
X68235Y-52485D02*
X68675Y-52485D01*
X68235Y-52405D02*
X68675Y-52405D01*
X68235Y-52325D02*
X68675Y-52325D01*
X68235Y-52245D02*
X68675Y-52245D01*
X68235Y-52165D02*
X68675Y-52165D01*
X68235Y-52085D02*
X68675Y-52085D01*
X68235Y-52005D02*
X68675Y-52005D01*
X68235Y-51925D02*
X68675Y-51925D01*
X68235Y-51845D02*
X68675Y-51845D01*
X68235Y-51765D02*
X68675Y-51765D01*
X68235Y-51685D02*
X68675Y-51685D01*
X68235Y-51605D02*
X68675Y-51605D01*
X68235Y-51525D02*
X68675Y-51525D01*
X68235Y-51445D02*
X68675Y-51445D01*
X68235Y-51365D02*
X68675Y-51365D01*
X68235Y-51285D02*
X68675Y-51285D01*
X68235Y-51205D02*
X68675Y-51205D01*
X68235Y-51125D02*
X68675Y-51125D01*
X68235Y-51045D02*
X68675Y-51045D01*
X68235Y-50965D02*
X68675Y-50965D01*
X68235Y-50885D02*
X68675Y-50885D01*
X68235Y-50805D02*
X68675Y-50805D01*
X68235Y-50725D02*
X68675Y-50725D01*
X68235Y-50645D02*
X68675Y-50645D01*
X68235Y-50565D02*
X68675Y-50565D01*
X68235Y-50485D02*
X68675Y-50485D01*
X68235Y-50405D02*
X68675Y-50405D01*
X68235Y-50325D02*
X68675Y-50325D01*
X68235Y-50245D02*
X68675Y-50245D01*
X68235Y-50165D02*
X68675Y-50165D01*
X68235Y-50085D02*
X68675Y-50085D01*
X68235Y-50005D02*
X68675Y-50005D01*
X68235Y-49925D02*
X68675Y-49925D01*
X68235Y-49845D02*
X68675Y-49845D01*
X68235Y-49765D02*
X68675Y-49765D01*
X68235Y-49685D02*
X68675Y-49685D01*
X68235Y-49605D02*
X68675Y-49605D01*
X68235Y-49525D02*
X68675Y-49525D01*
X68235Y-49445D02*
X68675Y-49445D01*
X68235Y-49365D02*
X68675Y-49365D01*
X68235Y-49285D02*
X68675Y-49285D01*
X68235Y-49205D02*
X68675Y-49205D01*
X68235Y-49125D02*
X68675Y-49125D01*
X68235Y-49045D02*
X68675Y-49045D01*
X68235Y-48965D02*
X68675Y-48965D01*
X68235Y-48885D02*
X68675Y-48885D01*
X68235Y-48805D02*
X68675Y-48805D01*
X68235Y-48725D02*
X68675Y-48725D01*
X68235Y-48645D02*
X68675Y-48645D01*
X68235Y-48565D02*
X68675Y-48565D01*
X68235Y-48485D02*
X68675Y-48485D01*
X68235Y-48405D02*
X68675Y-48405D01*
X68235Y-48325D02*
X68675Y-48325D01*
X68235Y-48245D02*
X68675Y-48245D01*
X68235Y-48165D02*
X68675Y-48165D01*
X68235Y-48085D02*
X68675Y-48085D01*
X68235Y-48005D02*
X68675Y-48005D01*
X68235Y-47925D02*
X68675Y-47925D01*
X68235Y-47845D02*
X68675Y-47845D01*
X68235Y-47765D02*
X68675Y-47765D01*
X68235Y-47685D02*
X68675Y-47685D01*
X68235Y-47605D02*
X68675Y-47605D01*
X68235Y-47525D02*
X68675Y-47525D01*
X68235Y-47445D02*
X68675Y-47445D01*
X68235Y-47365D02*
X68675Y-47365D01*
X68235Y-47285D02*
X68675Y-47285D01*
X68235Y-47205D02*
X68675Y-47205D01*
X68235Y-47125D02*
X68675Y-47125D01*
X68235Y-47045D02*
X68675Y-47045D01*
X68235Y-46965D02*
X68675Y-46965D01*
X68235Y-46885D02*
X68675Y-46885D01*
X68235Y-46805D02*
X68675Y-46805D01*
X68235Y-46725D02*
X68675Y-46725D01*
X68235Y-46645D02*
X68675Y-46645D01*
X68235Y-46565D02*
X68675Y-46565D01*
X68235Y-46485D02*
X68675Y-46485D01*
X68235Y-46405D02*
X68675Y-46405D01*
X68235Y-46325D02*
X68675Y-46325D01*
X68235Y-46245D02*
X68675Y-46245D01*
X68235Y-46165D02*
X68675Y-46165D01*
X68235Y-46085D02*
X68675Y-46085D01*
X68235Y-46005D02*
X68675Y-46005D01*
X68235Y-45925D02*
X68675Y-45925D01*
X68235Y-45845D02*
X68675Y-45845D01*
X68235Y-45765D02*
X68675Y-45765D01*
X68235Y-45685D02*
X68675Y-45685D01*
X68235Y-45605D02*
X68675Y-45605D01*
X68235Y-45525D02*
X68675Y-45525D01*
X68235Y-45445D02*
X68675Y-45445D01*
X68229Y-45365D02*
X68675Y-45365D01*
X68213Y-45285D02*
X68675Y-45285D01*
X68175Y-45205D02*
X68675Y-45205D01*
X68119Y-45125D02*
X68675Y-45125D01*
X68039Y-45045D02*
X68675Y-45045D01*
X67959Y-44965D02*
X68675Y-44965D01*
X67879Y-44885D02*
X68675Y-44885D01*
X67799Y-44805D02*
X68675Y-44805D01*
X67719Y-44725D02*
X68675Y-44725D01*
X67639Y-44645D02*
X68675Y-44645D01*
X67559Y-44565D02*
X68675Y-44565D01*
X67479Y-44485D02*
X68675Y-44485D01*
X67399Y-44405D02*
X68675Y-44405D01*
X67319Y-44325D02*
X68675Y-44325D01*
X67239Y-44245D02*
X68675Y-44245D01*
X67159Y-44165D02*
X68675Y-44165D01*
X67079Y-44085D02*
X68675Y-44085D01*
X66999Y-44005D02*
X68675Y-44005D01*
X66919Y-43925D02*
X68675Y-43925D01*
X66839Y-43845D02*
X68675Y-43845D01*
X66759Y-43765D02*
X68675Y-43765D01*
X66679Y-43685D02*
X68675Y-43685D01*
X66599Y-43605D02*
X68675Y-43605D01*
X66519Y-43525D02*
X68675Y-43525D01*
X66439Y-43445D02*
X68675Y-43445D01*
X66359Y-43365D02*
X68675Y-43365D01*
X66279Y-43285D02*
X68675Y-43285D01*
X66189Y-43205D02*
X68675Y-43205D01*
X66002Y-43125D02*
X68675Y-43125D01*
X64897Y-43045D02*
X68675Y-43045D01*
X64958Y-42965D02*
X68675Y-42965D01*
X64991Y-42885D02*
X68675Y-42885D01*
X65025Y-42805D02*
X68675Y-42805D01*
X65025Y-42725D02*
X68675Y-42725D01*
X65025Y-42645D02*
X68675Y-42645D01*
X65013Y-42565D02*
X68675Y-42565D01*
X64979Y-42485D02*
X68675Y-42485D01*
X64946Y-42405D02*
X68675Y-42405D01*
X64868Y-42325D02*
X68675Y-42325D01*
X64774Y-42245D02*
X68675Y-42245D01*
X62490Y-42245D02*
X64228Y-42245D01*
X62410Y-42165D02*
X68675Y-42165D01*
X62330Y-42085D02*
X68675Y-42085D01*
X62250Y-42005D02*
X68675Y-42005D01*
X62170Y-41925D02*
X68675Y-41925D01*
X62090Y-41845D02*
X68675Y-41845D01*
X62010Y-41765D02*
X68675Y-41765D01*
X61930Y-41685D02*
X68675Y-41685D01*
X61850Y-41605D02*
X68675Y-41605D01*
X61770Y-41525D02*
X68675Y-41525D01*
X61690Y-41445D02*
X68675Y-41445D01*
X61610Y-41365D02*
X68675Y-41365D01*
X61530Y-41285D02*
X68675Y-41285D01*
X62872Y-41205D02*
X68675Y-41205D01*
X61450Y-41205D02*
X62326Y-41205D01*
X62967Y-41125D02*
X68675Y-41125D01*
X61370Y-41125D02*
X62232Y-41125D01*
X63046Y-41045D02*
X68675Y-41045D01*
X61290Y-41045D02*
X62154Y-41045D01*
X63079Y-40965D02*
X68675Y-40965D01*
X61210Y-40965D02*
X62121Y-40965D01*
X63112Y-40885D02*
X68675Y-40885D01*
X61130Y-40885D02*
X62087Y-40885D01*
X63125Y-40805D02*
X68675Y-40805D01*
X61050Y-40805D02*
X62075Y-40805D01*
X63125Y-40725D02*
X68675Y-40725D01*
X60970Y-40725D02*
X62075Y-40725D01*
X63125Y-40645D02*
X68675Y-40645D01*
X60890Y-40645D02*
X62075Y-40645D01*
X63092Y-40565D02*
X68675Y-40565D01*
X60810Y-40565D02*
X62109Y-40565D01*
X63059Y-40485D02*
X68675Y-40485D01*
X60729Y-40485D02*
X62142Y-40485D01*
X62998Y-40405D02*
X68675Y-40405D01*
X60649Y-40405D02*
X62202Y-40405D01*
X62985Y-40325D02*
X68675Y-40325D01*
X60569Y-40325D02*
X62215Y-40325D01*
X62985Y-40245D02*
X68675Y-40245D01*
X60489Y-40245D02*
X62215Y-40245D01*
X62985Y-40165D02*
X68675Y-40165D01*
X60409Y-40165D02*
X62215Y-40165D01*
X62985Y-40085D02*
X68675Y-40085D01*
X60329Y-40085D02*
X62215Y-40085D01*
X62985Y-40005D02*
X68675Y-40005D01*
X60249Y-40005D02*
X62215Y-40005D01*
X62985Y-39925D02*
X68675Y-39925D01*
X60169Y-39925D02*
X62215Y-39925D01*
X62985Y-39845D02*
X68675Y-39845D01*
X60089Y-39845D02*
X62215Y-39845D01*
X62985Y-39765D02*
X68675Y-39765D01*
X60009Y-39765D02*
X62215Y-39765D01*
X62985Y-39685D02*
X68675Y-39685D01*
X61233Y-39685D02*
X62215Y-39685D01*
X60753Y-39685D02*
X60947Y-39685D01*
X59929Y-39685D02*
X60466Y-39685D01*
X62985Y-39605D02*
X68675Y-39605D01*
X61347Y-39605D02*
X62215Y-39605D01*
X60800Y-39605D02*
X60900Y-39605D01*
X59849Y-39605D02*
X60353Y-39605D01*
X62985Y-39525D02*
X68675Y-39525D01*
X61388Y-39525D02*
X62215Y-39525D01*
X60800Y-39525D02*
X60900Y-39525D01*
X59769Y-39525D02*
X60311Y-39525D01*
X62985Y-39445D02*
X68675Y-39445D01*
X61399Y-39445D02*
X62215Y-39445D01*
X60800Y-39445D02*
X60900Y-39445D01*
X59689Y-39445D02*
X60300Y-39445D01*
X62985Y-39365D02*
X68675Y-39365D01*
X61399Y-39365D02*
X62215Y-39365D01*
X60800Y-39365D02*
X60900Y-39365D01*
X59609Y-39365D02*
X60300Y-39365D01*
X62985Y-39285D02*
X68675Y-39285D01*
X61399Y-39285D02*
X62215Y-39285D01*
X60800Y-39285D02*
X60900Y-39285D01*
X59529Y-39285D02*
X60300Y-39285D01*
X62985Y-39205D02*
X68675Y-39205D01*
X61343Y-39205D02*
X62215Y-39205D01*
X60800Y-39205D02*
X60900Y-39205D01*
X59449Y-39205D02*
X60357Y-39205D01*
X62985Y-39125D02*
X68675Y-39125D01*
X59369Y-39125D02*
X62215Y-39125D01*
X62985Y-39045D02*
X68675Y-39045D01*
X61393Y-39045D02*
X62215Y-39045D01*
X59289Y-39045D02*
X60307Y-39045D01*
X62985Y-38965D02*
X68675Y-38965D01*
X61400Y-38965D02*
X62215Y-38965D01*
X59209Y-38965D02*
X60301Y-38965D01*
X62985Y-38885D02*
X68675Y-38885D01*
X61400Y-38885D02*
X62215Y-38885D01*
X59129Y-38885D02*
X60301Y-38885D01*
X62985Y-38805D02*
X68675Y-38805D01*
X61400Y-38805D02*
X62215Y-38805D01*
X59049Y-38805D02*
X60301Y-38805D01*
X62985Y-38725D02*
X68675Y-38725D01*
X61368Y-38725D02*
X62215Y-38725D01*
X58969Y-38725D02*
X60333Y-38725D01*
X62985Y-38645D02*
X68675Y-38645D01*
X61297Y-38645D02*
X62215Y-38645D01*
X58889Y-38645D02*
X60403Y-38645D01*
X62985Y-38565D02*
X68675Y-38565D01*
X61281Y-38565D02*
X62215Y-38565D01*
X58809Y-38565D02*
X60417Y-38565D01*
X62985Y-38485D02*
X68675Y-38485D01*
X61359Y-38485D02*
X62215Y-38485D01*
X62985Y-38405D02*
X68675Y-38405D01*
X61392Y-38405D02*
X62215Y-38405D01*
X62985Y-38325D02*
X68675Y-38325D01*
X61425Y-38325D02*
X62215Y-38325D01*
X62985Y-38245D02*
X68675Y-38245D01*
X61449Y-38245D02*
X62215Y-38245D01*
X62985Y-38165D02*
X68675Y-38165D01*
X61449Y-38165D02*
X62215Y-38165D01*
X62985Y-38085D02*
X68675Y-38085D01*
X61449Y-38085D02*
X62215Y-38085D01*
X62985Y-38005D02*
X68675Y-38005D01*
X61439Y-38005D02*
X62215Y-38005D01*
X62985Y-37925D02*
X68675Y-37925D01*
X61406Y-37925D02*
X62215Y-37925D01*
X62985Y-37845D02*
X68675Y-37845D01*
X61373Y-37845D02*
X62215Y-37845D01*
X62985Y-37765D02*
X68675Y-37765D01*
X61313Y-37765D02*
X62215Y-37765D01*
X62985Y-37685D02*
X68675Y-37685D01*
X61233Y-37685D02*
X62215Y-37685D01*
X62985Y-37605D02*
X68675Y-37605D01*
X61241Y-37605D02*
X62215Y-37605D01*
X62985Y-37525D02*
X68675Y-37525D01*
X61321Y-37525D02*
X62215Y-37525D01*
X62985Y-37445D02*
X68675Y-37445D01*
X61376Y-37445D02*
X62215Y-37445D01*
X62985Y-37365D02*
X68675Y-37365D01*
X61409Y-37365D02*
X62215Y-37365D01*
X62985Y-37285D02*
X68675Y-37285D01*
X61442Y-37285D02*
X62215Y-37285D01*
X62985Y-37205D02*
X68675Y-37205D01*
X61449Y-37205D02*
X62215Y-37205D01*
X62985Y-37125D02*
X68675Y-37125D01*
X61449Y-37125D02*
X62215Y-37125D01*
X62985Y-37045D02*
X68675Y-37045D01*
X61449Y-37045D02*
X62215Y-37045D01*
X62985Y-36965D02*
X68675Y-36965D01*
X61422Y-36965D02*
X62215Y-36965D01*
X62985Y-36885D02*
X68675Y-36885D01*
X61389Y-36885D02*
X62215Y-36885D01*
X62985Y-36805D02*
X68675Y-36805D01*
X61353Y-36805D02*
X62215Y-36805D01*
X62985Y-36725D02*
X68675Y-36725D01*
X61273Y-36725D02*
X62215Y-36725D01*
X60269Y-36725D02*
X60428Y-36725D01*
X62985Y-36645D02*
X68675Y-36645D01*
X61201Y-36645D02*
X62215Y-36645D01*
X60189Y-36645D02*
X60497Y-36645D01*
X62985Y-36565D02*
X68675Y-36565D01*
X61281Y-36565D02*
X62215Y-36565D01*
X60109Y-36565D02*
X60417Y-36565D01*
X62985Y-36485D02*
X68675Y-36485D01*
X61359Y-36485D02*
X62215Y-36485D01*
X60029Y-36485D02*
X60340Y-36485D01*
X62985Y-36405D02*
X68675Y-36405D01*
X61392Y-36405D02*
X62215Y-36405D01*
X59949Y-36405D02*
X60307Y-36405D01*
X62985Y-36325D02*
X68675Y-36325D01*
X61425Y-36325D02*
X62215Y-36325D01*
X59868Y-36325D02*
X60274Y-36325D01*
X62985Y-36245D02*
X68675Y-36245D01*
X61449Y-36245D02*
X62215Y-36245D01*
X59799Y-36245D02*
X60251Y-36245D01*
X62985Y-36165D02*
X68675Y-36165D01*
X61449Y-36165D02*
X62215Y-36165D01*
X59799Y-36165D02*
X60251Y-36165D01*
X62985Y-36085D02*
X68675Y-36085D01*
X61449Y-36085D02*
X62215Y-36085D01*
X59799Y-36085D02*
X60251Y-36085D01*
X62985Y-36005D02*
X68675Y-36005D01*
X61439Y-36005D02*
X62215Y-36005D01*
X59799Y-36005D02*
X60262Y-36005D01*
X62985Y-35925D02*
X68675Y-35925D01*
X61406Y-35925D02*
X62215Y-35925D01*
X59799Y-35925D02*
X60295Y-35925D01*
X62985Y-35845D02*
X68675Y-35845D01*
X61373Y-35845D02*
X62215Y-35845D01*
X59799Y-35845D02*
X60328Y-35845D01*
X62985Y-35765D02*
X68675Y-35765D01*
X61313Y-35765D02*
X62215Y-35765D01*
X59799Y-35765D02*
X60388Y-35765D01*
X62985Y-35685D02*
X68675Y-35685D01*
X61233Y-35685D02*
X62215Y-35685D01*
X59777Y-35685D02*
X60468Y-35685D01*
X62985Y-35605D02*
X68675Y-35605D01*
X61241Y-35605D02*
X62215Y-35605D01*
X59728Y-35605D02*
X60458Y-35605D01*
X62985Y-35525D02*
X68675Y-35525D01*
X61321Y-35525D02*
X62215Y-35525D01*
X59618Y-35525D02*
X60378Y-35525D01*
X62985Y-35445D02*
X68675Y-35445D01*
X61376Y-35445D02*
X62215Y-35445D01*
X59046Y-35445D02*
X60323Y-35445D01*
X62985Y-35365D02*
X68675Y-35365D01*
X61409Y-35365D02*
X62215Y-35365D01*
X59079Y-35365D02*
X60290Y-35365D01*
X62985Y-35285D02*
X68675Y-35285D01*
X61442Y-35285D02*
X62215Y-35285D01*
X59112Y-35285D02*
X60257Y-35285D01*
X62985Y-35205D02*
X68675Y-35205D01*
X61449Y-35205D02*
X62215Y-35205D01*
X59125Y-35205D02*
X60251Y-35205D01*
X62985Y-35125D02*
X68675Y-35125D01*
X61449Y-35125D02*
X62215Y-35125D01*
X59125Y-35125D02*
X60251Y-35125D01*
X62985Y-35045D02*
X68675Y-35045D01*
X61449Y-35045D02*
X62215Y-35045D01*
X59125Y-35045D02*
X60251Y-35045D01*
X56649Y-35045D02*
X56710Y-35045D01*
X62985Y-34965D02*
X68675Y-34965D01*
X61422Y-34965D02*
X62215Y-34965D01*
X59092Y-34965D02*
X60279Y-34965D01*
X56649Y-34965D02*
X56790Y-34965D01*
X62985Y-34885D02*
X68675Y-34885D01*
X61389Y-34885D02*
X62215Y-34885D01*
X59059Y-34885D02*
X60312Y-34885D01*
X56649Y-34885D02*
X56870Y-34885D01*
X62985Y-34805D02*
X68675Y-34805D01*
X61352Y-34805D02*
X62215Y-34805D01*
X58998Y-34805D02*
X60348Y-34805D01*
X56649Y-34805D02*
X56987Y-34805D01*
X62985Y-34725D02*
X68675Y-34725D01*
X61272Y-34725D02*
X62215Y-34725D01*
X58918Y-34725D02*
X60428Y-34725D01*
X56633Y-34725D02*
X58283Y-34725D01*
X62985Y-34645D02*
X68675Y-34645D01*
X61192Y-34645D02*
X62215Y-34645D01*
X58754Y-34645D02*
X60508Y-34645D01*
X56593Y-34645D02*
X58448Y-34645D01*
X62985Y-34565D02*
X68675Y-34565D01*
X61003Y-34565D02*
X62215Y-34565D01*
X58433Y-34565D02*
X60698Y-34565D01*
X62985Y-34485D02*
X68675Y-34485D01*
X58507Y-34485D02*
X62215Y-34485D01*
X62985Y-34405D02*
X68675Y-34405D01*
X58540Y-34405D02*
X62215Y-34405D01*
X62985Y-34325D02*
X68675Y-34325D01*
X58549Y-34325D02*
X62215Y-34325D01*
X62985Y-34245D02*
X68675Y-34245D01*
X58549Y-34245D02*
X62215Y-34245D01*
X62985Y-34165D02*
X68675Y-34165D01*
X58978Y-34165D02*
X62215Y-34165D01*
X58549Y-34165D02*
X58720Y-34165D01*
X62985Y-34085D02*
X68675Y-34085D01*
X59157Y-34085D02*
X62215Y-34085D01*
X62985Y-34005D02*
X68675Y-34005D01*
X59237Y-34005D02*
X62215Y-34005D01*
X62985Y-33925D02*
X68675Y-33925D01*
X59304Y-33925D02*
X62215Y-33925D01*
X62985Y-33845D02*
X68675Y-33845D01*
X59337Y-33845D02*
X62215Y-33845D01*
X62985Y-33765D02*
X68675Y-33765D01*
X59370Y-33765D02*
X62215Y-33765D01*
X62985Y-33685D02*
X68675Y-33685D01*
X59375Y-33685D02*
X62215Y-33685D01*
X62985Y-33605D02*
X68675Y-33605D01*
X59375Y-33605D02*
X62215Y-33605D01*
X64016Y-33525D02*
X68675Y-33525D01*
X62985Y-33525D02*
X63582Y-33525D01*
X59367Y-33525D02*
X62215Y-33525D01*
X64210Y-33445D02*
X68675Y-33445D01*
X62985Y-33445D02*
X63390Y-33445D01*
X59334Y-33445D02*
X62215Y-33445D01*
X64315Y-33365D02*
X68675Y-33365D01*
X62985Y-33365D02*
X63285Y-33365D01*
X59320Y-33365D02*
X62215Y-33365D01*
X64395Y-33285D02*
X68675Y-33285D01*
X62985Y-33285D02*
X63205Y-33285D01*
X59320Y-33285D02*
X62215Y-33285D01*
X64475Y-33205D02*
X68675Y-33205D01*
X62985Y-33205D02*
X63125Y-33205D01*
X59320Y-33205D02*
X62215Y-33205D01*
X64509Y-33125D02*
X68675Y-33125D01*
X62985Y-33125D02*
X63090Y-33125D01*
X59320Y-33125D02*
X62215Y-33125D01*
X64542Y-33045D02*
X68675Y-33045D01*
X62985Y-33045D02*
X63057Y-33045D01*
X59320Y-33045D02*
X62215Y-33045D01*
X64576Y-32965D02*
X68675Y-32965D01*
X62985Y-32965D02*
X63024Y-32965D01*
X59320Y-32965D02*
X62215Y-32965D01*
X64599Y-32885D02*
X68675Y-32885D01*
X62985Y-32885D02*
X63001Y-32885D01*
X59320Y-32885D02*
X62215Y-32885D01*
X64599Y-32805D02*
X68675Y-32805D01*
X62985Y-32805D02*
X63001Y-32805D01*
X59320Y-32805D02*
X62215Y-32805D01*
X64599Y-32725D02*
X68675Y-32725D01*
X62985Y-32725D02*
X63001Y-32725D01*
X59320Y-32725D02*
X62215Y-32725D01*
X64599Y-32645D02*
X68675Y-32645D01*
X62985Y-32645D02*
X63001Y-32645D01*
X59320Y-32645D02*
X62215Y-32645D01*
X64588Y-32565D02*
X68675Y-32565D01*
X62985Y-32565D02*
X63012Y-32565D01*
X59320Y-32565D02*
X62215Y-32565D01*
X64555Y-32485D02*
X68675Y-32485D01*
X62985Y-32485D02*
X63045Y-32485D01*
X59320Y-32485D02*
X62215Y-32485D01*
X64523Y-32405D02*
X68675Y-32405D01*
X62985Y-32405D02*
X63079Y-32405D01*
X59320Y-32405D02*
X62215Y-32405D01*
X64490Y-32325D02*
X68675Y-32325D01*
X62985Y-32325D02*
X63112Y-32325D01*
X59320Y-32325D02*
X62215Y-32325D01*
X64425Y-32245D02*
X68675Y-32245D01*
X62985Y-32245D02*
X63175Y-32245D01*
X59320Y-32245D02*
X62215Y-32245D01*
X64345Y-32165D02*
X68675Y-32165D01*
X62985Y-32165D02*
X63255Y-32165D01*
X59320Y-32165D02*
X62215Y-32165D01*
X64265Y-32085D02*
X68675Y-32085D01*
X62985Y-32085D02*
X63335Y-32085D01*
X59320Y-32085D02*
X62215Y-32085D01*
X64090Y-32005D02*
X68675Y-32005D01*
X62985Y-32005D02*
X63511Y-32005D01*
X59320Y-32005D02*
X62215Y-32005D01*
X62985Y-31925D02*
X68675Y-31925D01*
X61327Y-31925D02*
X62215Y-31925D01*
X60800Y-31925D02*
X60900Y-31925D01*
X59320Y-31925D02*
X60373Y-31925D01*
X62985Y-31845D02*
X68675Y-31845D01*
X61380Y-31845D02*
X62215Y-31845D01*
X60800Y-31845D02*
X60900Y-31845D01*
X59320Y-31845D02*
X60320Y-31845D01*
X62985Y-31765D02*
X68675Y-31765D01*
X61399Y-31765D02*
X62215Y-31765D01*
X60800Y-31765D02*
X60900Y-31765D01*
X60148Y-31765D02*
X60300Y-31765D01*
X59320Y-31765D02*
X59650Y-31765D01*
X62985Y-31685D02*
X68675Y-31685D01*
X61399Y-31685D02*
X62215Y-31685D01*
X60800Y-31685D02*
X60900Y-31685D01*
X60257Y-31685D02*
X60300Y-31685D01*
X59320Y-31685D02*
X59542Y-31685D01*
X62985Y-31605D02*
X68675Y-31605D01*
X61399Y-31605D02*
X62215Y-31605D01*
X60800Y-31605D02*
X60900Y-31605D01*
X59320Y-31605D02*
X59462Y-31605D01*
X62985Y-31525D02*
X68675Y-31525D01*
X61363Y-31525D02*
X62215Y-31525D01*
X60800Y-31525D02*
X60900Y-31525D01*
X59320Y-31525D02*
X59425Y-31525D01*
X62985Y-31445D02*
X68675Y-31445D01*
X60800Y-31445D02*
X62215Y-31445D01*
X59368Y-31445D02*
X59392Y-31445D01*
X62985Y-31365D02*
X68675Y-31365D01*
X61373Y-31365D02*
X62215Y-31365D01*
X62985Y-31285D02*
X68675Y-31285D01*
X62985Y-31205D02*
X68675Y-31205D01*
X62985Y-31125D02*
X68675Y-31125D01*
X62975Y-31045D02*
X68675Y-31045D01*
X62959Y-30965D02*
X68675Y-30965D01*
X62911Y-30885D02*
X68675Y-30885D01*
X62849Y-30805D02*
X68675Y-30805D01*
X62769Y-30725D02*
X68675Y-30725D01*
X62674Y-30645D02*
X68675Y-30645D01*
X62450Y-30565D02*
X68675Y-30565D01*
X61449Y-30485D02*
X68675Y-30485D01*
X61449Y-30405D02*
X68675Y-30405D01*
X61447Y-30325D02*
X68675Y-30325D01*
X61414Y-30245D02*
X68675Y-30245D01*
X61381Y-30165D02*
X68675Y-30165D01*
X61332Y-30085D02*
X68675Y-30085D01*
X61252Y-30005D02*
X68675Y-30005D01*
X61222Y-29925D02*
X68675Y-29925D01*
X61302Y-29845D02*
X68675Y-29845D01*
X61367Y-29765D02*
X68675Y-29765D01*
X61401Y-29685D02*
X68675Y-29685D01*
X61434Y-29605D02*
X68675Y-29605D01*
X61449Y-29525D02*
X68675Y-29525D01*
X61449Y-29445D02*
X68675Y-29445D01*
X61449Y-29365D02*
X68675Y-29365D01*
X61430Y-29285D02*
X68675Y-29285D01*
X61397Y-29205D02*
X68675Y-29205D01*
X61364Y-29125D02*
X68675Y-29125D01*
X61293Y-29045D02*
X68675Y-29045D01*
X61213Y-28965D02*
X68675Y-28965D01*
X61324Y-28885D02*
X68675Y-28885D01*
X61447Y-28805D02*
X68675Y-28805D01*
X61539Y-28725D02*
X68675Y-28725D01*
X61619Y-28645D02*
X68675Y-28645D01*
X61699Y-28565D02*
X68675Y-28565D01*
X61779Y-28485D02*
X68675Y-28485D01*
X61859Y-28405D02*
X68675Y-28405D01*
X61939Y-28325D02*
X68675Y-28325D01*
X62019Y-28245D02*
X68675Y-28245D01*
X62099Y-28165D02*
X68675Y-28165D01*
X62179Y-28085D02*
X68675Y-28085D01*
X62250Y-28005D02*
X68675Y-28005D01*
X62304Y-27925D02*
X68675Y-27925D01*
X62341Y-27845D02*
X68675Y-27845D01*
X62357Y-27765D02*
X68675Y-27765D01*
X62370Y-27685D02*
X68675Y-27685D01*
X62370Y-27605D02*
X68675Y-27605D01*
X62370Y-27525D02*
X68675Y-27525D01*
X62370Y-27445D02*
X68675Y-27445D01*
X62370Y-27365D02*
X68675Y-27365D01*
X62370Y-27285D02*
X68675Y-27285D01*
X62370Y-27205D02*
X68675Y-27205D01*
X62370Y-27125D02*
X68675Y-27125D01*
X62370Y-27045D02*
X68675Y-27045D01*
X62370Y-26965D02*
X68675Y-26965D01*
X62370Y-26885D02*
X68675Y-26885D01*
X62383Y-26805D02*
X68675Y-26805D01*
X62416Y-26725D02*
X68675Y-26725D01*
X62425Y-26645D02*
X68675Y-26645D01*
X62425Y-26565D02*
X68675Y-26565D01*
X62421Y-26485D02*
X68675Y-26485D01*
X62388Y-26405D02*
X68675Y-26405D01*
X62354Y-26325D02*
X68675Y-26325D01*
X68675Y-54675D02*
X68675Y-26325D01*
X68675Y-26325D02*
X62354Y-26325D01*
X62354Y-26325D02*
X62425Y-26496D01*
X62425Y-26496D02*
X62425Y-26705D01*
X62425Y-26705D02*
X62370Y-26837D01*
X62370Y-26837D02*
X62370Y-27700D01*
X62370Y-27700D02*
X62334Y-27880D01*
X62334Y-27880D02*
X62232Y-28033D01*
X62232Y-28033D02*
X61482Y-28782D01*
X61482Y-28782D02*
X61330Y-28884D01*
X61330Y-28884D02*
X61246Y-28900D01*
X61246Y-28900D02*
X61197Y-28949D01*
X61197Y-28949D02*
X61358Y-29111D01*
X61358Y-29111D02*
X61449Y-29331D01*
X61449Y-29331D02*
X61449Y-29569D01*
X61449Y-29569D02*
X61358Y-29789D01*
X61358Y-29789D02*
X61197Y-29950D01*
X61197Y-29950D02*
X61358Y-30111D01*
X61358Y-30111D02*
X61449Y-30331D01*
X61449Y-30331D02*
X61449Y-30565D01*
X61449Y-30565D02*
X62450Y-30565D01*
X62450Y-30565D02*
X62598Y-30594D01*
X62598Y-30594D02*
X62722Y-30678D01*
X62722Y-30678D02*
X62872Y-30828D01*
X62872Y-30828D02*
X62956Y-30952D01*
X62956Y-30952D02*
X62985Y-31100D01*
X62985Y-31100D02*
X62985Y-40392D01*
X62985Y-40392D02*
X63045Y-40453D01*
X63045Y-40453D02*
X63125Y-40646D01*
X63125Y-40646D02*
X63125Y-40855D01*
X63125Y-40855D02*
X63045Y-41048D01*
X63045Y-41048D02*
X62897Y-41195D01*
X62897Y-41195D02*
X62704Y-41275D01*
X62704Y-41275D02*
X62495Y-41275D01*
X62495Y-41275D02*
X62302Y-41195D01*
X62302Y-41195D02*
X62155Y-41047D01*
X62155Y-41047D02*
X62075Y-40854D01*
X62075Y-40854D02*
X62075Y-40645D01*
X62075Y-40645D02*
X62155Y-40452D01*
X62155Y-40452D02*
X62215Y-40392D01*
X62215Y-40392D02*
X62215Y-31335D01*
X62215Y-31335D02*
X61399Y-31335D01*
X61399Y-31335D02*
X61400Y-31338D01*
X61400Y-31338D02*
X61338Y-31400D01*
X61338Y-31400D02*
X60900Y-31400D01*
X60900Y-31400D02*
X60800Y-31400D01*
X60800Y-31400D02*
X60800Y-31500D01*
X60800Y-31500D02*
X60800Y-31938D01*
X60800Y-31938D02*
X60738Y-32000D01*
X60738Y-32000D02*
X60500Y-31999D01*
X60500Y-31999D02*
X60409Y-31961D01*
X60409Y-31961D02*
X60339Y-31891D01*
X60339Y-31891D02*
X60301Y-31799D01*
X60301Y-31799D02*
X60300Y-31642D01*
X60300Y-31642D02*
X60197Y-31745D01*
X60197Y-31745D02*
X60004Y-31825D01*
X60004Y-31825D02*
X59795Y-31825D01*
X59795Y-31825D02*
X59602Y-31745D01*
X59602Y-31745D02*
X59455Y-31597D01*
X59455Y-31597D02*
X59385Y-31428D01*
X59385Y-31428D02*
X59320Y-31494D01*
X59320Y-31494D02*
X59320Y-33413D01*
X59320Y-33413D02*
X59375Y-33546D01*
X59375Y-33546D02*
X59375Y-33755D01*
X59375Y-33755D02*
X59295Y-33948D01*
X59295Y-33948D02*
X59147Y-34095D01*
X59147Y-34095D02*
X58954Y-34175D01*
X58954Y-34175D02*
X58745Y-34175D01*
X58745Y-34175D02*
X58552Y-34095D01*
X58552Y-34095D02*
X58549Y-34091D01*
X58549Y-34091D02*
X58549Y-34385D01*
X58549Y-34385D02*
X58503Y-34495D01*
X58503Y-34495D02*
X58419Y-34579D01*
X58419Y-34579D02*
X58309Y-34624D01*
X58309Y-34624D02*
X57990Y-34624D01*
X57990Y-34624D02*
X57900Y-34586D01*
X57900Y-34586D02*
X57809Y-34624D01*
X57809Y-34624D02*
X57490Y-34624D01*
X57490Y-34624D02*
X57400Y-34586D01*
X57400Y-34586D02*
X57309Y-34624D01*
X57309Y-34624D02*
X56990Y-34624D01*
X56990Y-34624D02*
X56900Y-34586D01*
X56900Y-34586D02*
X56809Y-34624D01*
X56809Y-34624D02*
X56572Y-34624D01*
X56572Y-34624D02*
X56604Y-34656D01*
X56604Y-34656D02*
X56649Y-34766D01*
X56649Y-34766D02*
X56649Y-35106D01*
X56649Y-35106D02*
X56876Y-34878D01*
X56876Y-34878D02*
X57003Y-34794D01*
X57003Y-34794D02*
X57150Y-34765D01*
X57150Y-34765D02*
X58242Y-34765D01*
X58242Y-34765D02*
X58303Y-34705D01*
X58303Y-34705D02*
X58496Y-34625D01*
X58496Y-34625D02*
X58705Y-34625D01*
X58705Y-34625D02*
X58898Y-34705D01*
X58898Y-34705D02*
X59045Y-34853D01*
X59045Y-34853D02*
X59125Y-35046D01*
X59125Y-35046D02*
X59125Y-35255D01*
X59125Y-35255D02*
X59045Y-35448D01*
X59045Y-35448D02*
X58991Y-35501D01*
X58991Y-35501D02*
X59560Y-35501D01*
X59560Y-35501D02*
X59670Y-35547D01*
X59670Y-35547D02*
X59754Y-35631D01*
X59754Y-35631D02*
X59799Y-35741D01*
X59799Y-35741D02*
X59799Y-36278D01*
X59799Y-36278D02*
X59872Y-36328D01*
X59872Y-36328D02*
X60309Y-36765D01*
X60309Y-36765D02*
X60388Y-36765D01*
X60388Y-36765D02*
X60502Y-36650D01*
X60502Y-36650D02*
X60342Y-36489D01*
X60342Y-36489D02*
X60251Y-36269D01*
X60251Y-36269D02*
X60251Y-36031D01*
X60251Y-36031D02*
X60342Y-35811D01*
X60342Y-35811D02*
X60503Y-35650D01*
X60503Y-35650D02*
X60342Y-35489D01*
X60342Y-35489D02*
X60251Y-35269D01*
X60251Y-35269D02*
X60251Y-35031D01*
X60251Y-35031D02*
X60342Y-34811D01*
X60342Y-34811D02*
X60511Y-34642D01*
X60511Y-34642D02*
X60731Y-34551D01*
X60731Y-34551D02*
X60962Y-34551D01*
X60962Y-34551D02*
X60962Y-32000D01*
X60962Y-32000D02*
X60900Y-31938D01*
X60900Y-31938D02*
X60900Y-31500D01*
X60900Y-31500D02*
X61338Y-31500D01*
X61338Y-31500D02*
X61400Y-31562D01*
X61400Y-31562D02*
X61399Y-31799D01*
X61399Y-31799D02*
X61361Y-31891D01*
X61361Y-31891D02*
X61291Y-31961D01*
X61291Y-31961D02*
X61200Y-31999D01*
X61200Y-31999D02*
X60962Y-32000D01*
X60962Y-32000D02*
X60962Y-34551D01*
X60962Y-34551D02*
X60969Y-34551D01*
X60969Y-34551D02*
X61189Y-34642D01*
X61189Y-34642D02*
X61358Y-34811D01*
X61358Y-34811D02*
X61449Y-35031D01*
X61449Y-35031D02*
X61449Y-35269D01*
X61449Y-35269D02*
X61358Y-35489D01*
X61358Y-35489D02*
X61197Y-35649D01*
X61197Y-35649D02*
X61358Y-35811D01*
X61358Y-35811D02*
X61449Y-36031D01*
X61449Y-36031D02*
X61449Y-36269D01*
X61449Y-36269D02*
X61358Y-36489D01*
X61358Y-36489D02*
X61197Y-36649D01*
X61197Y-36649D02*
X61358Y-36811D01*
X61358Y-36811D02*
X61449Y-37031D01*
X61449Y-37031D02*
X61449Y-37269D01*
X61449Y-37269D02*
X61358Y-37489D01*
X61358Y-37489D02*
X61197Y-37649D01*
X61197Y-37649D02*
X61358Y-37811D01*
X61358Y-37811D02*
X61449Y-38031D01*
X61449Y-38031D02*
X61449Y-38269D01*
X61449Y-38269D02*
X61358Y-38489D01*
X61358Y-38489D02*
X61232Y-38614D01*
X61232Y-38614D02*
X61291Y-38639D01*
X61291Y-38639D02*
X61361Y-38709D01*
X61361Y-38709D02*
X61399Y-38801D01*
X61399Y-38801D02*
X61400Y-39038D01*
X61400Y-39038D02*
X61338Y-39100D01*
X61338Y-39100D02*
X60900Y-39100D01*
X60900Y-39100D02*
X60800Y-39100D01*
X60800Y-39100D02*
X60362Y-39100D01*
X60362Y-39100D02*
X60300Y-39038D01*
X60300Y-39038D02*
X60301Y-38801D01*
X60301Y-38801D02*
X60339Y-38709D01*
X60339Y-38709D02*
X60409Y-38639D01*
X60409Y-38639D02*
X60467Y-38614D01*
X60467Y-38614D02*
X60387Y-38535D01*
X60387Y-38535D02*
X58779Y-38535D01*
X58779Y-38535D02*
X60738Y-40494D01*
X60738Y-40494D02*
X60738Y-39700D01*
X60738Y-39700D02*
X60500Y-39699D01*
X60500Y-39699D02*
X60409Y-39661D01*
X60409Y-39661D02*
X60339Y-39591D01*
X60339Y-39591D02*
X60301Y-39499D01*
X60301Y-39499D02*
X60300Y-39262D01*
X60300Y-39262D02*
X60362Y-39200D01*
X60362Y-39200D02*
X60800Y-39200D01*
X60800Y-39200D02*
X60800Y-39638D01*
X60800Y-39638D02*
X60738Y-39700D01*
X60738Y-39700D02*
X60738Y-40494D01*
X60738Y-40494D02*
X60962Y-40717D01*
X60962Y-40717D02*
X60962Y-39700D01*
X60962Y-39700D02*
X60900Y-39638D01*
X60900Y-39638D02*
X60900Y-39200D01*
X60900Y-39200D02*
X61338Y-39200D01*
X61338Y-39200D02*
X61400Y-39262D01*
X61400Y-39262D02*
X61399Y-39499D01*
X61399Y-39499D02*
X61361Y-39591D01*
X61361Y-39591D02*
X61291Y-39661D01*
X61291Y-39661D02*
X61200Y-39699D01*
X61200Y-39699D02*
X60962Y-39700D01*
X60962Y-39700D02*
X60962Y-40717D01*
X60962Y-40717D02*
X62559Y-42315D01*
X62559Y-42315D02*
X63640Y-42315D01*
X63640Y-42315D02*
X63640Y-33549D01*
X63640Y-33549D02*
X63347Y-33427D01*
X63347Y-33427D02*
X63122Y-33202D01*
X63122Y-33202D02*
X63001Y-32908D01*
X63001Y-32908D02*
X63001Y-32590D01*
X63001Y-32590D02*
X63123Y-32297D01*
X63123Y-32297D02*
X63348Y-32072D01*
X63348Y-32072D02*
X63642Y-31951D01*
X63642Y-31951D02*
X63960Y-31951D01*
X63960Y-31951D02*
X64253Y-32073D01*
X64253Y-32073D02*
X64478Y-32298D01*
X64478Y-32298D02*
X64599Y-32592D01*
X64599Y-32592D02*
X64599Y-32910D01*
X64599Y-32910D02*
X64477Y-33203D01*
X64477Y-33203D02*
X64252Y-33428D01*
X64252Y-33428D02*
X63958Y-33549D01*
X63958Y-33549D02*
X63640Y-33549D01*
X63640Y-33549D02*
X63640Y-42315D01*
X63640Y-42315D02*
X64142Y-42315D01*
X64142Y-42315D02*
X64203Y-42255D01*
X64203Y-42255D02*
X64396Y-42175D01*
X64396Y-42175D02*
X64605Y-42175D01*
X64605Y-42175D02*
X64798Y-42255D01*
X64798Y-42255D02*
X64945Y-42403D01*
X64945Y-42403D02*
X65025Y-42596D01*
X65025Y-42596D02*
X65025Y-42805D01*
X65025Y-42805D02*
X64945Y-42998D01*
X64945Y-42998D02*
X64827Y-43115D01*
X64827Y-43115D02*
X65950Y-43115D01*
X65950Y-43115D02*
X66098Y-43144D01*
X66098Y-43144D02*
X66222Y-43228D01*
X66222Y-43228D02*
X68122Y-45128D01*
X68122Y-45128D02*
X68206Y-45252D01*
X68206Y-45252D02*
X68235Y-45400D01*
X68235Y-45400D02*
X68235Y-52542D01*
X68235Y-52542D02*
X68295Y-52603D01*
X68295Y-52603D02*
X68375Y-52796D01*
X68375Y-52796D02*
X68375Y-53005D01*
X68375Y-53005D02*
X68295Y-53198D01*
X68295Y-53198D02*
X68235Y-53257D01*
X68235Y-53257D02*
X68235Y-53542D01*
X68235Y-53542D02*
X68295Y-53603D01*
X68295Y-53603D02*
X68375Y-53796D01*
X68375Y-53796D02*
X68375Y-54005D01*
X68375Y-54005D02*
X68295Y-54198D01*
X68295Y-54198D02*
X68147Y-54345D01*
X68147Y-54345D02*
X67954Y-54425D01*
X67954Y-54425D02*
X67745Y-54425D01*
X67745Y-54425D02*
X67575Y-54354D01*
X67575Y-54354D02*
X67575Y-54405D01*
X67575Y-54405D02*
X67495Y-54598D01*
X67495Y-54598D02*
X67417Y-54675D01*
X67417Y-54675D02*
X68675Y-54675D01*
X51231Y-54675D02*
X50304Y-53749D01*
X50304Y-53749D02*
X50281Y-53749D01*
X50281Y-53749D02*
X50061Y-53658D01*
X50061Y-53658D02*
X49900Y-53497D01*
X49900Y-53497D02*
X49739Y-53658D01*
X49739Y-53658D02*
X49519Y-53749D01*
X49519Y-53749D02*
X49281Y-53749D01*
X49281Y-53749D02*
X49061Y-53658D01*
X49061Y-53658D02*
X48973Y-53570D01*
X48973Y-53570D02*
X48953Y-53620D01*
X48953Y-53620D02*
X48869Y-53704D01*
X48869Y-53704D02*
X48759Y-53749D01*
X48759Y-53749D02*
X48040Y-53749D01*
X48040Y-53749D02*
X47930Y-53703D01*
X47930Y-53703D02*
X47846Y-53619D01*
X47846Y-53619D02*
X47801Y-53509D01*
X47801Y-53509D02*
X47801Y-52985D01*
X47801Y-52985D02*
X47459Y-52984D01*
X47459Y-52984D02*
X47438Y-53006D01*
X47438Y-53006D02*
X47449Y-53031D01*
X47449Y-53031D02*
X47449Y-53269D01*
X47449Y-53269D02*
X47358Y-53489D01*
X47358Y-53489D02*
X47189Y-53658D01*
X47189Y-53658D02*
X46969Y-53749D01*
X46969Y-53749D02*
X46731Y-53749D01*
X46731Y-53749D02*
X46511Y-53658D01*
X46511Y-53658D02*
X46350Y-53497D01*
X46350Y-53497D02*
X46189Y-53658D01*
X46189Y-53658D02*
X45969Y-53749D01*
X45969Y-53749D02*
X45731Y-53749D01*
X45731Y-53749D02*
X45511Y-53658D01*
X45511Y-53658D02*
X45423Y-53570D01*
X45423Y-53570D02*
X45403Y-53620D01*
X45403Y-53620D02*
X45319Y-53704D01*
X45319Y-53704D02*
X45209Y-53749D01*
X45209Y-53749D02*
X44490Y-53749D01*
X44490Y-53749D02*
X44380Y-53703D01*
X44380Y-53703D02*
X44296Y-53619D01*
X44296Y-53619D02*
X44251Y-53509D01*
X44251Y-53509D02*
X44251Y-52790D01*
X44251Y-52790D02*
X44273Y-52735D01*
X44273Y-52735D02*
X43532Y-52734D01*
X43532Y-52734D02*
X43608Y-52811D01*
X43608Y-52811D02*
X43699Y-53031D01*
X43699Y-53031D02*
X43699Y-53269D01*
X43699Y-53269D02*
X43608Y-53489D01*
X43608Y-53489D02*
X43439Y-53658D01*
X43439Y-53658D02*
X43219Y-53749D01*
X43219Y-53749D02*
X42981Y-53749D01*
X42981Y-53749D02*
X42761Y-53658D01*
X42761Y-53658D02*
X42599Y-53497D01*
X42599Y-53497D02*
X42439Y-53658D01*
X42439Y-53658D02*
X42219Y-53749D01*
X42219Y-53749D02*
X41981Y-53749D01*
X41981Y-53749D02*
X41761Y-53658D01*
X41761Y-53658D02*
X41673Y-53570D01*
X41673Y-53570D02*
X41653Y-53620D01*
X41653Y-53620D02*
X41569Y-53704D01*
X41569Y-53704D02*
X41459Y-53749D01*
X41459Y-53749D02*
X40740Y-53749D01*
X40740Y-53749D02*
X40630Y-53703D01*
X40630Y-53703D02*
X40546Y-53619D01*
X40546Y-53619D02*
X40501Y-53509D01*
X40501Y-53509D02*
X40501Y-52790D01*
X40501Y-52790D02*
X40547Y-52680D01*
X40547Y-52680D02*
X40631Y-52596D01*
X40631Y-52596D02*
X40741Y-52551D01*
X40741Y-52551D02*
X41460Y-52551D01*
X41460Y-52551D02*
X41570Y-52597D01*
X41570Y-52597D02*
X41654Y-52681D01*
X41654Y-52681D02*
X41673Y-52729D01*
X41673Y-52729D02*
X41761Y-52642D01*
X41761Y-52642D02*
X41981Y-52551D01*
X41981Y-52551D02*
X42219Y-52551D01*
X42219Y-52551D02*
X42439Y-52642D01*
X42439Y-52642D02*
X42599Y-52802D01*
X42599Y-52802D02*
X42761Y-52642D01*
X42761Y-52642D02*
X42981Y-52551D01*
X42981Y-52551D02*
X43056Y-52551D01*
X43056Y-52551D02*
X42828Y-52322D01*
X42828Y-52322D02*
X42744Y-52198D01*
X42744Y-52198D02*
X42715Y-52050D01*
X42715Y-52050D02*
X42715Y-50422D01*
X42715Y-50422D02*
X42599Y-50306D01*
X42599Y-50306D02*
X42439Y-50468D01*
X42439Y-50468D02*
X42219Y-50559D01*
X42219Y-50559D02*
X41981Y-50559D01*
X41981Y-50559D02*
X41761Y-50468D01*
X41761Y-50468D02*
X41673Y-50380D01*
X41673Y-50380D02*
X41653Y-50430D01*
X41653Y-50430D02*
X41569Y-50514D01*
X41569Y-50514D02*
X41459Y-50559D01*
X41459Y-50559D02*
X40740Y-50559D01*
X40740Y-50559D02*
X40630Y-50513D01*
X40630Y-50513D02*
X40546Y-50429D01*
X40546Y-50429D02*
X40501Y-50319D01*
X40501Y-50319D02*
X40501Y-49600D01*
X40501Y-49600D02*
X40547Y-49490D01*
X40547Y-49490D02*
X40631Y-49406D01*
X40631Y-49406D02*
X40741Y-49361D01*
X40741Y-49361D02*
X41460Y-49361D01*
X41460Y-49361D02*
X41570Y-49407D01*
X41570Y-49407D02*
X41654Y-49491D01*
X41654Y-49491D02*
X41673Y-49539D01*
X41673Y-49539D02*
X41761Y-49452D01*
X41761Y-49452D02*
X41981Y-49361D01*
X41981Y-49361D02*
X42219Y-49361D01*
X42219Y-49361D02*
X42439Y-49452D01*
X42439Y-49452D02*
X42599Y-49612D01*
X42599Y-49612D02*
X42761Y-49452D01*
X42761Y-49452D02*
X42981Y-49361D01*
X42981Y-49361D02*
X43219Y-49361D01*
X43219Y-49361D02*
X43439Y-49452D01*
X43439Y-49452D02*
X43608Y-49621D01*
X43608Y-49621D02*
X43699Y-49841D01*
X43699Y-49841D02*
X43699Y-50079D01*
X43699Y-50079D02*
X43608Y-50299D01*
X43608Y-50299D02*
X43485Y-50422D01*
X43485Y-50422D02*
X43485Y-51891D01*
X43485Y-51891D02*
X43559Y-51964D01*
X43559Y-51964D02*
X43775Y-51965D01*
X43775Y-51965D02*
X43775Y-51795D01*
X43775Y-51795D02*
X43855Y-51602D01*
X43855Y-51602D02*
X43915Y-51542D01*
X43915Y-51542D02*
X43915Y-49450D01*
X43915Y-49450D02*
X43944Y-49302D01*
X43944Y-49302D02*
X44028Y-49178D01*
X44028Y-49178D02*
X44630Y-48575D01*
X44630Y-48575D02*
X44445Y-48575D01*
X44445Y-48575D02*
X44252Y-48495D01*
X44252Y-48495D02*
X44105Y-48347D01*
X44105Y-48347D02*
X44025Y-48154D01*
X44025Y-48154D02*
X44025Y-47945D01*
X44025Y-47945D02*
X44080Y-47812D01*
X44080Y-47812D02*
X44080Y-47470D01*
X44080Y-47470D02*
X43536Y-47470D01*
X43536Y-47470D02*
X43404Y-47525D01*
X43404Y-47525D02*
X43195Y-47525D01*
X43195Y-47525D02*
X43002Y-47445D01*
X43002Y-47445D02*
X42855Y-47297D01*
X42855Y-47297D02*
X42800Y-47164D01*
X42800Y-47164D02*
X42758Y-47123D01*
X42758Y-47123D02*
X42849Y-47342D01*
X42849Y-47342D02*
X42849Y-47660D01*
X42849Y-47660D02*
X42727Y-47953D01*
X42727Y-47953D02*
X42502Y-48178D01*
X42502Y-48178D02*
X42208Y-48299D01*
X42208Y-48299D02*
X41890Y-48299D01*
X41890Y-48299D02*
X41597Y-48177D01*
X41597Y-48177D02*
X41372Y-47952D01*
X41372Y-47952D02*
X41251Y-47658D01*
X41251Y-47658D02*
X41251Y-47340D01*
X41251Y-47340D02*
X41373Y-47047D01*
X41373Y-47047D02*
X41598Y-46822D01*
X41598Y-46822D02*
X41800Y-46738D01*
X41800Y-46738D02*
X41800Y-30500D01*
X41800Y-30500D02*
X41433Y-30347D01*
X41433Y-30347D02*
X41152Y-30066D01*
X41152Y-30066D02*
X41000Y-29698D01*
X41000Y-29698D02*
X41000Y-29300D01*
X41000Y-29300D02*
X41153Y-28933D01*
X41153Y-28933D02*
X41434Y-28652D01*
X41434Y-28652D02*
X41802Y-28500D01*
X41802Y-28500D02*
X42200Y-28500D01*
X42200Y-28500D02*
X42567Y-28653D01*
X42567Y-28653D02*
X42848Y-28934D01*
X42848Y-28934D02*
X43000Y-29302D01*
X43000Y-29302D02*
X43000Y-29700D01*
X43000Y-29700D02*
X42847Y-30067D01*
X42847Y-30067D02*
X42566Y-30348D01*
X42566Y-30348D02*
X42198Y-30500D01*
X42198Y-30500D02*
X41800Y-30500D01*
X41800Y-30500D02*
X41800Y-46738D01*
X41800Y-46738D02*
X41892Y-46701D01*
X41892Y-46701D02*
X42210Y-46701D01*
X42210Y-46701D02*
X42503Y-46823D01*
X42503Y-46823D02*
X42603Y-46923D01*
X42603Y-46923D02*
X42591Y-46905D01*
X42591Y-46905D02*
X42555Y-46725D01*
X42555Y-46725D02*
X42555Y-46043D01*
X42555Y-46043D02*
X42551Y-46034D01*
X42551Y-46034D02*
X42551Y-45365D01*
X42551Y-45365D02*
X42580Y-45295D01*
X42580Y-45295D02*
X42580Y-43650D01*
X42580Y-43650D02*
X42616Y-43470D01*
X42616Y-43470D02*
X42718Y-43318D01*
X42718Y-43318D02*
X43317Y-42718D01*
X43317Y-42718D02*
X43470Y-42616D01*
X43470Y-42616D02*
X43650Y-42580D01*
X43650Y-42580D02*
X45130Y-42580D01*
X45130Y-42580D02*
X45130Y-42250D01*
X45130Y-42250D02*
X45166Y-42070D01*
X45166Y-42070D02*
X45268Y-41918D01*
X45268Y-41918D02*
X45599Y-41586D01*
X45599Y-41586D02*
X45655Y-41452D01*
X45655Y-41452D02*
X45715Y-41392D01*
X45715Y-41392D02*
X45715Y-40750D01*
X45715Y-40750D02*
X45744Y-40602D01*
X45744Y-40602D02*
X45828Y-40478D01*
X45828Y-40478D02*
X46352Y-39954D01*
X46352Y-39954D02*
X46065Y-39954D01*
X46065Y-39954D02*
X45955Y-39908D01*
X45955Y-39908D02*
X45871Y-39824D01*
X45871Y-39824D02*
X45826Y-39714D01*
X45826Y-39714D02*
X45826Y-38145D01*
X45826Y-38145D02*
X45872Y-38035D01*
X45872Y-38035D02*
X45925Y-37981D01*
X45925Y-37981D02*
X45875Y-37931D01*
X45875Y-37931D02*
X45876Y-37901D01*
X45876Y-37901D02*
X45914Y-37809D01*
X45914Y-37809D02*
X45984Y-37739D01*
X45984Y-37739D02*
X46075Y-37701D01*
X46075Y-37701D02*
X46288Y-37700D01*
X46288Y-37700D02*
X46350Y-37762D01*
X46350Y-37762D02*
X46350Y-37906D01*
X46350Y-37906D02*
X46450Y-37906D01*
X46450Y-37906D02*
X46450Y-37762D01*
X46450Y-37762D02*
X46512Y-37700D01*
X46512Y-37700D02*
X46725Y-37701D01*
X46725Y-37701D02*
X46816Y-37739D01*
X46816Y-37739D02*
X46886Y-37809D01*
X46886Y-37809D02*
X46924Y-37901D01*
X46924Y-37901D02*
X46925Y-37931D01*
X46925Y-37931D02*
X46874Y-37981D01*
X46874Y-37981D02*
X46929Y-38036D01*
X46929Y-38036D02*
X46974Y-38146D01*
X46974Y-38146D02*
X46974Y-39331D01*
X46974Y-39331D02*
X47007Y-39298D01*
X47007Y-39298D02*
X47133Y-39214D01*
X47133Y-39214D02*
X47280Y-39185D01*
X47280Y-39185D02*
X47315Y-39185D01*
X47315Y-39185D02*
X47315Y-38000D01*
X47315Y-38000D02*
X47344Y-37852D01*
X47344Y-37852D02*
X47428Y-37728D01*
X47428Y-37728D02*
X47704Y-37451D01*
X47704Y-37451D02*
X47699Y-37447D01*
X47699Y-37447D02*
X47539Y-37608D01*
X47539Y-37608D02*
X47319Y-37699D01*
X47319Y-37699D02*
X47081Y-37699D01*
X47081Y-37699D02*
X46861Y-37608D01*
X46861Y-37608D02*
X46692Y-37439D01*
X46692Y-37439D02*
X46601Y-37219D01*
X46601Y-37219D02*
X46601Y-36985D01*
X46601Y-36985D02*
X45250Y-36985D01*
X45250Y-36985D02*
X45103Y-36956D01*
X45103Y-36956D02*
X44977Y-36872D01*
X44977Y-36872D02*
X44130Y-36025D01*
X44130Y-36025D02*
X44045Y-36025D01*
X44045Y-36025D02*
X43852Y-35945D01*
X43852Y-35945D02*
X43705Y-35797D01*
X43705Y-35797D02*
X43625Y-35604D01*
X43625Y-35604D02*
X43625Y-35395D01*
X43625Y-35395D02*
X43705Y-35202D01*
X43705Y-35202D02*
X43853Y-35055D01*
X43853Y-35055D02*
X44046Y-34975D01*
X44046Y-34975D02*
X44255Y-34975D01*
X44255Y-34975D02*
X44448Y-35055D01*
X44448Y-35055D02*
X44595Y-35203D01*
X44595Y-35203D02*
X44675Y-35396D01*
X44675Y-35396D02*
X44675Y-35480D01*
X44675Y-35480D02*
X44800Y-35605D01*
X44800Y-35605D02*
X44800Y-30500D01*
X44800Y-30500D02*
X44433Y-30347D01*
X44433Y-30347D02*
X44152Y-30066D01*
X44152Y-30066D02*
X44000Y-29698D01*
X44000Y-29698D02*
X44000Y-29300D01*
X44000Y-29300D02*
X44153Y-28933D01*
X44153Y-28933D02*
X44434Y-28652D01*
X44434Y-28652D02*
X44802Y-28500D01*
X44802Y-28500D02*
X45200Y-28500D01*
X45200Y-28500D02*
X45567Y-28653D01*
X45567Y-28653D02*
X45848Y-28934D01*
X45848Y-28934D02*
X46000Y-29302D01*
X46000Y-29302D02*
X46000Y-29700D01*
X46000Y-29700D02*
X45847Y-30067D01*
X45847Y-30067D02*
X45566Y-30348D01*
X45566Y-30348D02*
X45198Y-30500D01*
X45198Y-30500D02*
X44800Y-30500D01*
X44800Y-30500D02*
X44800Y-35605D01*
X44800Y-35605D02*
X45409Y-36215D01*
X45409Y-36215D02*
X46601Y-36215D01*
X46601Y-36215D02*
X46601Y-35981D01*
X46601Y-35981D02*
X46692Y-35761D01*
X46692Y-35761D02*
X46861Y-35592D01*
X46861Y-35592D02*
X47081Y-35501D01*
X47081Y-35501D02*
X47319Y-35501D01*
X47319Y-35501D02*
X47539Y-35592D01*
X47539Y-35592D02*
X47699Y-35753D01*
X47699Y-35753D02*
X47861Y-35592D01*
X47861Y-35592D02*
X48081Y-35501D01*
X48081Y-35501D02*
X48319Y-35501D01*
X48319Y-35501D02*
X48539Y-35592D01*
X48539Y-35592D02*
X48699Y-35753D01*
X48699Y-35753D02*
X48861Y-35592D01*
X48861Y-35592D02*
X49038Y-35518D01*
X49038Y-35518D02*
X49038Y-34625D01*
X49038Y-34625D02*
X49001Y-34624D01*
X49001Y-34624D02*
X48909Y-34586D01*
X48909Y-34586D02*
X48839Y-34516D01*
X48839Y-34516D02*
X48801Y-34425D01*
X48801Y-34425D02*
X48800Y-34262D01*
X48800Y-34262D02*
X48862Y-34200D01*
X48862Y-34200D02*
X48862Y-34100D01*
X48862Y-34100D02*
X48800Y-34038D01*
X48800Y-34038D02*
X48801Y-33875D01*
X48801Y-33875D02*
X48839Y-33784D01*
X48839Y-33784D02*
X48909Y-33714D01*
X48909Y-33714D02*
X49001Y-33676D01*
X49001Y-33676D02*
X49038Y-33675D01*
X49038Y-33675D02*
X49100Y-33737D01*
X49100Y-33737D02*
X49100Y-34100D01*
X49100Y-34100D02*
X48862Y-34100D01*
X48862Y-34100D02*
X48862Y-34200D01*
X48862Y-34200D02*
X49100Y-34200D01*
X49100Y-34200D02*
X49100Y-34563D01*
X49100Y-34563D02*
X49038Y-34625D01*
X49038Y-34625D02*
X49038Y-35518D01*
X49038Y-35518D02*
X49081Y-35501D01*
X49081Y-35501D02*
X49319Y-35501D01*
X49319Y-35501D02*
X49385Y-35528D01*
X49385Y-35528D02*
X49255Y-35397D01*
X49255Y-35397D02*
X49175Y-35204D01*
X49175Y-35204D02*
X49175Y-34995D01*
X49175Y-34995D02*
X49255Y-34802D01*
X49255Y-34802D02*
X49265Y-34792D01*
X49265Y-34792D02*
X49265Y-34624D01*
X49265Y-34624D02*
X49262Y-34625D01*
X49262Y-34625D02*
X49200Y-34563D01*
X49200Y-34563D02*
X49200Y-34200D01*
X49200Y-34200D02*
X49200Y-34100D01*
X49200Y-34100D02*
X49200Y-33737D01*
X49200Y-33737D02*
X49262Y-33675D01*
X49262Y-33675D02*
X49299Y-33676D01*
X49299Y-33676D02*
X49353Y-33698D01*
X49353Y-33698D02*
X49381Y-33671D01*
X49381Y-33671D02*
X49491Y-33626D01*
X49491Y-33626D02*
X49810Y-33626D01*
X49810Y-33626D02*
X49899Y-33663D01*
X49899Y-33663D02*
X49903Y-33661D01*
X49903Y-33661D02*
X49894Y-33648D01*
X49894Y-33648D02*
X49865Y-33500D01*
X49865Y-33500D02*
X49865Y-33050D01*
X49865Y-33050D02*
X49867Y-33035D01*
X49867Y-33035D02*
X49507Y-33035D01*
X49507Y-33035D02*
X49447Y-33095D01*
X49447Y-33095D02*
X49254Y-33175D01*
X49254Y-33175D02*
X49045Y-33175D01*
X49045Y-33175D02*
X48852Y-33095D01*
X48852Y-33095D02*
X48705Y-32947D01*
X48705Y-32947D02*
X48625Y-32754D01*
X48625Y-32754D02*
X48625Y-32545D01*
X48625Y-32545D02*
X48705Y-32352D01*
X48705Y-32352D02*
X48765Y-32292D01*
X48765Y-32292D02*
X48765Y-31968D01*
X48765Y-31968D02*
X48751Y-31934D01*
X48751Y-31934D02*
X48751Y-31365D01*
X48751Y-31365D02*
X48797Y-31255D01*
X48797Y-31255D02*
X48881Y-31171D01*
X48881Y-31171D02*
X48991Y-31126D01*
X48991Y-31126D02*
X49075Y-31126D01*
X49075Y-31126D02*
X49075Y-30995D01*
X49075Y-30995D02*
X49155Y-30802D01*
X49155Y-30802D02*
X49303Y-30655D01*
X49303Y-30655D02*
X49496Y-30575D01*
X49496Y-30575D02*
X49705Y-30575D01*
X49705Y-30575D02*
X49774Y-30603D01*
X49774Y-30603D02*
X49794Y-30502D01*
X49794Y-30502D02*
X49878Y-30378D01*
X49878Y-30378D02*
X50306Y-29949D01*
X50306Y-29949D02*
X50081Y-29949D01*
X50081Y-29949D02*
X49861Y-29858D01*
X49861Y-29858D02*
X49692Y-29689D01*
X49692Y-29689D02*
X49668Y-29632D01*
X49668Y-29632D02*
X49578Y-29658D01*
X49578Y-29658D02*
X49271Y-29350D01*
X49271Y-29350D02*
X49578Y-29042D01*
X49578Y-29042D02*
X49668Y-29067D01*
X49668Y-29067D02*
X49692Y-29011D01*
X49692Y-29011D02*
X49853Y-28849D01*
X49853Y-28849D02*
X49700Y-28696D01*
X49700Y-28696D02*
X49539Y-28858D01*
X49539Y-28858D02*
X49482Y-28881D01*
X49482Y-28881D02*
X49508Y-28972D01*
X49508Y-28972D02*
X49199Y-29278D01*
X49199Y-29278D02*
X49085Y-29164D01*
X49085Y-29164D02*
X49085Y-29164D01*
X49085Y-29164D02*
X49199Y-29278D01*
X49199Y-29278D02*
X49129Y-29350D01*
X49129Y-29350D02*
X49085Y-29394D01*
X49085Y-29394D02*
X49085Y-29394D01*
X49085Y-29394D02*
X49129Y-29350D01*
X49129Y-29350D02*
X49200Y-29421D01*
X49200Y-29421D02*
X49508Y-29728D01*
X49508Y-29728D02*
X49481Y-29822D01*
X49481Y-29822D02*
X49334Y-29882D01*
X49334Y-29882D02*
X49121Y-29893D01*
X49121Y-29893D02*
X49015Y-29855D01*
X49015Y-29855D02*
X48972Y-29923D01*
X48972Y-29923D02*
X48110Y-30784D01*
X48110Y-30784D02*
X48110Y-33267D01*
X48110Y-33267D02*
X48145Y-33303D01*
X48145Y-33303D02*
X48225Y-33496D01*
X48225Y-33496D02*
X48225Y-33705D01*
X48225Y-33705D02*
X48145Y-33898D01*
X48145Y-33898D02*
X47997Y-34045D01*
X47997Y-34045D02*
X47804Y-34125D01*
X47804Y-34125D02*
X47595Y-34125D01*
X47595Y-34125D02*
X47402Y-34045D01*
X47402Y-34045D02*
X47255Y-33897D01*
X47255Y-33897D02*
X47175Y-33704D01*
X47175Y-33704D02*
X47175Y-33495D01*
X47175Y-33495D02*
X47255Y-33302D01*
X47255Y-33302D02*
X47340Y-33217D01*
X47340Y-33217D02*
X47340Y-32590D01*
X47340Y-32590D02*
X47152Y-32778D01*
X47152Y-32778D02*
X46858Y-32899D01*
X46858Y-32899D02*
X46540Y-32899D01*
X46540Y-32899D02*
X46247Y-32777D01*
X46247Y-32777D02*
X46022Y-32552D01*
X46022Y-32552D02*
X45901Y-32258D01*
X45901Y-32258D02*
X45901Y-31940D01*
X45901Y-31940D02*
X46023Y-31647D01*
X46023Y-31647D02*
X46248Y-31422D01*
X46248Y-31422D02*
X46542Y-31301D01*
X46542Y-31301D02*
X46860Y-31301D01*
X46860Y-31301D02*
X47153Y-31423D01*
X47153Y-31423D02*
X47340Y-31610D01*
X47340Y-31610D02*
X47340Y-30625D01*
X47340Y-30625D02*
X47369Y-30477D01*
X47369Y-30477D02*
X47453Y-30353D01*
X47453Y-30353D02*
X47922Y-29883D01*
X47922Y-29883D02*
X47861Y-29858D01*
X47861Y-29858D02*
X47700Y-29696D01*
X47700Y-29696D02*
X47539Y-29858D01*
X47539Y-29858D02*
X47319Y-29949D01*
X47319Y-29949D02*
X47081Y-29949D01*
X47081Y-29949D02*
X46861Y-29858D01*
X46861Y-29858D02*
X46692Y-29689D01*
X46692Y-29689D02*
X46601Y-29469D01*
X46601Y-29469D02*
X46601Y-29231D01*
X46601Y-29231D02*
X46692Y-29011D01*
X46692Y-29011D02*
X46852Y-28849D01*
X46852Y-28849D02*
X46692Y-28689D01*
X46692Y-28689D02*
X46601Y-28469D01*
X46601Y-28469D02*
X46601Y-28231D01*
X46601Y-28231D02*
X46692Y-28011D01*
X46692Y-28011D02*
X46861Y-27842D01*
X46861Y-27842D02*
X47081Y-27751D01*
X47081Y-27751D02*
X47319Y-27751D01*
X47319Y-27751D02*
X47539Y-27842D01*
X47539Y-27842D02*
X47700Y-28002D01*
X47700Y-28002D02*
X47861Y-27842D01*
X47861Y-27842D02*
X48081Y-27751D01*
X48081Y-27751D02*
X48319Y-27751D01*
X48319Y-27751D02*
X48539Y-27842D01*
X48539Y-27842D02*
X48699Y-28002D01*
X48699Y-28002D02*
X48861Y-27842D01*
X48861Y-27842D02*
X49081Y-27751D01*
X49081Y-27751D02*
X49319Y-27751D01*
X49319Y-27751D02*
X49539Y-27842D01*
X49539Y-27842D02*
X49700Y-28002D01*
X49700Y-28002D02*
X49861Y-27842D01*
X49861Y-27842D02*
X50081Y-27751D01*
X50081Y-27751D02*
X50319Y-27751D01*
X50319Y-27751D02*
X50539Y-27842D01*
X50539Y-27842D02*
X50699Y-28003D01*
X50699Y-28003D02*
X50861Y-27842D01*
X50861Y-27842D02*
X51081Y-27751D01*
X51081Y-27751D02*
X51319Y-27751D01*
X51319Y-27751D02*
X51539Y-27842D01*
X51539Y-27842D02*
X51700Y-28002D01*
X51700Y-28002D02*
X51861Y-27842D01*
X51861Y-27842D02*
X52081Y-27751D01*
X52081Y-27751D02*
X52319Y-27751D01*
X52319Y-27751D02*
X52539Y-27842D01*
X52539Y-27842D02*
X52700Y-28003D01*
X52700Y-28003D02*
X52861Y-27842D01*
X52861Y-27842D02*
X53081Y-27751D01*
X53081Y-27751D02*
X53319Y-27751D01*
X53319Y-27751D02*
X53539Y-27842D01*
X53539Y-27842D02*
X53699Y-28003D01*
X53699Y-28003D02*
X53861Y-27842D01*
X53861Y-27842D02*
X54081Y-27751D01*
X54081Y-27751D02*
X54319Y-27751D01*
X54319Y-27751D02*
X54539Y-27842D01*
X54539Y-27842D02*
X54700Y-28002D01*
X54700Y-28002D02*
X54861Y-27842D01*
X54861Y-27842D02*
X55081Y-27751D01*
X55081Y-27751D02*
X55319Y-27751D01*
X55319Y-27751D02*
X55539Y-27842D01*
X55539Y-27842D02*
X55699Y-28003D01*
X55699Y-28003D02*
X55861Y-27842D01*
X55861Y-27842D02*
X56081Y-27751D01*
X56081Y-27751D02*
X56319Y-27751D01*
X56319Y-27751D02*
X56539Y-27842D01*
X56539Y-27842D02*
X56699Y-28002D01*
X56699Y-28002D02*
X56861Y-27842D01*
X56861Y-27842D02*
X57081Y-27751D01*
X57081Y-27751D02*
X57319Y-27751D01*
X57319Y-27751D02*
X57539Y-27842D01*
X57539Y-27842D02*
X57700Y-28003D01*
X57700Y-28003D02*
X57861Y-27842D01*
X57861Y-27842D02*
X58081Y-27751D01*
X58081Y-27751D02*
X58319Y-27751D01*
X58319Y-27751D02*
X58539Y-27842D01*
X58539Y-27842D02*
X58626Y-27929D01*
X58626Y-27929D02*
X58647Y-27880D01*
X58647Y-27880D02*
X58731Y-27796D01*
X58731Y-27796D02*
X58841Y-27751D01*
X58841Y-27751D02*
X59560Y-27751D01*
X59560Y-27751D02*
X59670Y-27797D01*
X59670Y-27797D02*
X59754Y-27881D01*
X59754Y-27881D02*
X59799Y-27991D01*
X59799Y-27991D02*
X59799Y-28710D01*
X59799Y-28710D02*
X59779Y-28756D01*
X59779Y-28756D02*
X60284Y-28251D01*
X60284Y-28251D02*
X60342Y-28111D01*
X60342Y-28111D02*
X60502Y-27950D01*
X60502Y-27950D02*
X60342Y-27789D01*
X60342Y-27789D02*
X60251Y-27569D01*
X60251Y-27569D02*
X60251Y-27331D01*
X60251Y-27331D02*
X60342Y-27111D01*
X60342Y-27111D02*
X60511Y-26942D01*
X60511Y-26942D02*
X60731Y-26851D01*
X60731Y-26851D02*
X60969Y-26851D01*
X60969Y-26851D02*
X61189Y-26942D01*
X61189Y-26942D02*
X61358Y-27111D01*
X61358Y-27111D02*
X61430Y-27285D01*
X61430Y-27285D02*
X61430Y-26836D01*
X61430Y-26836D02*
X61375Y-26704D01*
X61375Y-26704D02*
X61375Y-26495D01*
X61375Y-26495D02*
X61445Y-26325D01*
X61445Y-26325D02*
X40225Y-26325D01*
X40225Y-26325D02*
X40225Y-54675D01*
X40225Y-54675D02*
X51231Y-54675D01*
X60550Y-49503D02*
X60665Y-49388D01*
X60665Y-49388D02*
X60665Y-49000D01*
X60665Y-49000D02*
X60694Y-48852D01*
X60694Y-48852D02*
X60778Y-48728D01*
X60778Y-48728D02*
X61727Y-47778D01*
X61727Y-47778D02*
X61851Y-47695D01*
X61851Y-47695D02*
X61728Y-47572D01*
X61728Y-47572D02*
X61644Y-47448D01*
X61644Y-47448D02*
X61615Y-47300D01*
X61615Y-47300D02*
X61615Y-46257D01*
X61615Y-46257D02*
X61555Y-46197D01*
X61555Y-46197D02*
X61475Y-46004D01*
X61475Y-46004D02*
X61475Y-45795D01*
X61475Y-45795D02*
X61539Y-45640D01*
X61539Y-45640D02*
X60174Y-45640D01*
X60174Y-45640D02*
X60064Y-45594D01*
X60064Y-45594D02*
X60023Y-45553D01*
X60023Y-45553D02*
X59971Y-45574D01*
X59971Y-45574D02*
X59957Y-45589D01*
X59957Y-45589D02*
X59911Y-45589D01*
X59911Y-45589D02*
X59896Y-45574D01*
X59896Y-45574D02*
X59837Y-45550D01*
X59837Y-45550D02*
X59767Y-45480D01*
X59767Y-45480D02*
X59767Y-45527D01*
X59767Y-45527D02*
X59705Y-45589D01*
X59705Y-45589D02*
X59677Y-45588D01*
X59677Y-45588D02*
X59585Y-45550D01*
X59585Y-45550D02*
X59515Y-45480D01*
X59515Y-45480D02*
X59477Y-45389D01*
X59477Y-45389D02*
X59476Y-45162D01*
X59476Y-45162D02*
X59538Y-45100D01*
X59538Y-45100D02*
X59767Y-45100D01*
X59767Y-45100D02*
X59767Y-45123D01*
X59767Y-45123D02*
X59790Y-45100D01*
X59790Y-45100D02*
X59935Y-45100D01*
X59935Y-45100D02*
X59935Y-45000D01*
X59935Y-45000D02*
X59790Y-45000D01*
X59790Y-45000D02*
X59767Y-44977D01*
X59767Y-44977D02*
X59767Y-45000D01*
X59767Y-45000D02*
X59538Y-45000D01*
X59538Y-45000D02*
X59476Y-44938D01*
X59476Y-44938D02*
X59477Y-44711D01*
X59477Y-44711D02*
X59515Y-44620D01*
X59515Y-44620D02*
X59585Y-44550D01*
X59585Y-44550D02*
X59677Y-44512D01*
X59677Y-44512D02*
X59705Y-44511D01*
X59705Y-44511D02*
X59767Y-44573D01*
X59767Y-44573D02*
X59767Y-44620D01*
X59767Y-44620D02*
X59837Y-44550D01*
X59837Y-44550D02*
X59896Y-44525D01*
X59896Y-44525D02*
X59911Y-44511D01*
X59911Y-44511D02*
X59957Y-44511D01*
X59957Y-44511D02*
X59971Y-44525D01*
X59971Y-44525D02*
X60026Y-44547D01*
X60026Y-44547D02*
X60065Y-44509D01*
X60065Y-44509D02*
X60175Y-44464D01*
X60175Y-44464D02*
X60369Y-44464D01*
X60369Y-44464D02*
X60300Y-44394D01*
X60300Y-44394D02*
X60216Y-44270D01*
X60216Y-44270D02*
X60187Y-44122D01*
X60187Y-44122D02*
X60187Y-43436D01*
X60187Y-43436D02*
X59918Y-43436D01*
X59918Y-43436D02*
X59808Y-43390D01*
X59808Y-43390D02*
X59753Y-43334D01*
X59753Y-43334D02*
X59701Y-43387D01*
X59701Y-43387D02*
X59673Y-43386D01*
X59673Y-43386D02*
X59581Y-43348D01*
X59581Y-43348D02*
X59511Y-43278D01*
X59511Y-43278D02*
X59473Y-43187D01*
X59473Y-43187D02*
X59472Y-42960D01*
X59472Y-42960D02*
X59534Y-42898D01*
X59534Y-42898D02*
X59679Y-42898D01*
X59679Y-42898D02*
X59679Y-42868D01*
X59679Y-42868D02*
X59675Y-42848D01*
X59675Y-42848D02*
X59675Y-42798D01*
X59675Y-42798D02*
X59534Y-42798D01*
X59534Y-42798D02*
X59472Y-42736D01*
X59472Y-42736D02*
X59473Y-42509D01*
X59473Y-42509D02*
X59511Y-42418D01*
X59511Y-42418D02*
X59581Y-42348D01*
X59581Y-42348D02*
X59675Y-42309D01*
X59675Y-42309D02*
X59675Y-41669D01*
X59675Y-41669D02*
X58485Y-40479D01*
X58485Y-40479D02*
X58485Y-40790D01*
X58485Y-40790D02*
X58572Y-40877D01*
X58572Y-40877D02*
X58656Y-41003D01*
X58656Y-41003D02*
X58685Y-41150D01*
X58685Y-41150D02*
X58685Y-45400D01*
X58685Y-45400D02*
X58656Y-45547D01*
X58656Y-45547D02*
X58572Y-45672D01*
X58572Y-45672D02*
X58272Y-45972D01*
X58272Y-45972D02*
X58148Y-46056D01*
X58148Y-46056D02*
X58000Y-46085D01*
X58000Y-46085D02*
X57200Y-46085D01*
X57200Y-46085D02*
X57053Y-46056D01*
X57053Y-46056D02*
X56927Y-45972D01*
X56927Y-45972D02*
X56728Y-45772D01*
X56728Y-45772D02*
X56644Y-45648D01*
X56644Y-45648D02*
X56639Y-45624D01*
X56639Y-45624D02*
X56340Y-45624D01*
X56340Y-45624D02*
X56250Y-45586D01*
X56250Y-45586D02*
X56159Y-45624D01*
X56159Y-45624D02*
X55840Y-45624D01*
X55840Y-45624D02*
X55750Y-45586D01*
X55750Y-45586D02*
X55659Y-45624D01*
X55659Y-45624D02*
X55418Y-45624D01*
X55418Y-45624D02*
X59045Y-49251D01*
X59045Y-49251D02*
X59410Y-49251D01*
X59410Y-49251D02*
X59520Y-49297D01*
X59520Y-49297D02*
X59604Y-49381D01*
X59604Y-49381D02*
X59623Y-49429D01*
X59623Y-49429D02*
X59711Y-49342D01*
X59711Y-49342D02*
X59931Y-49251D01*
X59931Y-49251D02*
X59990Y-49251D01*
X59990Y-49251D02*
X59990Y-47649D01*
X59990Y-47649D02*
X59697Y-47527D01*
X59697Y-47527D02*
X59472Y-47302D01*
X59472Y-47302D02*
X59351Y-47008D01*
X59351Y-47008D02*
X59351Y-46690D01*
X59351Y-46690D02*
X59473Y-46397D01*
X59473Y-46397D02*
X59698Y-46172D01*
X59698Y-46172D02*
X59992Y-46051D01*
X59992Y-46051D02*
X60310Y-46051D01*
X60310Y-46051D02*
X60603Y-46173D01*
X60603Y-46173D02*
X60828Y-46398D01*
X60828Y-46398D02*
X60949Y-46692D01*
X60949Y-46692D02*
X60949Y-47010D01*
X60949Y-47010D02*
X60827Y-47303D01*
X60827Y-47303D02*
X60602Y-47528D01*
X60602Y-47528D02*
X60308Y-47649D01*
X60308Y-47649D02*
X59990Y-47649D01*
X59990Y-47649D02*
X59990Y-49251D01*
X59990Y-49251D02*
X60169Y-49251D01*
X60169Y-49251D02*
X60389Y-49342D01*
X60389Y-49342D02*
X60550Y-49503D01*
X54101Y-45365D02*
X54101Y-44815D01*
X54101Y-44815D02*
X54115Y-44781D01*
X54115Y-44781D02*
X54115Y-44729D01*
X54115Y-44729D02*
X54005Y-44620D01*
X54005Y-44620D02*
X53940Y-44620D01*
X53940Y-44620D02*
X53974Y-44701D01*
X53974Y-44701D02*
X53975Y-44813D01*
X53975Y-44813D02*
X53913Y-44875D01*
X53913Y-44875D02*
X53500Y-44875D01*
X53500Y-44875D02*
X53500Y-44649D01*
X53500Y-44649D02*
X53400Y-44649D01*
X53400Y-44649D02*
X53400Y-44875D01*
X53400Y-44875D02*
X52987Y-44875D01*
X52987Y-44875D02*
X52925Y-44813D01*
X52925Y-44813D02*
X52926Y-44701D01*
X52926Y-44701D02*
X52959Y-44620D01*
X52959Y-44620D02*
X52950Y-44620D01*
X52950Y-44620D02*
X52770Y-44584D01*
X52770Y-44584D02*
X52617Y-44482D01*
X52617Y-44482D02*
X52349Y-44214D01*
X52349Y-44214D02*
X52425Y-44396D01*
X52425Y-44396D02*
X52425Y-44605D01*
X52425Y-44605D02*
X52401Y-44661D01*
X52401Y-44661D02*
X52424Y-44716D01*
X52424Y-44716D02*
X52424Y-45085D01*
X52424Y-45085D02*
X52378Y-45195D01*
X52378Y-45195D02*
X52372Y-45199D01*
X52372Y-45199D02*
X52379Y-45206D01*
X52379Y-45206D02*
X52424Y-45316D01*
X52424Y-45316D02*
X52424Y-45365D01*
X52424Y-45365D02*
X53338Y-45365D01*
X53338Y-45365D02*
X53338Y-45350D01*
X53338Y-45350D02*
X53125Y-45349D01*
X53125Y-45349D02*
X53034Y-45311D01*
X53034Y-45311D02*
X52964Y-45241D01*
X52964Y-45241D02*
X52926Y-45149D01*
X52926Y-45149D02*
X52925Y-45037D01*
X52925Y-45037D02*
X52987Y-44975D01*
X52987Y-44975D02*
X53400Y-44975D01*
X53400Y-44975D02*
X53400Y-45288D01*
X53400Y-45288D02*
X53338Y-45350D01*
X53338Y-45350D02*
X53338Y-45365D01*
X53338Y-45365D02*
X53562Y-45365D01*
X53562Y-45365D02*
X53562Y-45350D01*
X53562Y-45350D02*
X53500Y-45288D01*
X53500Y-45288D02*
X53500Y-44975D01*
X53500Y-44975D02*
X53913Y-44975D01*
X53913Y-44975D02*
X53975Y-45037D01*
X53975Y-45037D02*
X53974Y-45149D01*
X53974Y-45149D02*
X53936Y-45241D01*
X53936Y-45241D02*
X53866Y-45311D01*
X53866Y-45311D02*
X53775Y-45349D01*
X53775Y-45349D02*
X53562Y-45350D01*
X53562Y-45350D02*
X53562Y-45365D01*
X53562Y-45365D02*
X54101Y-45365D01*
X57115Y-44576D02*
X57115Y-44400D01*
X57115Y-44400D02*
X57144Y-44252D01*
X57144Y-44252D02*
X57228Y-44128D01*
X57228Y-44128D02*
X57515Y-43840D01*
X57515Y-43840D02*
X57515Y-41309D01*
X57515Y-41309D02*
X57328Y-41122D01*
X57328Y-41122D02*
X57244Y-40998D01*
X57244Y-40998D02*
X57215Y-40850D01*
X57215Y-40850D02*
X57215Y-39159D01*
X57215Y-39159D02*
X57115Y-39059D01*
X57115Y-39059D02*
X56112Y-39060D01*
X56112Y-39060D02*
X56041Y-39046D01*
X56041Y-39046D02*
X55986Y-39039D01*
X55986Y-39039D02*
X55976Y-39033D01*
X55976Y-39033D02*
X55965Y-39031D01*
X55965Y-39031D02*
X55912Y-38995D01*
X55912Y-38995D02*
X55857Y-38963D01*
X55857Y-38963D02*
X55813Y-38925D01*
X55813Y-38925D02*
X55695Y-38925D01*
X55695Y-38925D02*
X55502Y-38845D01*
X55502Y-38845D02*
X55355Y-38697D01*
X55355Y-38697D02*
X55337Y-38655D01*
X55337Y-38655D02*
X55285Y-38707D01*
X55285Y-38707D02*
X55285Y-41279D01*
X55285Y-41279D02*
X55296Y-41275D01*
X55296Y-41275D02*
X55505Y-41275D01*
X55505Y-41275D02*
X55698Y-41355D01*
X55698Y-41355D02*
X55757Y-41415D01*
X55757Y-41415D02*
X56200Y-41415D01*
X56200Y-41415D02*
X56348Y-41444D01*
X56348Y-41444D02*
X56472Y-41528D01*
X56472Y-41528D02*
X56772Y-41828D01*
X56772Y-41828D02*
X56856Y-41953D01*
X56856Y-41953D02*
X56880Y-42076D01*
X56880Y-42076D02*
X57160Y-42076D01*
X57160Y-42076D02*
X57270Y-42122D01*
X57270Y-42122D02*
X57296Y-42148D01*
X57296Y-42148D02*
X57351Y-42126D01*
X57351Y-42126D02*
X57388Y-42125D01*
X57388Y-42125D02*
X57450Y-42187D01*
X57450Y-42187D02*
X57450Y-42550D01*
X57450Y-42550D02*
X57399Y-42550D01*
X57399Y-42550D02*
X57399Y-42650D01*
X57399Y-42650D02*
X57450Y-42650D01*
X57450Y-42650D02*
X57450Y-43013D01*
X57450Y-43013D02*
X57388Y-43075D01*
X57388Y-43075D02*
X57351Y-43074D01*
X57351Y-43074D02*
X57296Y-43051D01*
X57296Y-43051D02*
X57269Y-43079D01*
X57269Y-43079D02*
X57159Y-43124D01*
X57159Y-43124D02*
X56840Y-43124D01*
X56840Y-43124D02*
X56750Y-43086D01*
X56750Y-43086D02*
X56659Y-43124D01*
X56659Y-43124D02*
X56368Y-43124D01*
X56368Y-43124D02*
X56772Y-43528D01*
X56772Y-43528D02*
X56856Y-43652D01*
X56856Y-43652D02*
X56885Y-43800D01*
X56885Y-43800D02*
X56885Y-44576D01*
X56885Y-44576D02*
X57115Y-44576D01*
X51542Y-44115D02*
X51603Y-44055D01*
X51603Y-44055D02*
X51796Y-43975D01*
X51796Y-43975D02*
X52005Y-43975D01*
X52005Y-43975D02*
X52184Y-44049D01*
X52184Y-44049D02*
X51349Y-43213D01*
X51349Y-43213D02*
X51349Y-43585D01*
X51349Y-43585D02*
X51303Y-43695D01*
X51303Y-43695D02*
X51219Y-43779D01*
X51219Y-43779D02*
X51109Y-43824D01*
X51109Y-43824D02*
X50640Y-43824D01*
X50640Y-43824D02*
X50530Y-43778D01*
X50530Y-43778D02*
X50499Y-43747D01*
X50499Y-43747D02*
X50500Y-43888D01*
X50500Y-43888D02*
X50438Y-43950D01*
X50438Y-43950D02*
X50150Y-43950D01*
X50150Y-43950D02*
X50150Y-43512D01*
X50150Y-43512D02*
X50175Y-43487D01*
X50175Y-43487D02*
X50175Y-43300D01*
X50175Y-43300D02*
X50401Y-43300D01*
X50401Y-43300D02*
X50401Y-43200D01*
X50401Y-43200D02*
X50175Y-43200D01*
X50175Y-43200D02*
X50175Y-43170D01*
X50175Y-43170D02*
X50075Y-43170D01*
X50075Y-43170D02*
X50075Y-43200D01*
X50075Y-43200D02*
X49762Y-43200D01*
X49762Y-43200D02*
X49732Y-43170D01*
X49732Y-43170D02*
X49050Y-43170D01*
X49050Y-43170D02*
X48870Y-43134D01*
X48870Y-43134D02*
X48717Y-43032D01*
X48717Y-43032D02*
X47905Y-42220D01*
X47905Y-42220D02*
X46336Y-42220D01*
X46336Y-42220D02*
X46263Y-42250D01*
X46263Y-42250D02*
X46070Y-42444D01*
X46070Y-42444D02*
X46070Y-43401D01*
X46070Y-43401D02*
X46310Y-43401D01*
X46310Y-43401D02*
X46350Y-43417D01*
X46350Y-43417D02*
X46391Y-43401D01*
X46391Y-43401D02*
X46810Y-43401D01*
X46810Y-43401D02*
X46850Y-43417D01*
X46850Y-43417D02*
X46891Y-43401D01*
X46891Y-43401D02*
X47310Y-43401D01*
X47310Y-43401D02*
X47350Y-43417D01*
X47350Y-43417D02*
X47391Y-43401D01*
X47391Y-43401D02*
X47810Y-43401D01*
X47810Y-43401D02*
X47850Y-43417D01*
X47850Y-43417D02*
X47891Y-43401D01*
X47891Y-43401D02*
X48310Y-43401D01*
X48310Y-43401D02*
X48350Y-43417D01*
X48350Y-43417D02*
X48391Y-43401D01*
X48391Y-43401D02*
X48810Y-43401D01*
X48810Y-43401D02*
X48850Y-43417D01*
X48850Y-43417D02*
X48891Y-43401D01*
X48891Y-43401D02*
X49310Y-43401D01*
X49310Y-43401D02*
X49350Y-43417D01*
X49350Y-43417D02*
X49391Y-43401D01*
X49391Y-43401D02*
X49700Y-43401D01*
X49700Y-43401D02*
X49700Y-43362D01*
X49700Y-43362D02*
X49762Y-43300D01*
X49762Y-43300D02*
X50075Y-43300D01*
X50075Y-43300D02*
X50075Y-43713D01*
X50075Y-43713D02*
X50050Y-43738D01*
X50050Y-43738D02*
X50050Y-43950D01*
X50050Y-43950D02*
X50050Y-44050D01*
X50050Y-44050D02*
X50150Y-44050D01*
X50150Y-44050D02*
X50438Y-44050D01*
X50438Y-44050D02*
X50500Y-44112D01*
X50500Y-44112D02*
X50499Y-44115D01*
X50499Y-44115D02*
X51542Y-44115D01*
X49541Y-42230D02*
X49525Y-42213D01*
X49525Y-42213D02*
X49525Y-41800D01*
X49525Y-41800D02*
X49751Y-41800D01*
X49751Y-41800D02*
X49751Y-41700D01*
X49751Y-41700D02*
X49525Y-41700D01*
X49525Y-41700D02*
X49525Y-41385D01*
X49525Y-41385D02*
X49425Y-41385D01*
X49425Y-41385D02*
X49425Y-41700D01*
X49425Y-41700D02*
X49112Y-41700D01*
X49112Y-41700D02*
X49050Y-41638D01*
X49050Y-41638D02*
X49051Y-41425D01*
X49051Y-41425D02*
X49089Y-41334D01*
X49089Y-41334D02*
X49141Y-41281D01*
X49141Y-41281D02*
X49127Y-41272D01*
X49127Y-41272D02*
X48991Y-41136D01*
X48991Y-41136D02*
X48945Y-41248D01*
X48945Y-41248D02*
X48797Y-41395D01*
X48797Y-41395D02*
X48604Y-41475D01*
X48604Y-41475D02*
X48489Y-41475D01*
X48489Y-41475D02*
X49050Y-42036D01*
X49050Y-42036D02*
X49050Y-41862D01*
X49050Y-41862D02*
X49112Y-41800D01*
X49112Y-41800D02*
X49425Y-41800D01*
X49425Y-41800D02*
X49425Y-42213D01*
X49425Y-42213D02*
X49408Y-42230D01*
X49408Y-42230D02*
X49541Y-42230D01*
X48087Y-41280D02*
X48055Y-41247D01*
X48055Y-41247D02*
X47975Y-41054D01*
X47975Y-41054D02*
X47975Y-40845D01*
X47975Y-40845D02*
X48055Y-40652D01*
X48055Y-40652D02*
X48115Y-40592D01*
X48115Y-40592D02*
X48115Y-40500D01*
X48115Y-40500D02*
X48144Y-40352D01*
X48144Y-40352D02*
X48228Y-40228D01*
X48228Y-40228D02*
X48500Y-39955D01*
X48500Y-39955D02*
X47439Y-39955D01*
X47439Y-39955D02*
X46485Y-40909D01*
X46485Y-40909D02*
X46485Y-41280D01*
X46485Y-41280D02*
X48087Y-41280D01*
X52049Y-40913D02*
X52141Y-40876D01*
X52141Y-40876D02*
X52415Y-40876D01*
X52415Y-40876D02*
X52415Y-40650D01*
X52415Y-40650D02*
X52444Y-40502D01*
X52444Y-40502D02*
X52528Y-40378D01*
X52528Y-40378D02*
X53485Y-39419D01*
X53485Y-39419D02*
X53487Y-39411D01*
X53487Y-39411D02*
X53459Y-39424D01*
X53459Y-39424D02*
X53140Y-39424D01*
X53140Y-39424D02*
X53112Y-39412D01*
X53112Y-39412D02*
X53072Y-39473D01*
X53072Y-39473D02*
X52872Y-39672D01*
X52872Y-39672D02*
X52748Y-39756D01*
X52748Y-39756D02*
X52600Y-39785D01*
X52600Y-39785D02*
X52159Y-39785D01*
X52159Y-39785D02*
X51036Y-40907D01*
X51036Y-40907D02*
X51049Y-40913D01*
X51049Y-40913D02*
X51141Y-40876D01*
X51141Y-40876D02*
X51460Y-40876D01*
X51460Y-40876D02*
X51549Y-40913D01*
X51549Y-40913D02*
X51641Y-40876D01*
X51641Y-40876D02*
X51960Y-40876D01*
X51960Y-40876D02*
X52049Y-40913D01*
X53750Y-39085D02*
X53850Y-39044D01*
X53850Y-39044D02*
X53850Y-38950D01*
X53850Y-38950D02*
X54088Y-38950D01*
X54088Y-38950D02*
X54115Y-38977D01*
X54115Y-38977D02*
X54115Y-38884D01*
X54115Y-38884D02*
X54080Y-38850D01*
X54080Y-38850D02*
X53850Y-38850D01*
X53850Y-38850D02*
X53750Y-38850D01*
X53750Y-38850D02*
X53750Y-38950D01*
X53750Y-38950D02*
X53750Y-39085D01*
X54700Y-34150D02*
X54700Y-34050D01*
X54700Y-34050D02*
X54700Y-33687D01*
X54700Y-33687D02*
X54762Y-33625D01*
X54762Y-33625D02*
X54799Y-33626D01*
X54799Y-33626D02*
X54835Y-33641D01*
X54835Y-33641D02*
X54878Y-33578D01*
X54878Y-33578D02*
X55127Y-33328D01*
X55127Y-33328D02*
X55253Y-33244D01*
X55253Y-33244D02*
X55400Y-33215D01*
X55400Y-33215D02*
X58380Y-33215D01*
X58380Y-33215D02*
X58380Y-32094D01*
X58380Y-32094D02*
X58309Y-32124D01*
X58309Y-32124D02*
X57990Y-32124D01*
X57990Y-32124D02*
X57900Y-32086D01*
X57900Y-32086D02*
X57809Y-32124D01*
X57809Y-32124D02*
X57490Y-32124D01*
X57490Y-32124D02*
X57400Y-32086D01*
X57400Y-32086D02*
X57309Y-32124D01*
X57309Y-32124D02*
X56990Y-32124D01*
X56990Y-32124D02*
X56900Y-32086D01*
X56900Y-32086D02*
X56809Y-32124D01*
X56809Y-32124D02*
X56490Y-32124D01*
X56490Y-32124D02*
X56400Y-32086D01*
X56400Y-32086D02*
X56309Y-32124D01*
X56309Y-32124D02*
X55990Y-32124D01*
X55990Y-32124D02*
X55900Y-32086D01*
X55900Y-32086D02*
X55809Y-32124D01*
X55809Y-32124D02*
X55490Y-32124D01*
X55490Y-32124D02*
X55400Y-32086D01*
X55400Y-32086D02*
X55309Y-32124D01*
X55309Y-32124D02*
X54990Y-32124D01*
X54990Y-32124D02*
X54900Y-32086D01*
X54900Y-32086D02*
X54809Y-32124D01*
X54809Y-32124D02*
X54635Y-32124D01*
X54635Y-32124D02*
X54635Y-33250D01*
X54635Y-33250D02*
X54606Y-33397D01*
X54606Y-33397D02*
X54522Y-33523D01*
X54522Y-33523D02*
X54473Y-33570D01*
X54473Y-33570D02*
X54472Y-33573D01*
X54472Y-33573D02*
X54385Y-33659D01*
X54385Y-33659D02*
X54385Y-33688D01*
X54385Y-33688D02*
X54409Y-33664D01*
X54409Y-33664D02*
X54501Y-33626D01*
X54501Y-33626D02*
X54538Y-33625D01*
X54538Y-33625D02*
X54600Y-33687D01*
X54600Y-33687D02*
X54600Y-34050D01*
X54600Y-34050D02*
X54600Y-34150D01*
X54600Y-34150D02*
X54700Y-34150D01*
M02*
