G04 (created by PCBnew (20090216-final)) date Wed 12 Aug 2009 19:46:25 CDT*
G01*
G70*
G90*
%MOIN*%
G04 Gerber Fmt 3.4, Leading zero omitted, Abs format*
%FSLAX34Y34*%
G04 APERTURE LIST*
%ADD10C,0.015000*%
%ADD11C,0.100000*%
%ADD12R,0.060000X0.060000*%
%ADD13C,0.060000*%
%ADD14R,0.045000X0.025000*%
%ADD15R,0.035000X0.055000*%
%ADD16R,0.020000X0.045000*%
%ADD17R,0.055000X0.017000*%
%ADD18R,0.030000X0.060000*%
%ADD19R,0.055000X0.035000*%
%ADD20R,0.016500X0.057900*%
%ADD21C,0.140000*%
%ADD22C,0.045000*%
%ADD23C,0.034000*%
%ADD24C,0.017000*%
%ADD25C,0.010000*%
%ADD26R,0.060000X0.080000*%
%ADD27R,0.060000X0.030000*%
%ADD28R,0.050000X0.115000*%
%ADD29R,0.135000X0.050000*%
%ADD30R,0.070900X0.165400*%
%ADD31R,0.393700X0.374000*%
%ADD32R,0.100000X0.047000*%
%ADD33R,0.025000X0.045000*%
%ADD34R,0.030000X0.250000*%
%ADD35C,0.068000*%
%ADD36C,0.005000*%
%ADD37C,0.008000*%
%ADD38C,0.007500*%
%ADD39C,0.003900*%
%ADD40C,0.012000*%
%ADD41C,0.006000*%
%ADD42C,0.120000*%
%ADD43R,0.080000X0.080000*%
%ADD44C,0.080000*%
%ADD45R,0.065000X0.045000*%
%ADD46R,0.055000X0.075000*%
%ADD47R,0.040000X0.065000*%
%ADD48R,0.075000X0.037000*%
%ADD49R,0.050000X0.080000*%
%ADD50R,0.075000X0.055000*%
%ADD51R,0.036500X0.077900*%
%ADD52C,0.160000*%
G04 APERTURE END LIST*
G54D10*
X40400Y-55000D02*
X39900Y-55000D01*
X40400Y-26000D02*
X39900Y-26000D01*
X40400Y-26000D02*
X69000Y-26000D01*
X40400Y-55000D02*
X69000Y-55000D01*
X39900Y-26000D02*
X39900Y-55000D01*
X68500Y-26000D02*
X69000Y-26000D01*
X69000Y-26000D02*
X68500Y-26000D01*
X69000Y-55000D02*
X69000Y-26000D01*
G54D42*
X63800Y-32750D03*
X60150Y-46850D03*
X42050Y-47500D03*
X46700Y-32100D03*
G54D43*
X60850Y-39150D03*
G54D44*
X60850Y-38150D03*
X60850Y-37150D03*
X60850Y-36150D03*
X60850Y-35150D03*
G54D43*
X60850Y-31450D03*
G54D44*
X60850Y-30450D03*
X60850Y-29450D03*
X60850Y-28450D03*
X60850Y-27450D03*
G54D45*
X54000Y-34700D03*
X54000Y-35300D03*
G54D46*
X55425Y-35100D03*
X56175Y-35100D03*
G54D47*
X53800Y-41400D03*
X53300Y-41400D03*
X52800Y-41400D03*
X52300Y-41400D03*
X51800Y-41400D03*
X51300Y-41400D03*
X50800Y-41400D03*
X50800Y-38900D03*
X51300Y-38900D03*
X52300Y-38900D03*
X52800Y-38900D03*
X53300Y-38900D03*
X53800Y-38900D03*
X51800Y-38900D03*
X57500Y-45100D03*
X57000Y-45100D03*
X56500Y-45100D03*
X56000Y-45100D03*
X55500Y-45100D03*
X55000Y-45100D03*
X54500Y-45100D03*
X54500Y-42600D03*
X55000Y-42600D03*
X56000Y-42600D03*
X56500Y-42600D03*
X57000Y-42600D03*
X57500Y-42600D03*
X55500Y-42600D03*
X54650Y-34100D03*
X55650Y-34100D03*
X56150Y-34100D03*
X56650Y-34100D03*
X57150Y-34100D03*
X57650Y-34100D03*
X58150Y-34100D03*
X58150Y-31600D03*
X57650Y-31600D03*
X57150Y-31600D03*
X56650Y-31600D03*
X56150Y-31600D03*
X55650Y-31600D03*
X55150Y-31600D03*
X54650Y-31600D03*
X55150Y-34100D03*
X49150Y-34150D03*
X50150Y-34150D03*
X50650Y-34150D03*
X51150Y-34150D03*
X51650Y-34150D03*
X52150Y-34150D03*
X52650Y-34150D03*
X52650Y-31650D03*
X52150Y-31650D03*
X51650Y-31650D03*
X51150Y-31650D03*
X50650Y-31650D03*
X50150Y-31650D03*
X49650Y-31650D03*
X49150Y-31650D03*
X49650Y-34150D03*
G54D48*
X48600Y-38040D03*
X48600Y-38290D03*
X48600Y-38550D03*
X48600Y-38800D03*
X48600Y-39060D03*
X48600Y-39315D03*
X48600Y-39570D03*
X46400Y-39570D03*
X46400Y-39315D03*
X46400Y-39060D03*
X46400Y-38800D03*
X46400Y-38545D03*
X46400Y-38290D03*
X46400Y-38035D03*
G54D49*
X50100Y-47000D03*
X49600Y-47000D03*
X49100Y-47000D03*
X48600Y-47000D03*
X48100Y-47000D03*
X47600Y-47000D03*
X47100Y-47000D03*
X46600Y-47000D03*
X46100Y-47000D03*
X45600Y-47000D03*
X45100Y-47000D03*
X44550Y-47000D03*
X50100Y-44000D03*
X49600Y-44000D03*
X49100Y-44000D03*
X48600Y-44000D03*
X48100Y-44000D03*
X47600Y-44000D03*
X47100Y-44000D03*
X46600Y-44000D03*
X46100Y-44000D03*
X45600Y-44000D03*
X45100Y-44000D03*
X44600Y-44000D03*
G54D45*
X49400Y-48550D03*
X49400Y-47950D03*
X48800Y-48550D03*
X48800Y-47950D03*
X45800Y-48550D03*
X45800Y-47950D03*
X46400Y-48550D03*
X46400Y-47950D03*
X47000Y-48550D03*
X47000Y-47950D03*
X47600Y-48550D03*
X47600Y-47950D03*
X50000Y-48550D03*
X50000Y-47950D03*
X48200Y-48550D03*
X48200Y-47950D03*
X51900Y-45500D03*
X51900Y-44900D03*
X51150Y-45500D03*
X51150Y-44900D03*
G54D50*
X53450Y-44925D03*
X53450Y-44175D03*
G54D46*
X50125Y-43250D03*
X50875Y-43250D03*
X49475Y-41750D03*
X50225Y-41750D03*
G54D51*
X60572Y-42848D03*
X60828Y-42848D03*
X61084Y-42848D03*
X61340Y-42848D03*
X59808Y-45050D03*
X59804Y-42848D03*
X60060Y-42848D03*
X60316Y-42848D03*
X61596Y-45052D03*
X61340Y-45052D03*
X61084Y-45052D03*
X60828Y-45052D03*
X60572Y-45052D03*
X60316Y-45052D03*
X61596Y-42848D03*
X60060Y-45050D03*
G54D46*
X43025Y-45700D03*
X43775Y-45700D03*
G54D43*
X59200Y-28350D03*
G54D44*
X59200Y-29350D03*
X58200Y-28350D03*
X58200Y-29350D03*
X57200Y-28350D03*
X57200Y-29350D03*
X56200Y-28350D03*
X56200Y-29350D03*
X55200Y-28350D03*
X55200Y-29350D03*
X54200Y-28350D03*
X54200Y-29350D03*
X53200Y-28350D03*
X53200Y-29350D03*
X52200Y-28350D03*
X52200Y-29350D03*
X51200Y-28350D03*
X51200Y-29350D03*
X50200Y-28350D03*
X50200Y-29350D03*
X49200Y-28350D03*
X49200Y-29350D03*
X48200Y-28350D03*
X48200Y-29350D03*
X47200Y-28350D03*
X47200Y-29350D03*
G54D43*
X59200Y-36100D03*
G54D44*
X59200Y-37100D03*
X58200Y-36100D03*
X58200Y-37100D03*
X57200Y-36100D03*
X57200Y-37100D03*
X56200Y-36100D03*
X56200Y-37100D03*
X55200Y-36100D03*
X55200Y-37100D03*
X54200Y-36100D03*
X54200Y-37100D03*
X53200Y-36100D03*
X53200Y-37100D03*
X52200Y-36100D03*
X52200Y-37100D03*
X51200Y-36100D03*
X51200Y-37100D03*
X50200Y-36100D03*
X50200Y-37100D03*
X49200Y-36100D03*
X49200Y-37100D03*
X48200Y-36100D03*
X48200Y-37100D03*
X47200Y-36100D03*
X47200Y-37100D03*
G54D43*
X44850Y-53150D03*
G54D44*
X45850Y-53150D03*
X46850Y-53150D03*
G54D43*
X44850Y-49850D03*
G54D44*
X45850Y-49850D03*
X46850Y-49850D03*
G54D43*
X48400Y-53150D03*
G54D44*
X49400Y-53150D03*
X50400Y-53150D03*
G54D43*
X48400Y-49850D03*
G54D44*
X49400Y-49850D03*
X50400Y-49850D03*
G54D43*
X51950Y-53150D03*
G54D44*
X52950Y-53150D03*
X53950Y-53150D03*
G54D43*
X51950Y-49850D03*
G54D44*
X52950Y-49850D03*
X53950Y-49850D03*
G54D43*
X55450Y-53150D03*
G54D44*
X56450Y-53150D03*
X57450Y-53150D03*
G54D43*
X55450Y-49850D03*
G54D44*
X56450Y-49850D03*
X57450Y-49850D03*
G54D43*
X59050Y-49850D03*
G54D44*
X60050Y-49850D03*
X61050Y-49850D03*
G54D43*
X59050Y-53150D03*
G54D44*
X60050Y-53150D03*
X61050Y-53150D03*
G54D43*
X41100Y-49960D03*
G54D44*
X42100Y-49960D03*
X43100Y-49960D03*
G54D43*
X41100Y-53150D03*
G54D44*
X42100Y-53150D03*
X43100Y-53150D03*
G54D52*
X42000Y-29500D03*
X45000Y-29500D03*
M02*
