M48
INCH,LZ
T1C0.025
T2C0.032
T3C0.040
T4C0.080
T5C0.128
T6C0.134
%
G05
T1
X04015Y-04745
X04035Y-03215
X0415Y-03165
X0423Y-0532
X043Y-0473
X0441Y-03415
X0454Y-038
X04545Y-03315
X04615Y-0295
X047075Y-033325
X0473Y-0473
X0482Y-0323
X0482Y-0342
X04855Y-03165
X0488Y-0307
X049Y-0406
X0491Y-0418
X04935Y-03895
X0495Y-0532
X0496Y-0311
X0496Y-0406
X0497Y-0351
X05Y-0379
X0502Y-0371
X0506Y-0311
X0512Y-0308
X0516Y-0355
X0519Y-0418
X05215Y-03095
X05225Y-03485
X053Y-03825
X0534Y-04265
X0538Y-0422
X054Y-0302
X054Y-03955
X05415Y-0341
X0542Y-0324
X0543Y-038625
X0545Y-0414
X0546Y-0473
X055Y-0445
X0551Y-0309
X05515Y-03815
X0554Y-0418
X05555Y-0328
X0556Y-03765
X0558Y-0443
X05605Y-038
X0561Y-0302
X0561Y-033
X05615Y-0312
X0569Y-0419
X0569Y-0532
X05705Y-03845
X0575Y-039
X0575Y-0401
X0576Y-0351
X0583Y-0398
X0587Y-03445
X05915Y-0302
X05915Y-03225
X05915Y-03885
X05915Y-0419
X0592Y-0382
X0601Y-0358
X0603Y-0343
X0609Y-04115
X0613Y-0473
X0615Y-04115
X0618Y-0399
X06185Y-043
X0619Y-02785
X0619Y-0416
X0622Y-0421
X0623Y-04115
X06315Y-0399
X0637Y-0438
X0637Y-0464
X0641Y-0532
X0651Y-0421
X0651Y-0429
X0653Y-0462
X06545Y-04335
X0657Y-0421
X0666Y-0417
X0684Y-0473
X069Y-04355
X06905Y-0318
X0696Y-0334
X0696Y-0394
X0713Y-0532
X0746Y-0489
X0779Y-0317
X0786Y-0532
X082Y-0332
X082Y-0386
X082Y-046
X082Y-0501
X0863Y-0512
X0867Y-0293
X0867Y-0359
X0867Y-0433
T2
X0592Y-02835
X0592Y-0361
X0664Y-0349
X0664Y-0364
X0664Y-0379
X0724Y-0349
X0724Y-0379
X0744Y-0349
X0744Y-0379
X0764Y-0349
X0764Y-0379
T3
X04015Y-0543
X04115Y-0543
X0472Y-02835
X0472Y-02935
X0472Y-0361
X0472Y-0371
X04725Y-0543
X0482Y-02835
X0482Y-02935
X0482Y-0361
X0482Y-0371
X04825Y-0543
X0492Y-02835
X0492Y-02935
X0492Y-0361
X0492Y-0371
X0502Y-02835
X0502Y-02935
X0502Y-0361
X0502Y-0371
X0512Y-02835
X0512Y-02935
X0512Y-0361
X0512Y-0371
X0522Y-02835
X0522Y-02935
X0522Y-0361
X0522Y-0371
X0532Y-02835
X0532Y-02935
X0532Y-0361
X0532Y-0371
X0542Y-02835
X0542Y-02935
X0542Y-0361
X0542Y-0371
X05465Y-0543
X0552Y-02835
X0552Y-02935
X0552Y-0361
X0552Y-0371
X05565Y-0543
X0562Y-02835
X0562Y-02935
X0562Y-0361
X0562Y-0371
X0572Y-02835
X0572Y-02935
X0572Y-0361
X0572Y-0371
X0582Y-02835
X0582Y-02935
X0582Y-0361
X0582Y-0371
X0592Y-02935
X0592Y-0371
X06185Y-0543
X06285Y-0543
X0677Y-0402
X0677Y-0412
X0677Y-0422
X0687Y-0402
X0687Y-0412
X0687Y-0422
X06905Y-0543
X07005Y-0543
X07635Y-0543
X07735Y-0543
X08805Y-04495
X08805Y-04595
X08805Y-05225
X08805Y-05325
X08815Y-03065
X08815Y-03165
X08815Y-03765
X08815Y-03865
T4
X0382Y-0379
X0443Y-0581
X0659Y-0581
X0792Y-0343
X0815Y-0587
X0883Y-04255
X08855Y-028
T5
X0401Y-0271
X0401Y-0301
T6
X0396Y-0577
X0417Y-0577
X0467Y-0577
X0488Y-0577
X0541Y-0577
X0562Y-0577
X0613Y-0577
X0634Y-0577
X0685Y-0577
X0706Y-0577
X0758Y-0577
X0779Y-0577
X09145Y-0444
X09145Y-0465
X09145Y-0517
X09145Y-0538
X09155Y-0301
X09155Y-0322
X09155Y-0371
X09155Y-0392
T0
M30
