G04 (created by PCBnew (20090216-final)) date Wed 12 Aug 2009 20:07:14 CDT*
G01*
G70*
G90*
%MOIN*%
G04 Gerber Fmt 3.4, Leading zero omitted, Abs format*
%FSLAX34Y34*%
G04 APERTURE LIST*
%ADD10C,0.015000*%
%ADD11C,0.100000*%
%ADD12C,0.060000*%
%ADD13R,0.045000X0.025000*%
%ADD14R,0.035000X0.055000*%
%ADD15R,0.020000X0.045000*%
%ADD16R,0.055000X0.017000*%
%ADD17R,0.144000X0.080000*%
%ADD18R,0.040000X0.080000*%
%ADD19R,0.055000X0.035000*%
%ADD20R,0.060000X0.060000*%
%ADD21C,0.150000*%
%ADD22C,0.140000*%
%ADD23C,0.045000*%
%ADD24C,0.017000*%
%ADD25C,0.034000*%
%ADD26C,0.025000*%
%ADD27C,0.068000*%
%ADD28C,0.010000*%
%ADD29C,0.012500*%
%ADD30R,0.050000X0.115000*%
%ADD31R,0.135000X0.050000*%
%ADD32R,0.060000X0.080000*%
%ADD33R,0.070900X0.165400*%
%ADD34R,0.393700X0.374000*%
%ADD35R,0.080000X0.144000*%
%ADD36R,0.080000X0.040000*%
%ADD37R,0.016500X0.057900*%
%ADD38R,0.057900X0.016500*%
%ADD39R,0.100000X0.047000*%
%ADD40R,0.250000X0.030000*%
%ADD41C,0.064000*%
%ADD42C,0.005000*%
%ADD43C,0.008000*%
G04 APERTURE END LIST*
G54D10*
X92100Y-60500D02*
X93800Y-60500D01*
X92100Y-26000D02*
X93800Y-26000D01*
X84000Y-60500D02*
X92100Y-60500D01*
X84000Y-26000D02*
X92100Y-26000D01*
X84000Y-26000D02*
X36500Y-26000D01*
X93800Y-60500D02*
X93800Y-26000D01*
X36500Y-60500D02*
X84000Y-60500D01*
X36500Y-26000D02*
X36500Y-60500D01*
G54D42*
X53750Y-34350D02*
X53750Y-35250D01*
X53750Y-35250D02*
X54250Y-35250D01*
X54250Y-35250D02*
X54250Y-34350D01*
X54250Y-34350D02*
X53750Y-34350D01*
X55200Y-34800D02*
X55199Y-34809D01*
X55199Y-34809D02*
X55196Y-34819D01*
X55196Y-34819D02*
X55191Y-34827D01*
X55191Y-34827D02*
X55185Y-34835D01*
X55185Y-34835D02*
X55177Y-34841D01*
X55177Y-34841D02*
X55169Y-34846D01*
X55169Y-34846D02*
X55160Y-34848D01*
X55160Y-34848D02*
X55150Y-34849D01*
X55150Y-34849D02*
X55141Y-34849D01*
X55141Y-34849D02*
X55132Y-34846D01*
X55132Y-34846D02*
X55123Y-34841D01*
X55123Y-34841D02*
X55116Y-34835D01*
X55116Y-34835D02*
X55109Y-34828D01*
X55109Y-34828D02*
X55105Y-34819D01*
X55105Y-34819D02*
X55102Y-34810D01*
X55102Y-34810D02*
X55101Y-34800D01*
X55101Y-34800D02*
X55101Y-34791D01*
X55101Y-34791D02*
X55104Y-34782D01*
X55104Y-34782D02*
X55108Y-34773D01*
X55108Y-34773D02*
X55115Y-34766D01*
X55115Y-34766D02*
X55122Y-34759D01*
X55122Y-34759D02*
X55130Y-34755D01*
X55130Y-34755D02*
X55140Y-34752D01*
X55140Y-34752D02*
X55149Y-34751D01*
X55149Y-34751D02*
X55158Y-34751D01*
X55158Y-34751D02*
X55168Y-34754D01*
X55168Y-34754D02*
X55176Y-34758D01*
X55176Y-34758D02*
X55184Y-34764D01*
X55184Y-34764D02*
X55190Y-34772D01*
X55190Y-34772D02*
X55195Y-34780D01*
X55195Y-34780D02*
X55198Y-34789D01*
X55198Y-34789D02*
X55199Y-34799D01*
X55199Y-34799D02*
X55200Y-34800D01*
X55600Y-34800D02*
X55200Y-34800D01*
X55200Y-34800D02*
X55200Y-35400D01*
X55200Y-35400D02*
X55600Y-35400D01*
X56000Y-35400D02*
X56400Y-35400D01*
X56400Y-35400D02*
X56400Y-34800D01*
X56400Y-34800D02*
X56000Y-34800D01*
G54D43*
X50300Y-39200D02*
X50300Y-41100D01*
X50300Y-41100D02*
X54300Y-41100D01*
X54300Y-41100D02*
X54300Y-39200D01*
X54300Y-39200D02*
X50300Y-39200D01*
X54300Y-39900D02*
X54050Y-39900D01*
X54050Y-39900D02*
X54050Y-40400D01*
X54050Y-40400D02*
X54300Y-40400D01*
X54000Y-42900D02*
X54000Y-44800D01*
X54000Y-44800D02*
X58000Y-44800D01*
X58000Y-44800D02*
X58000Y-42900D01*
X58000Y-42900D02*
X54000Y-42900D01*
X58000Y-43600D02*
X57750Y-43600D01*
X57750Y-43600D02*
X57750Y-44100D01*
X57750Y-44100D02*
X58000Y-44100D01*
X54200Y-33200D02*
X54500Y-33200D01*
X54500Y-33200D02*
X54500Y-32600D01*
X54500Y-32600D02*
X54200Y-32600D01*
X58600Y-33800D02*
X58600Y-32000D01*
X58600Y-32000D02*
X54200Y-32000D01*
X54200Y-32000D02*
X54200Y-33800D01*
X54200Y-33800D02*
X58600Y-33800D01*
X48700Y-33200D02*
X49000Y-33200D01*
X49000Y-33200D02*
X49000Y-32600D01*
X49000Y-32600D02*
X48700Y-32600D01*
X53100Y-33800D02*
X53100Y-32000D01*
X53100Y-32000D02*
X48700Y-32000D01*
X48700Y-32000D02*
X48700Y-33800D01*
X48700Y-33800D02*
X53100Y-33800D01*
G54D42*
X48250Y-38150D02*
X48247Y-38179D01*
X48247Y-38179D02*
X48238Y-38207D01*
X48238Y-38207D02*
X48224Y-38233D01*
X48224Y-38233D02*
X48206Y-38255D01*
X48206Y-38255D02*
X48183Y-38274D01*
X48183Y-38274D02*
X48158Y-38288D01*
X48158Y-38288D02*
X48130Y-38296D01*
X48130Y-38296D02*
X48101Y-38299D01*
X48101Y-38299D02*
X48072Y-38297D01*
X48072Y-38297D02*
X48044Y-38289D01*
X48044Y-38289D02*
X48018Y-38275D01*
X48018Y-38275D02*
X47996Y-38257D01*
X47996Y-38257D02*
X47977Y-38234D01*
X47977Y-38234D02*
X47963Y-38209D01*
X47963Y-38209D02*
X47954Y-38181D01*
X47954Y-38181D02*
X47951Y-38152D01*
X47951Y-38152D02*
X47953Y-38123D01*
X47953Y-38123D02*
X47961Y-38095D01*
X47961Y-38095D02*
X47974Y-38069D01*
X47974Y-38069D02*
X47993Y-38046D01*
X47993Y-38046D02*
X48015Y-38027D01*
X48015Y-38027D02*
X48040Y-38013D01*
X48040Y-38013D02*
X48068Y-38004D01*
X48068Y-38004D02*
X48097Y-38001D01*
X48097Y-38001D02*
X48126Y-38003D01*
X48126Y-38003D02*
X48154Y-38011D01*
X48154Y-38011D02*
X48180Y-38024D01*
X48180Y-38024D02*
X48203Y-38042D01*
X48203Y-38042D02*
X48222Y-38064D01*
X48222Y-38064D02*
X48237Y-38089D01*
X48237Y-38089D02*
X48246Y-38117D01*
X48246Y-38117D02*
X48249Y-38146D01*
X48249Y-38146D02*
X48250Y-38150D01*
G54D43*
X48400Y-37850D02*
X48400Y-39750D01*
X48400Y-39750D02*
X46600Y-39750D01*
X46600Y-39750D02*
X46600Y-37850D01*
X46600Y-37850D02*
X48400Y-37850D01*
X59600Y-31500D02*
X59600Y-30300D01*
X59600Y-30300D02*
X62400Y-30300D01*
X62400Y-30300D02*
X62400Y-31500D01*
X59600Y-32700D02*
X59600Y-33000D01*
X59600Y-33000D02*
X60200Y-33900D01*
X60200Y-33900D02*
X61800Y-33900D01*
X61800Y-33900D02*
X62400Y-33000D01*
X62400Y-33000D02*
X62400Y-32700D01*
X68200Y-35300D02*
X68200Y-34100D01*
X68200Y-34100D02*
X71000Y-34100D01*
X71000Y-34100D02*
X71000Y-35300D01*
X68200Y-36500D02*
X68200Y-36800D01*
X68200Y-36800D02*
X68800Y-37700D01*
X68800Y-37700D02*
X70400Y-37700D01*
X70400Y-37700D02*
X71000Y-36800D01*
X71000Y-36800D02*
X71000Y-36500D01*
G54D42*
X63150Y-41750D02*
X63149Y-41759D01*
X63149Y-41759D02*
X63146Y-41769D01*
X63146Y-41769D02*
X63141Y-41777D01*
X63141Y-41777D02*
X63135Y-41785D01*
X63135Y-41785D02*
X63127Y-41791D01*
X63127Y-41791D02*
X63119Y-41796D01*
X63119Y-41796D02*
X63110Y-41798D01*
X63110Y-41798D02*
X63100Y-41799D01*
X63100Y-41799D02*
X63091Y-41799D01*
X63091Y-41799D02*
X63082Y-41796D01*
X63082Y-41796D02*
X63073Y-41791D01*
X63073Y-41791D02*
X63066Y-41785D01*
X63066Y-41785D02*
X63059Y-41778D01*
X63059Y-41778D02*
X63055Y-41769D01*
X63055Y-41769D02*
X63052Y-41760D01*
X63052Y-41760D02*
X63051Y-41750D01*
X63051Y-41750D02*
X63051Y-41741D01*
X63051Y-41741D02*
X63054Y-41732D01*
X63054Y-41732D02*
X63058Y-41723D01*
X63058Y-41723D02*
X63065Y-41716D01*
X63065Y-41716D02*
X63072Y-41709D01*
X63072Y-41709D02*
X63080Y-41705D01*
X63080Y-41705D02*
X63090Y-41702D01*
X63090Y-41702D02*
X63099Y-41701D01*
X63099Y-41701D02*
X63108Y-41701D01*
X63108Y-41701D02*
X63118Y-41704D01*
X63118Y-41704D02*
X63126Y-41708D01*
X63126Y-41708D02*
X63134Y-41714D01*
X63134Y-41714D02*
X63140Y-41722D01*
X63140Y-41722D02*
X63145Y-41730D01*
X63145Y-41730D02*
X63148Y-41739D01*
X63148Y-41739D02*
X63149Y-41749D01*
X63149Y-41749D02*
X63150Y-41750D01*
X63550Y-41750D02*
X63150Y-41750D01*
X63150Y-41750D02*
X63150Y-42350D01*
X63150Y-42350D02*
X63550Y-42350D01*
X63950Y-42350D02*
X64350Y-42350D01*
X64350Y-42350D02*
X64350Y-41750D01*
X64350Y-41750D02*
X63950Y-41750D01*
X66350Y-44950D02*
X66349Y-44959D01*
X66349Y-44959D02*
X66346Y-44969D01*
X66346Y-44969D02*
X66341Y-44977D01*
X66341Y-44977D02*
X66335Y-44985D01*
X66335Y-44985D02*
X66327Y-44991D01*
X66327Y-44991D02*
X66319Y-44996D01*
X66319Y-44996D02*
X66310Y-44998D01*
X66310Y-44998D02*
X66300Y-44999D01*
X66300Y-44999D02*
X66291Y-44999D01*
X66291Y-44999D02*
X66282Y-44996D01*
X66282Y-44996D02*
X66273Y-44991D01*
X66273Y-44991D02*
X66266Y-44985D01*
X66266Y-44985D02*
X66259Y-44978D01*
X66259Y-44978D02*
X66255Y-44969D01*
X66255Y-44969D02*
X66252Y-44960D01*
X66252Y-44960D02*
X66251Y-44950D01*
X66251Y-44950D02*
X66251Y-44941D01*
X66251Y-44941D02*
X66254Y-44932D01*
X66254Y-44932D02*
X66258Y-44923D01*
X66258Y-44923D02*
X66265Y-44916D01*
X66265Y-44916D02*
X66272Y-44909D01*
X66272Y-44909D02*
X66280Y-44905D01*
X66280Y-44905D02*
X66290Y-44902D01*
X66290Y-44902D02*
X66299Y-44901D01*
X66299Y-44901D02*
X66308Y-44901D01*
X66308Y-44901D02*
X66318Y-44904D01*
X66318Y-44904D02*
X66326Y-44908D01*
X66326Y-44908D02*
X66334Y-44914D01*
X66334Y-44914D02*
X66340Y-44922D01*
X66340Y-44922D02*
X66345Y-44930D01*
X66345Y-44930D02*
X66348Y-44939D01*
X66348Y-44939D02*
X66349Y-44949D01*
X66349Y-44949D02*
X66350Y-44950D01*
X66300Y-45400D02*
X66300Y-45000D01*
X66300Y-45000D02*
X65700Y-45000D01*
X65700Y-45000D02*
X65700Y-45400D01*
X65700Y-45800D02*
X65700Y-46200D01*
X65700Y-46200D02*
X66300Y-46200D01*
X66300Y-46200D02*
X66300Y-45800D01*
X59500Y-42950D02*
X59499Y-42959D01*
X59499Y-42959D02*
X59496Y-42969D01*
X59496Y-42969D02*
X59491Y-42977D01*
X59491Y-42977D02*
X59485Y-42985D01*
X59485Y-42985D02*
X59477Y-42991D01*
X59477Y-42991D02*
X59469Y-42996D01*
X59469Y-42996D02*
X59460Y-42998D01*
X59460Y-42998D02*
X59450Y-42999D01*
X59450Y-42999D02*
X59441Y-42999D01*
X59441Y-42999D02*
X59432Y-42996D01*
X59432Y-42996D02*
X59423Y-42991D01*
X59423Y-42991D02*
X59416Y-42985D01*
X59416Y-42985D02*
X59409Y-42978D01*
X59409Y-42978D02*
X59405Y-42969D01*
X59405Y-42969D02*
X59402Y-42960D01*
X59402Y-42960D02*
X59401Y-42950D01*
X59401Y-42950D02*
X59401Y-42941D01*
X59401Y-42941D02*
X59404Y-42932D01*
X59404Y-42932D02*
X59408Y-42923D01*
X59408Y-42923D02*
X59415Y-42916D01*
X59415Y-42916D02*
X59422Y-42909D01*
X59422Y-42909D02*
X59430Y-42905D01*
X59430Y-42905D02*
X59440Y-42902D01*
X59440Y-42902D02*
X59449Y-42901D01*
X59449Y-42901D02*
X59458Y-42901D01*
X59458Y-42901D02*
X59468Y-42904D01*
X59468Y-42904D02*
X59476Y-42908D01*
X59476Y-42908D02*
X59484Y-42914D01*
X59484Y-42914D02*
X59490Y-42922D01*
X59490Y-42922D02*
X59495Y-42930D01*
X59495Y-42930D02*
X59498Y-42939D01*
X59498Y-42939D02*
X59499Y-42949D01*
X59499Y-42949D02*
X59500Y-42950D01*
X59450Y-43400D02*
X59450Y-43000D01*
X59450Y-43000D02*
X58850Y-43000D01*
X58850Y-43000D02*
X58850Y-43400D01*
X58850Y-43800D02*
X58850Y-44200D01*
X58850Y-44200D02*
X59450Y-44200D01*
X59450Y-44200D02*
X59450Y-43800D01*
X55600Y-40700D02*
X55599Y-40709D01*
X55599Y-40709D02*
X55596Y-40719D01*
X55596Y-40719D02*
X55591Y-40727D01*
X55591Y-40727D02*
X55585Y-40735D01*
X55585Y-40735D02*
X55577Y-40741D01*
X55577Y-40741D02*
X55569Y-40746D01*
X55569Y-40746D02*
X55560Y-40748D01*
X55560Y-40748D02*
X55550Y-40749D01*
X55550Y-40749D02*
X55541Y-40749D01*
X55541Y-40749D02*
X55532Y-40746D01*
X55532Y-40746D02*
X55523Y-40741D01*
X55523Y-40741D02*
X55516Y-40735D01*
X55516Y-40735D02*
X55509Y-40728D01*
X55509Y-40728D02*
X55505Y-40719D01*
X55505Y-40719D02*
X55502Y-40710D01*
X55502Y-40710D02*
X55501Y-40700D01*
X55501Y-40700D02*
X55501Y-40691D01*
X55501Y-40691D02*
X55504Y-40682D01*
X55504Y-40682D02*
X55508Y-40673D01*
X55508Y-40673D02*
X55515Y-40666D01*
X55515Y-40666D02*
X55522Y-40659D01*
X55522Y-40659D02*
X55530Y-40655D01*
X55530Y-40655D02*
X55540Y-40652D01*
X55540Y-40652D02*
X55549Y-40651D01*
X55549Y-40651D02*
X55558Y-40651D01*
X55558Y-40651D02*
X55568Y-40654D01*
X55568Y-40654D02*
X55576Y-40658D01*
X55576Y-40658D02*
X55584Y-40664D01*
X55584Y-40664D02*
X55590Y-40672D01*
X55590Y-40672D02*
X55595Y-40680D01*
X55595Y-40680D02*
X55598Y-40689D01*
X55598Y-40689D02*
X55599Y-40699D01*
X55599Y-40699D02*
X55600Y-40700D01*
X55550Y-40250D02*
X55550Y-40650D01*
X55550Y-40650D02*
X56150Y-40650D01*
X56150Y-40650D02*
X56150Y-40250D01*
X56150Y-39850D02*
X56150Y-39450D01*
X56150Y-39450D02*
X55550Y-39450D01*
X55550Y-39450D02*
X55550Y-39850D01*
X45750Y-37800D02*
X45749Y-37809D01*
X45749Y-37809D02*
X45746Y-37819D01*
X45746Y-37819D02*
X45741Y-37827D01*
X45741Y-37827D02*
X45735Y-37835D01*
X45735Y-37835D02*
X45727Y-37841D01*
X45727Y-37841D02*
X45719Y-37846D01*
X45719Y-37846D02*
X45710Y-37848D01*
X45710Y-37848D02*
X45700Y-37849D01*
X45700Y-37849D02*
X45691Y-37849D01*
X45691Y-37849D02*
X45682Y-37846D01*
X45682Y-37846D02*
X45673Y-37841D01*
X45673Y-37841D02*
X45666Y-37835D01*
X45666Y-37835D02*
X45659Y-37828D01*
X45659Y-37828D02*
X45655Y-37819D01*
X45655Y-37819D02*
X45652Y-37810D01*
X45652Y-37810D02*
X45651Y-37800D01*
X45651Y-37800D02*
X45651Y-37791D01*
X45651Y-37791D02*
X45654Y-37782D01*
X45654Y-37782D02*
X45658Y-37773D01*
X45658Y-37773D02*
X45665Y-37766D01*
X45665Y-37766D02*
X45672Y-37759D01*
X45672Y-37759D02*
X45680Y-37755D01*
X45680Y-37755D02*
X45690Y-37752D01*
X45690Y-37752D02*
X45699Y-37751D01*
X45699Y-37751D02*
X45708Y-37751D01*
X45708Y-37751D02*
X45718Y-37754D01*
X45718Y-37754D02*
X45726Y-37758D01*
X45726Y-37758D02*
X45734Y-37764D01*
X45734Y-37764D02*
X45740Y-37772D01*
X45740Y-37772D02*
X45745Y-37780D01*
X45745Y-37780D02*
X45748Y-37789D01*
X45748Y-37789D02*
X45749Y-37799D01*
X45749Y-37799D02*
X45750Y-37800D01*
X45700Y-37350D02*
X45700Y-37750D01*
X45700Y-37750D02*
X46300Y-37750D01*
X46300Y-37750D02*
X46300Y-37350D01*
X46300Y-36950D02*
X46300Y-36550D01*
X46300Y-36550D02*
X45700Y-36550D01*
X45700Y-36550D02*
X45700Y-36950D01*
X54140Y-34590D02*
X53860Y-34590D01*
X53860Y-34570D02*
X53860Y-34690D01*
X53860Y-34690D02*
X53892Y-34710D01*
X53892Y-34710D02*
X54109Y-34710D01*
X54109Y-34710D02*
X54140Y-34690D01*
X54140Y-34690D02*
X54140Y-34570D01*
X54140Y-34860D02*
X54140Y-34940D01*
X54140Y-34900D02*
X53860Y-34900D01*
X53892Y-34900D02*
X53954Y-34860D01*
X56263Y-35225D02*
X56263Y-34975D01*
X56263Y-34975D02*
X56096Y-34975D01*
X56096Y-34975D02*
X56068Y-35003D01*
X56068Y-35003D02*
X56068Y-35087D01*
X56068Y-35087D02*
X56096Y-35114D01*
X56096Y-35114D02*
X56263Y-35114D01*
X56179Y-35114D02*
X56068Y-35225D01*
X55880Y-35225D02*
X55769Y-35225D01*
X55825Y-35225D02*
X55825Y-34975D01*
X55825Y-35003D02*
X55880Y-35059D01*
X55553Y-35225D02*
X55442Y-35225D01*
X55498Y-35225D02*
X55498Y-34975D01*
X55498Y-35003D02*
X55553Y-35059D01*
X49450Y-39050D02*
X49717Y-39050D01*
X49717Y-39050D02*
X49750Y-39083D01*
X49750Y-39083D02*
X49750Y-39250D01*
X49750Y-39250D02*
X49717Y-39283D01*
X49717Y-39283D02*
X49450Y-39283D01*
X49750Y-39466D02*
X49717Y-39433D01*
X49717Y-39433D02*
X49617Y-39433D01*
X49617Y-39433D02*
X49584Y-39466D01*
X49584Y-39466D02*
X49584Y-39633D01*
X49584Y-39633D02*
X49550Y-39666D01*
X49550Y-39666D02*
X49484Y-39666D01*
X49484Y-39666D02*
X49450Y-39633D01*
X49450Y-39633D02*
X49450Y-39466D01*
X49450Y-39466D02*
X49484Y-39433D01*
X49484Y-39433D02*
X49550Y-39433D01*
X49550Y-39433D02*
X49584Y-39466D01*
X49584Y-39633D02*
X49617Y-39666D01*
X49617Y-39666D02*
X49717Y-39666D01*
X49717Y-39666D02*
X49750Y-39633D01*
X49750Y-39633D02*
X49750Y-39466D01*
X50100Y-39098D02*
X49900Y-39098D01*
X49900Y-39098D02*
X49989Y-39187D01*
X49989Y-39187D02*
X49900Y-39276D01*
X49900Y-39276D02*
X50100Y-39276D01*
X50100Y-39370D02*
X49900Y-39370D01*
X49900Y-39370D02*
X49989Y-39459D01*
X49989Y-39459D02*
X49900Y-39548D01*
X49900Y-39548D02*
X50100Y-39548D01*
X49900Y-39642D02*
X49900Y-39797D01*
X49900Y-39797D02*
X50100Y-39642D01*
X50100Y-40025D02*
X49900Y-40025D01*
X49900Y-40025D02*
X50056Y-39914D01*
X50056Y-39914D02*
X50056Y-40069D01*
X50100Y-40186D02*
X49900Y-40186D01*
X50100Y-40341D02*
X49900Y-40341D01*
X50012Y-40186D02*
X50012Y-40341D01*
X50078Y-40613D02*
X50100Y-40591D01*
X50100Y-40591D02*
X50100Y-40480D01*
X50100Y-40480D02*
X50078Y-40458D01*
X50078Y-40458D02*
X49923Y-40458D01*
X49923Y-40458D02*
X49900Y-40480D01*
X49900Y-40480D02*
X49900Y-40591D01*
X49900Y-40591D02*
X49923Y-40613D01*
X50100Y-40730D02*
X49900Y-40885D01*
X50078Y-40730D02*
X49923Y-40730D01*
X49923Y-40730D02*
X49900Y-40752D01*
X49900Y-40752D02*
X49900Y-40863D01*
X49900Y-40863D02*
X49923Y-40885D01*
X49923Y-40885D02*
X50078Y-40885D01*
X50078Y-40885D02*
X50100Y-40863D01*
X50100Y-40863D02*
X50100Y-40752D01*
X50100Y-40752D02*
X50078Y-40730D01*
X50100Y-41113D02*
X49900Y-41113D01*
X49900Y-41113D02*
X50056Y-41002D01*
X50056Y-41002D02*
X50056Y-41157D01*
X50100Y-41274D02*
X49900Y-41274D01*
X49900Y-41274D02*
X49989Y-41363D01*
X49989Y-41363D02*
X49900Y-41452D01*
X49900Y-41452D02*
X50100Y-41452D01*
X59300Y-43800D02*
X59300Y-44156D01*
X59300Y-44156D02*
X59250Y-44200D01*
X59250Y-44200D02*
X59000Y-44200D01*
X59000Y-44200D02*
X58950Y-44156D01*
X58950Y-44156D02*
X58950Y-43800D01*
X58750Y-43800D02*
X58400Y-43800D01*
X58400Y-43800D02*
X58750Y-44200D01*
X57568Y-46056D02*
X57612Y-46100D01*
X57612Y-46100D02*
X57835Y-46100D01*
X57835Y-46100D02*
X57879Y-46056D01*
X57879Y-46056D02*
X57879Y-45745D01*
X57879Y-45745D02*
X57835Y-45700D01*
X57835Y-45700D02*
X57612Y-45700D01*
X57612Y-45700D02*
X57568Y-45745D01*
X57341Y-46100D02*
X57341Y-45700D01*
X57385Y-45700D02*
X57118Y-45700D01*
X57118Y-45700D02*
X57074Y-45745D01*
X57074Y-45745D02*
X57074Y-46056D01*
X57074Y-46056D02*
X57118Y-46100D01*
X57118Y-46100D02*
X57385Y-46100D01*
X56891Y-45700D02*
X56580Y-45700D01*
X56580Y-45700D02*
X56891Y-46100D01*
X56175Y-46100D02*
X56175Y-45700D01*
X56175Y-45700D02*
X56397Y-46012D01*
X56397Y-46012D02*
X56086Y-46012D01*
X55903Y-46100D02*
X55903Y-45700D01*
X55592Y-46100D02*
X55592Y-45700D01*
X55903Y-45923D02*
X55592Y-45923D01*
X55098Y-46056D02*
X55142Y-46100D01*
X55142Y-46100D02*
X55365Y-46100D01*
X55365Y-46100D02*
X55409Y-46056D01*
X55409Y-46056D02*
X55409Y-45745D01*
X55409Y-45745D02*
X55365Y-45700D01*
X55365Y-45700D02*
X55142Y-45700D01*
X55142Y-45700D02*
X55098Y-45745D01*
X54915Y-45700D02*
X54604Y-45700D01*
X54604Y-45700D02*
X54604Y-45745D01*
X54604Y-45745D02*
X54782Y-45878D01*
X54782Y-45878D02*
X54648Y-45878D01*
X54648Y-45878D02*
X54604Y-45923D01*
X54604Y-45923D02*
X54604Y-46056D01*
X54604Y-46056D02*
X54648Y-46100D01*
X54648Y-46100D02*
X54871Y-46100D01*
X54871Y-46100D02*
X54915Y-46056D01*
X54421Y-46100D02*
X54110Y-45700D01*
X54421Y-46056D02*
X54421Y-45745D01*
X54421Y-45745D02*
X54377Y-45700D01*
X54377Y-45700D02*
X54154Y-45700D01*
X54154Y-45700D02*
X54110Y-45745D01*
X54110Y-45745D02*
X54110Y-46056D01*
X54110Y-46056D02*
X54154Y-46100D01*
X54154Y-46100D02*
X54377Y-46100D01*
X54377Y-46100D02*
X54421Y-46056D01*
X53927Y-46100D02*
X53927Y-45700D01*
X53927Y-45700D02*
X53749Y-45878D01*
X53749Y-45878D02*
X53571Y-45700D01*
X53571Y-45700D02*
X53571Y-46100D01*
G54D43*
X59580Y-33200D02*
X59580Y-33556D01*
X59580Y-33556D02*
X59536Y-33600D01*
X59536Y-33600D02*
X59313Y-33600D01*
X59313Y-33600D02*
X59269Y-33556D01*
X59269Y-33556D02*
X59269Y-33200D01*
X59056Y-33512D02*
X59056Y-33556D01*
X59056Y-33556D02*
X59012Y-33600D01*
X59012Y-33600D02*
X58789Y-33600D01*
X58789Y-33600D02*
X58745Y-33556D01*
X58745Y-33556D02*
X58745Y-33423D01*
X58745Y-33423D02*
X58834Y-33334D01*
X58834Y-33334D02*
X59056Y-33334D01*
X59056Y-33334D02*
X59056Y-33200D01*
X59056Y-33200D02*
X58745Y-33200D01*
G54D42*
X58019Y-34678D02*
X58041Y-34700D01*
X58041Y-34700D02*
X58152Y-34700D01*
X58152Y-34700D02*
X58174Y-34678D01*
X58174Y-34678D02*
X58174Y-34523D01*
X58174Y-34523D02*
X58152Y-34500D01*
X58152Y-34500D02*
X58041Y-34500D01*
X58041Y-34500D02*
X58019Y-34523D01*
X57880Y-34700D02*
X57880Y-34500D01*
X57902Y-34500D02*
X57769Y-34500D01*
X57769Y-34500D02*
X57747Y-34523D01*
X57747Y-34523D02*
X57747Y-34678D01*
X57747Y-34678D02*
X57769Y-34700D01*
X57769Y-34700D02*
X57902Y-34700D01*
X57519Y-34700D02*
X57519Y-34500D01*
X57519Y-34500D02*
X57630Y-34656D01*
X57630Y-34656D02*
X57475Y-34656D01*
X57358Y-34700D02*
X57203Y-34500D01*
X57358Y-34678D02*
X57358Y-34523D01*
X57358Y-34523D02*
X57336Y-34500D01*
X57336Y-34500D02*
X57225Y-34500D01*
X57225Y-34500D02*
X57203Y-34523D01*
X57203Y-34523D02*
X57203Y-34678D01*
X57203Y-34678D02*
X57225Y-34700D01*
X57225Y-34700D02*
X57336Y-34700D01*
X57336Y-34700D02*
X57358Y-34678D01*
X56931Y-34700D02*
X57086Y-34700D01*
X57086Y-34700D02*
X57086Y-34634D01*
X57086Y-34634D02*
X57064Y-34612D01*
X57064Y-34612D02*
X56953Y-34612D01*
X56953Y-34612D02*
X56931Y-34589D01*
X56931Y-34589D02*
X56931Y-34523D01*
X56931Y-34523D02*
X56953Y-34500D01*
X56953Y-34500D02*
X57064Y-34500D01*
X57064Y-34500D02*
X57086Y-34523D01*
X56814Y-34656D02*
X56814Y-34678D01*
X56814Y-34678D02*
X56792Y-34700D01*
X56792Y-34700D02*
X56681Y-34700D01*
X56681Y-34700D02*
X56659Y-34678D01*
X56659Y-34678D02*
X56659Y-34612D01*
X56659Y-34612D02*
X56703Y-34567D01*
X56703Y-34567D02*
X56814Y-34567D01*
X56814Y-34567D02*
X56814Y-34500D01*
X56814Y-34500D02*
X56659Y-34500D01*
X56542Y-34500D02*
X56387Y-34500D01*
X56387Y-34500D02*
X56542Y-34700D01*
X56270Y-34700D02*
X56270Y-34500D01*
X56270Y-34500D02*
X56137Y-34500D01*
X56137Y-34500D02*
X56115Y-34523D01*
X56115Y-34523D02*
X56115Y-34567D01*
X56115Y-34567D02*
X56137Y-34589D01*
X56137Y-34589D02*
X56270Y-34589D01*
X56137Y-34589D02*
X56115Y-34634D01*
X56115Y-34634D02*
X56115Y-34678D01*
X56115Y-34678D02*
X56137Y-34700D01*
X56137Y-34700D02*
X56270Y-34700D01*
X55998Y-34700D02*
X55998Y-34500D01*
X55998Y-34500D02*
X55909Y-34589D01*
X55909Y-34589D02*
X55820Y-34500D01*
X55820Y-34500D02*
X55820Y-34700D01*
X55593Y-34523D02*
X55593Y-34500D01*
X55593Y-34500D02*
X55704Y-34500D01*
X55704Y-34500D02*
X55726Y-34523D01*
X55726Y-34523D02*
X55726Y-34678D01*
X55726Y-34678D02*
X55704Y-34700D01*
X55704Y-34700D02*
X55593Y-34700D01*
X55593Y-34700D02*
X55571Y-34678D01*
X55571Y-34678D02*
X55571Y-34612D01*
X55571Y-34612D02*
X55637Y-34612D01*
X55343Y-34700D02*
X55343Y-34500D01*
X55343Y-34500D02*
X55454Y-34656D01*
X55454Y-34656D02*
X55299Y-34656D01*
G54D43*
X48480Y-33000D02*
X48480Y-33356D01*
X48480Y-33356D02*
X48436Y-33400D01*
X48436Y-33400D02*
X48213Y-33400D01*
X48213Y-33400D02*
X48169Y-33356D01*
X48169Y-33356D02*
X48169Y-33000D01*
X47734Y-33400D02*
X47734Y-33000D01*
X47734Y-33000D02*
X47956Y-33312D01*
X47956Y-33312D02*
X47645Y-33312D01*
G54D42*
X51519Y-34778D02*
X51541Y-34800D01*
X51541Y-34800D02*
X51652Y-34800D01*
X51652Y-34800D02*
X51674Y-34778D01*
X51674Y-34778D02*
X51674Y-34623D01*
X51674Y-34623D02*
X51652Y-34600D01*
X51652Y-34600D02*
X51541Y-34600D01*
X51541Y-34600D02*
X51519Y-34623D01*
X51380Y-34800D02*
X51380Y-34600D01*
X51402Y-34600D02*
X51269Y-34600D01*
X51269Y-34600D02*
X51247Y-34623D01*
X51247Y-34623D02*
X51247Y-34778D01*
X51247Y-34778D02*
X51269Y-34800D01*
X51269Y-34800D02*
X51402Y-34800D01*
X51019Y-34800D02*
X51019Y-34600D01*
X51019Y-34600D02*
X51130Y-34756D01*
X51130Y-34756D02*
X50975Y-34756D01*
X50858Y-34800D02*
X50703Y-34600D01*
X50858Y-34778D02*
X50858Y-34623D01*
X50858Y-34623D02*
X50836Y-34600D01*
X50836Y-34600D02*
X50725Y-34600D01*
X50725Y-34600D02*
X50703Y-34623D01*
X50703Y-34623D02*
X50703Y-34778D01*
X50703Y-34778D02*
X50725Y-34800D01*
X50725Y-34800D02*
X50836Y-34800D01*
X50836Y-34800D02*
X50858Y-34778D01*
X50431Y-34800D02*
X50586Y-34800D01*
X50586Y-34800D02*
X50586Y-34734D01*
X50586Y-34734D02*
X50564Y-34712D01*
X50564Y-34712D02*
X50453Y-34712D01*
X50453Y-34712D02*
X50431Y-34689D01*
X50431Y-34689D02*
X50431Y-34623D01*
X50431Y-34623D02*
X50453Y-34600D01*
X50453Y-34600D02*
X50564Y-34600D01*
X50564Y-34600D02*
X50586Y-34623D01*
X50314Y-34756D02*
X50314Y-34778D01*
X50314Y-34778D02*
X50292Y-34800D01*
X50292Y-34800D02*
X50181Y-34800D01*
X50181Y-34800D02*
X50159Y-34778D01*
X50159Y-34778D02*
X50159Y-34712D01*
X50159Y-34712D02*
X50203Y-34667D01*
X50203Y-34667D02*
X50314Y-34667D01*
X50314Y-34667D02*
X50314Y-34600D01*
X50314Y-34600D02*
X50159Y-34600D01*
X50042Y-34600D02*
X49887Y-34600D01*
X49887Y-34600D02*
X50042Y-34800D01*
X49770Y-34800D02*
X49770Y-34600D01*
X49770Y-34600D02*
X49637Y-34600D01*
X49637Y-34600D02*
X49615Y-34623D01*
X49615Y-34623D02*
X49615Y-34667D01*
X49615Y-34667D02*
X49637Y-34689D01*
X49637Y-34689D02*
X49770Y-34689D01*
X49637Y-34689D02*
X49615Y-34734D01*
X49615Y-34734D02*
X49615Y-34778D01*
X49615Y-34778D02*
X49637Y-34800D01*
X49637Y-34800D02*
X49770Y-34800D01*
X49498Y-34800D02*
X49498Y-34600D01*
X49498Y-34600D02*
X49409Y-34689D01*
X49409Y-34689D02*
X49320Y-34600D01*
X49320Y-34600D02*
X49320Y-34800D01*
X49093Y-34623D02*
X49093Y-34600D01*
X49093Y-34600D02*
X49204Y-34600D01*
X49204Y-34600D02*
X49226Y-34623D01*
X49226Y-34623D02*
X49226Y-34778D01*
X49226Y-34778D02*
X49204Y-34800D01*
X49204Y-34800D02*
X49093Y-34800D01*
X49093Y-34800D02*
X49071Y-34778D01*
X49071Y-34778D02*
X49071Y-34712D01*
X49071Y-34712D02*
X49137Y-34712D01*
X48843Y-34800D02*
X48843Y-34600D01*
X48843Y-34600D02*
X48954Y-34756D01*
X48954Y-34756D02*
X48799Y-34756D01*
G54D43*
X45625Y-38270D02*
X45937Y-38270D01*
X45937Y-38270D02*
X45975Y-38309D01*
X45975Y-38309D02*
X45975Y-38504D01*
X45975Y-38504D02*
X45937Y-38543D01*
X45937Y-38543D02*
X45625Y-38543D01*
X45625Y-38738D02*
X45625Y-39011D01*
X45625Y-39011D02*
X45664Y-39011D01*
X45664Y-39011D02*
X45781Y-38855D01*
X45781Y-38855D02*
X45781Y-38972D01*
X45781Y-38972D02*
X45820Y-39011D01*
X45820Y-39011D02*
X45937Y-39011D01*
X45937Y-39011D02*
X45975Y-38972D01*
X45975Y-38972D02*
X45975Y-38777D01*
X45975Y-38777D02*
X45937Y-38738D01*
G54D42*
X48466Y-40000D02*
X48311Y-40000D01*
X48311Y-40000D02*
X48466Y-40200D01*
X48083Y-40200D02*
X48083Y-40000D01*
X48083Y-40000D02*
X48194Y-40156D01*
X48194Y-40156D02*
X48039Y-40156D01*
X47922Y-40200D02*
X47922Y-40000D01*
X47767Y-40200D02*
X47767Y-40000D01*
X47922Y-40112D02*
X47767Y-40112D01*
X47495Y-40178D02*
X47517Y-40200D01*
X47517Y-40200D02*
X47628Y-40200D01*
X47628Y-40200D02*
X47650Y-40178D01*
X47650Y-40178D02*
X47650Y-40023D01*
X47650Y-40023D02*
X47628Y-40000D01*
X47628Y-40000D02*
X47517Y-40000D01*
X47517Y-40000D02*
X47495Y-40023D01*
X47378Y-40200D02*
X47223Y-40000D01*
X47378Y-40178D02*
X47378Y-40023D01*
X47378Y-40023D02*
X47356Y-40000D01*
X47356Y-40000D02*
X47245Y-40000D01*
X47245Y-40000D02*
X47223Y-40023D01*
X47223Y-40023D02*
X47223Y-40178D01*
X47223Y-40178D02*
X47245Y-40200D01*
X47245Y-40200D02*
X47356Y-40200D01*
X47356Y-40200D02*
X47378Y-40178D01*
X47084Y-40200D02*
X47106Y-40178D01*
X47106Y-40178D02*
X47106Y-40112D01*
X47106Y-40112D02*
X47084Y-40089D01*
X47084Y-40089D02*
X46973Y-40089D01*
X46973Y-40089D02*
X46951Y-40067D01*
X46951Y-40067D02*
X46951Y-40023D01*
X46951Y-40023D02*
X46973Y-40000D01*
X46973Y-40000D02*
X47084Y-40000D01*
X47084Y-40000D02*
X47106Y-40023D01*
X47106Y-40023D02*
X47106Y-40067D01*
X47106Y-40067D02*
X47084Y-40089D01*
X46973Y-40089D02*
X46951Y-40112D01*
X46951Y-40112D02*
X46951Y-40178D01*
X46951Y-40178D02*
X46973Y-40200D01*
X46973Y-40200D02*
X47084Y-40200D01*
X46812Y-40200D02*
X46812Y-40000D01*
X46834Y-40000D02*
X46701Y-40000D01*
X46701Y-40000D02*
X46679Y-40023D01*
X46679Y-40023D02*
X46679Y-40178D01*
X46679Y-40178D02*
X46701Y-40200D01*
X46701Y-40200D02*
X46834Y-40200D01*
X46562Y-40200D02*
X46562Y-40000D01*
X46562Y-40000D02*
X46429Y-40000D01*
X46429Y-40000D02*
X46407Y-40023D01*
X46407Y-40023D02*
X46407Y-40067D01*
X46407Y-40067D02*
X46429Y-40089D01*
X46429Y-40089D02*
X46562Y-40089D01*
X46429Y-40089D02*
X46407Y-40134D01*
X46407Y-40134D02*
X46407Y-40178D01*
X46407Y-40178D02*
X46429Y-40200D01*
X46429Y-40200D02*
X46562Y-40200D01*
G54D43*
X59342Y-30956D02*
X59342Y-30645D01*
X59342Y-30645D02*
X59298Y-30600D01*
X59298Y-30600D02*
X59075Y-30600D01*
X59075Y-30600D02*
X59031Y-30645D01*
X59031Y-30645D02*
X59031Y-30956D01*
X59031Y-30956D02*
X59075Y-31000D01*
X59075Y-31000D02*
X59298Y-31000D01*
X59298Y-31000D02*
X59342Y-30956D01*
X59120Y-30823D02*
X59031Y-31000D01*
X58507Y-31000D02*
X58818Y-31000D01*
X58818Y-31000D02*
X58818Y-30867D01*
X58818Y-30867D02*
X58774Y-30823D01*
X58774Y-30823D02*
X58551Y-30823D01*
X58551Y-30823D02*
X58507Y-30778D01*
X58507Y-30778D02*
X58507Y-30645D01*
X58507Y-30645D02*
X58551Y-30600D01*
X58551Y-30600D02*
X58774Y-30600D01*
X58774Y-30600D02*
X58818Y-30645D01*
X58205Y-31000D02*
X58027Y-31000D01*
X58116Y-31000D02*
X58116Y-30600D01*
X58116Y-30645D02*
X58205Y-30734D01*
G54D42*
X61566Y-30100D02*
X61566Y-29900D01*
X61566Y-29900D02*
X61477Y-29989D01*
X61477Y-29989D02*
X61388Y-29900D01*
X61388Y-29900D02*
X61388Y-30100D01*
X61272Y-30100D02*
X61294Y-30078D01*
X61294Y-30078D02*
X61294Y-29923D01*
X61294Y-29923D02*
X61272Y-29900D01*
X61272Y-29900D02*
X61161Y-29900D01*
X61161Y-29900D02*
X61139Y-29923D01*
X61139Y-29923D02*
X61139Y-30078D01*
X61139Y-30078D02*
X61161Y-30100D01*
X61161Y-30100D02*
X61272Y-30100D01*
X61022Y-30078D02*
X61000Y-30100D01*
X61000Y-30100D02*
X60889Y-30100D01*
X60889Y-30100D02*
X60867Y-30078D01*
X60867Y-30078D02*
X60867Y-30012D01*
X60867Y-30012D02*
X60889Y-29989D01*
X60889Y-29989D02*
X61000Y-29989D01*
X61000Y-29989D02*
X61022Y-29967D01*
X61022Y-29967D02*
X61022Y-29923D01*
X61022Y-29923D02*
X61000Y-29900D01*
X61000Y-29900D02*
X60889Y-29900D01*
X60889Y-29900D02*
X60867Y-29923D01*
X60750Y-30100D02*
X60750Y-29900D01*
X60750Y-29900D02*
X60595Y-29900D01*
X60750Y-29989D02*
X60661Y-29989D01*
X60323Y-30100D02*
X60478Y-30100D01*
X60478Y-30100D02*
X60478Y-29900D01*
X60478Y-29900D02*
X60323Y-29900D01*
X60478Y-29989D02*
X60389Y-29989D01*
X60206Y-29900D02*
X60028Y-29900D01*
X60117Y-29900D02*
X60117Y-30100D01*
X59934Y-30100D02*
X59779Y-30100D01*
X59662Y-30100D02*
X59662Y-29900D01*
X59662Y-29900D02*
X59507Y-30100D01*
X59507Y-30100D02*
X59507Y-29900D01*
G54D43*
X72642Y-36456D02*
X72642Y-36145D01*
X72642Y-36145D02*
X72598Y-36100D01*
X72598Y-36100D02*
X72375Y-36100D01*
X72375Y-36100D02*
X72331Y-36145D01*
X72331Y-36145D02*
X72331Y-36456D01*
X72331Y-36456D02*
X72375Y-36500D01*
X72375Y-36500D02*
X72598Y-36500D01*
X72598Y-36500D02*
X72642Y-36456D01*
X72420Y-36323D02*
X72331Y-36500D01*
X71807Y-36500D02*
X72118Y-36500D01*
X72118Y-36500D02*
X72118Y-36367D01*
X72118Y-36367D02*
X72074Y-36323D01*
X72074Y-36323D02*
X71851Y-36323D01*
X71851Y-36323D02*
X71807Y-36278D01*
X71807Y-36278D02*
X71807Y-36145D01*
X71807Y-36145D02*
X71851Y-36100D01*
X71851Y-36100D02*
X72074Y-36100D01*
X72074Y-36100D02*
X72118Y-36145D01*
X71283Y-36500D02*
X71594Y-36500D01*
X71594Y-36500D02*
X71594Y-36367D01*
X71594Y-36367D02*
X71550Y-36323D01*
X71550Y-36323D02*
X71327Y-36323D01*
X71327Y-36323D02*
X71283Y-36278D01*
X71283Y-36278D02*
X71283Y-36145D01*
X71283Y-36145D02*
X71327Y-36100D01*
X71327Y-36100D02*
X71550Y-36100D01*
X71550Y-36100D02*
X71594Y-36145D01*
G54D42*
X73366Y-35700D02*
X73366Y-35500D01*
X73366Y-35500D02*
X73277Y-35589D01*
X73277Y-35589D02*
X73188Y-35500D01*
X73188Y-35500D02*
X73188Y-35700D01*
X73072Y-35700D02*
X73094Y-35678D01*
X73094Y-35678D02*
X73094Y-35523D01*
X73094Y-35523D02*
X73072Y-35500D01*
X73072Y-35500D02*
X72961Y-35500D01*
X72961Y-35500D02*
X72939Y-35523D01*
X72939Y-35523D02*
X72939Y-35678D01*
X72939Y-35678D02*
X72961Y-35700D01*
X72961Y-35700D02*
X73072Y-35700D01*
X72822Y-35678D02*
X72800Y-35700D01*
X72800Y-35700D02*
X72689Y-35700D01*
X72689Y-35700D02*
X72667Y-35678D01*
X72667Y-35678D02*
X72667Y-35612D01*
X72667Y-35612D02*
X72689Y-35589D01*
X72689Y-35589D02*
X72800Y-35589D01*
X72800Y-35589D02*
X72822Y-35567D01*
X72822Y-35567D02*
X72822Y-35523D01*
X72822Y-35523D02*
X72800Y-35500D01*
X72800Y-35500D02*
X72689Y-35500D01*
X72689Y-35500D02*
X72667Y-35523D01*
X72550Y-35700D02*
X72550Y-35500D01*
X72550Y-35500D02*
X72395Y-35500D01*
X72550Y-35589D02*
X72461Y-35589D01*
X72123Y-35700D02*
X72278Y-35700D01*
X72278Y-35700D02*
X72278Y-35500D01*
X72278Y-35500D02*
X72123Y-35500D01*
X72278Y-35589D02*
X72189Y-35589D01*
X72006Y-35500D02*
X71828Y-35500D01*
X71917Y-35500D02*
X71917Y-35700D01*
X71734Y-35700D02*
X71579Y-35700D01*
X71462Y-35700D02*
X71462Y-35500D01*
X71462Y-35500D02*
X71307Y-35700D01*
X71307Y-35700D02*
X71307Y-35500D01*
X63855Y-42148D02*
X63883Y-42175D01*
X63883Y-42175D02*
X64022Y-42175D01*
X64022Y-42175D02*
X64050Y-42148D01*
X64050Y-42148D02*
X64050Y-41953D01*
X64050Y-41953D02*
X64022Y-41925D01*
X64022Y-41925D02*
X63883Y-41925D01*
X63883Y-41925D02*
X63855Y-41953D01*
X63723Y-42120D02*
X63723Y-42148D01*
X63723Y-42148D02*
X63695Y-42175D01*
X63695Y-42175D02*
X63556Y-42175D01*
X63556Y-42175D02*
X63528Y-42148D01*
X63528Y-42148D02*
X63528Y-42064D01*
X63528Y-42064D02*
X63584Y-42009D01*
X63584Y-42009D02*
X63723Y-42009D01*
X63723Y-42009D02*
X63723Y-41925D01*
X63723Y-41925D02*
X63528Y-41925D01*
X66098Y-45495D02*
X66125Y-45467D01*
X66125Y-45467D02*
X66125Y-45328D01*
X66125Y-45328D02*
X66098Y-45300D01*
X66098Y-45300D02*
X65903Y-45300D01*
X65903Y-45300D02*
X65875Y-45328D01*
X65875Y-45328D02*
X65875Y-45467D01*
X65875Y-45467D02*
X65903Y-45495D01*
X66125Y-45766D02*
X65875Y-45766D01*
X65875Y-45766D02*
X66070Y-45627D01*
X66070Y-45627D02*
X66070Y-45822D01*
X59248Y-43332D02*
X59275Y-43304D01*
X59275Y-43304D02*
X59275Y-43165D01*
X59275Y-43165D02*
X59248Y-43137D01*
X59248Y-43137D02*
X59053Y-43137D01*
X59053Y-43137D02*
X59025Y-43165D01*
X59025Y-43165D02*
X59025Y-43304D01*
X59025Y-43304D02*
X59053Y-43332D01*
X59275Y-43520D02*
X59275Y-43631D01*
X59275Y-43575D02*
X59025Y-43575D01*
X59053Y-43575D02*
X59109Y-43520D01*
X59275Y-43791D02*
X59025Y-43986D01*
X59248Y-43791D02*
X59053Y-43791D01*
X59053Y-43791D02*
X59025Y-43819D01*
X59025Y-43819D02*
X59025Y-43958D01*
X59025Y-43958D02*
X59053Y-43986D01*
X59053Y-43986D02*
X59248Y-43986D01*
X59248Y-43986D02*
X59275Y-43958D01*
X59275Y-43958D02*
X59275Y-43819D01*
X59275Y-43819D02*
X59248Y-43791D01*
X55948Y-39945D02*
X55975Y-39917D01*
X55975Y-39917D02*
X55975Y-39778D01*
X55975Y-39778D02*
X55948Y-39750D01*
X55948Y-39750D02*
X55753Y-39750D01*
X55753Y-39750D02*
X55725Y-39778D01*
X55725Y-39778D02*
X55725Y-39917D01*
X55725Y-39917D02*
X55753Y-39945D01*
X55725Y-40077D02*
X55725Y-40272D01*
X55725Y-40272D02*
X55975Y-40077D01*
X46098Y-37045D02*
X46125Y-37017D01*
X46125Y-37017D02*
X46125Y-36878D01*
X46125Y-36878D02*
X46098Y-36850D01*
X46098Y-36850D02*
X45903Y-36850D01*
X45903Y-36850D02*
X45875Y-36878D01*
X45875Y-36878D02*
X45875Y-37017D01*
X45875Y-37017D02*
X45903Y-37045D01*
X45903Y-37372D02*
X45875Y-37344D01*
X45875Y-37344D02*
X45875Y-37205D01*
X45875Y-37205D02*
X45903Y-37177D01*
X45903Y-37177D02*
X46098Y-37177D01*
X46098Y-37177D02*
X46125Y-37205D01*
X46125Y-37205D02*
X46125Y-37344D01*
X46125Y-37344D02*
X46098Y-37372D01*
X46098Y-37372D02*
X46014Y-37372D01*
X46014Y-37372D02*
X45987Y-37344D01*
X45987Y-37344D02*
X45987Y-37205D01*
X45987Y-37205D02*
X46014Y-37177D01*
M02*
